<?xml version="1.0" encoding="UTF-8"?>
<svg width="1439px" height="1440px" viewBox="0 0 1439 1440" version="1.1" xmlns="http://www.w3.org/2000/svg" xmlns:xlink="http://www.w3.org/1999/xlink">
    <!-- Generator: Sketch 52.6 (67491) - http://www.bohemiancoding.com/sketch -->
    <title>Group 4</title>
    <desc>Created with Sketch.</desc>
    <g id="Page-1" stroke="none" stroke-width="1" fill="none" fill-rule="evenodd" opacity="0.025390625">
        <g id="PRICING" transform="translate(0.000000, -596.000000)" fill="#FFFFFF">
            <g id="Group-4" transform="translate(-1.000000, 596.000000)">
                <polyline id="Fill-3" points="65.9541985 0.00102297811 62.5285634 0 31.2647924 54.0009685 0 54.0009685 0 56.9604441 32.9776099 56.9604441 65.9541985 0.00102297811"></polyline>
                <polyline id="Fill-5" points="174.128057 53.962526 236.585704 53.962526 267.814018 0.00102224987 267.810957 0 236.585704 53.9563925 174.128057 53.9563925 142.904844 0 142.900763 0 174.128057 53.962526"></polyline>
                <path d="M71.4026916,5.9304458 L133.457073,5.9304458 L164.483757,59.4582022 L133.457073,112.986973 L71.4026916,112.986973 L40.3760075,59.4582022 L71.4026916,5.9304458 Z M135.155888,115.9195 L167.883414,59.4582022 L135.155888,2.99791811 L69.7018495,2.99791811 L36.9743234,59.4582022 L69.7018495,115.9195 L135.155888,115.9195 Z" id="Fill-6"></path>
                <polyline id="Fill-8" points="65.9541985 119.416564 32.9776099 62.9562804 0 62.9562804 0 65.888808 31.2647924 65.888808 62.5285634 119.416564 31.2647924 172.944321 0 172.944321 0 175.877863 32.9776099 175.877863 65.9541985 119.416564"></polyline>
                <polyline id="Fill-10" points="236.585704 173.879251 267.814018 119.919791 267.811978 119.916724 236.585704 173.873117 174.128057 173.873117 142.902804 119.916724 142.900763 119.919791 174.128057 173.879251 236.585704 173.879251"></polyline>
                <polyline id="Fill-11" points="139.903859 119.916724 172.630371 62.9634408 238.08441 62.9634408 270.807882 119.916724 270.811936 119.913656 238.08441 62.9562804 172.630371 62.9562804 139.902845 119.913656 139.903859 119.916724"></polyline>
                <polyline id="Fill-12" points="172.630371 56.9604441 238.08441 56.9604441 270.811936 0.00102297811 267.410252 0 236.383568 54.0009685 174.329186 54.0009685 143.303516 0.00102297811 139.902845 0 172.630371 56.9604441"></polyline>
                <path d="M277.257708,5.9304458 L339.31209,5.9304458 L370.338774,59.4582022 L339.31209,112.986973 L277.257708,112.986973 L246.231024,59.4582022 L277.257708,5.9304458 Z M341.012932,115.9195 L373.740458,59.4582022 L341.012932,2.99791811 L275.558893,2.99791811 L242.831367,59.4582022 L275.558893,115.9195 L341.012932,115.9195 Z" id="Fill-13"></path>
                <path d="M143.305543,119.413522 L174.329186,65.888808 L236.383568,65.888808 L267.408225,119.413522 L267.410252,119.416564 L236.383568,172.944321 L174.329186,172.944321 L143.303516,119.416564 L143.305543,119.413522 Z M172.630371,62.9562804 L139.903859,119.413522 L139.902845,119.416564 L172.630371,175.877863 L238.08441,175.877863 L270.811936,119.416564 L270.807882,119.413522 L238.08441,62.9562804 L172.630371,62.9562804 Z" id="Fill-14"></path>
                <polyline id="Fill-15" points="378.485895 56.9604441 443.942974 56.9604441 476.66898 0.00102297811 473.26927 0 442.243119 54.0009685 380.186763 54.0009685 349.159599 0.00102297811 345.759889 0 378.485895 56.9604441"></polyline>
                <path d="M483.115018,5.9304458 L545.170894,5.9304458 L576.197818,59.4582022 L545.170894,112.986973 L483.115018,112.986973 L452.088094,59.4582022 L483.115018,5.9304458 Z M546.871749,115.9195 L579.597502,59.4582022 L546.871749,2.99791811 L481.415177,2.99791811 L448.688411,59.4582022 L481.415177,115.9195 L546.871749,115.9195 Z" id="Fill-16"></path>
                <path d="M380.186763,65.888808 L442.243119,65.888808 L473.26927,119.416564 L442.243119,172.944321 L380.186763,172.944321 L349.159599,119.416564 L380.186763,65.888808 Z M378.485895,175.877863 L443.942974,175.877863 L476.66898,119.416564 L443.942974,62.9562804 L378.485895,62.9562804 L345.759889,119.416564 L378.485895,175.877863 Z" id="Fill-17"></path>
                <polyline id="Fill-18" points="584.343445 56.9604441 649.798497 56.9604441 682.526024 0.00102297811 679.126367 0 648.099683 54.0009685 586.044287 54.0009685 555.017603 0.00102297811 551.616933 0 584.343445 56.9604441"></polyline>
                <path d="M688.973076,5.9304458 L751.028952,5.9304458 L782.054862,59.4582022 L751.028952,112.986973 L688.973076,112.986973 L657.946151,59.4582022 L688.973076,5.9304458 Z M752.726766,115.9195 L785.454545,59.4582022 L752.726766,2.99791811 L687.273234,2.99791811 L654.545455,59.4582022 L687.273234,115.9195 L752.726766,115.9195 Z" id="Fill-19"></path>
                <path d="M586.044287,65.888808 L648.099683,65.888808 L679.126367,119.416564 L648.099683,172.944321 L586.044287,172.944321 L555.017603,119.416564 L586.044287,65.888808 Z M584.343445,175.877863 L649.798497,175.877863 L682.526024,119.416564 L649.798497,62.9562804 L584.343445,62.9562804 L551.616933,119.416564 L584.343445,175.877863 Z" id="Fill-20"></path>
                <polyline id="Fill-21" points="790.201249 56.9604441 855.655795 56.9604441 888.383067 0.00102297811 884.980396 0 853.954966 54.0009685 791.902078 54.0009685 760.875634 0.00102297811 757.473976 0 790.201249 56.9604441"></polyline>
                <path d="M894.829853,5.9304458 L956.883221,5.9304458 L987.910919,59.4582022 L956.883221,112.986973 L894.829853,112.986973 L863.803169,59.4582022 L894.829853,5.9304458 Z M958.584063,115.9195 L991.311589,59.4582022 L958.584063,2.99791811 L893.130024,2.99791811 L860.402498,59.4582022 L893.130024,115.9195 L958.584063,115.9195 Z" id="Fill-22"></path>
                <path d="M791.902078,65.888808 L853.954966,65.888808 L884.980396,119.416564 L853.954966,172.944321 L791.902078,172.944321 L760.875634,119.416564 L791.902078,65.888808 Z M790.201249,175.877863 L855.655795,175.877863 L888.383067,119.416564 L855.655795,62.9562804 L790.201249,62.9562804 L757.473976,119.416564 L790.201249,175.877863 Z" id="Fill-23"></path>
                <polyline id="Fill-24" points="996.057533 56.9604441 1061.51056 56.9604441 1094.24011 0.00102297811 1090.83437 0 1059.80769 54.0009685 997.757361 54.0009685 966.729663 0.00102297811 963.33102 0 996.057533 56.9604441"></polyline>
                <path d="M1100.69223,5.9304458 L1162.74608,5.9304458 L1193.773,59.4582022 L1162.74608,112.986973 L1100.69223,112.986973 L1069.66531,59.4582022 L1100.69223,5.9304458 Z M1164.44896,115.9195 L1197.16863,59.4582022 L1164.44896,2.99791811 L1098.98935,2.99791811 L1066.25954,59.4582022 L1098.98935,115.9195 L1164.44896,115.9195 Z" id="Fill-25"></path>
                <path d="M997.757361,65.888808 L1059.80769,65.888808 L1090.83437,119.416564 L1059.80769,172.944321 L997.757361,172.944321 L966.729663,119.416564 L997.757361,65.888808 Z M996.057533,175.877863 L1061.51056,175.877863 L1094.24011,119.416564 L1061.51056,62.9562804 L996.057533,62.9562804 L963.33102,119.416564 L996.057533,175.877863 Z" id="Fill-26"></path>
                <polyline id="Fill-27" points="1201.91787 56.9604441 1267.36735 56.9604441 1300.09715 0.00102297811 1296.70153 0 1265.6746 54.0009685 1203.62075 54.0009685 1172.59383 0.00102297811 1169.18806 0 1201.91787 56.9604441"></polyline>
                <path d="M1306.53914,5.9304458 L1368.59299,5.9304458 L1399.61991,59.4582022 L1368.59299,112.986973 L1306.53914,112.986973 L1275.51221,59.4582022 L1306.53914,5.9304458 Z M1370.29587,115.9195 L1403.02568,59.4582022 L1370.29587,2.99791811 L1304.83626,2.99791811 L1272.11659,59.4582022 L1304.83626,115.9195 L1370.29587,115.9195 Z" id="Fill-28"></path>
                <path d="M1203.62075,65.888808 L1265.6746,65.888808 L1296.70153,119.416564 L1265.6746,172.944321 L1203.62075,172.944321 L1172.59383,119.416564 L1203.62075,65.888808 Z M1201.91787,175.877863 L1267.36735,175.877863 L1300.09715,119.416564 L1267.36735,62.9562804 L1201.91787,62.9562804 L1169.18806,119.416564 L1201.91787,175.877863 Z" id="Fill-29"></path>
                <polyline id="Fill-30" points="1407.02801 56.9604441 1440 56.9604441 1440 54.0009685 1408.73381 54.0009685 1377.46762 0.00102297811 1374.0458 0 1407.02801 56.9604441"></polyline>
                <polyline id="Fill-31" points="1374.0458 119.416564 1407.02801 175.877863 1440 175.877863 1440 172.944321 1408.73381 172.944321 1377.46762 119.416564 1408.73381 65.888808 1440 65.888808 1440 62.9562804 1407.02801 62.9562804 1374.0458 119.416564"></polyline>
                <polyline id="Fill-33" points="65.9541985 239.334303 32.9776099 182.873005 0 182.873005 0 185.805533 31.2647924 185.805533 62.5285634 239.334303 31.2647924 292.861045 0 292.861045 0 295.794587 32.9776099 295.794587 65.9541985 239.334303"></polyline>
                <polyline id="Fill-35" points="238.08441 182.879143 270.807882 239.833449 270.811936 239.83038 238.08441 182.873005 172.630371 182.873005 139.902845 239.83038 139.903859 239.833449 172.630371 182.879143 238.08441 182.879143"></polyline>
                <polyline id="Fill-36" points="236.585704 293.795975 267.814018 239.837538 267.811978 239.833449 236.585704 293.789842 174.128057 293.789842 142.902804 239.833449 142.900763 239.837538 174.128057 293.795975 236.585704 293.795975"></polyline>
                <path d="M71.4026916,245.764909 L133.457073,245.764909 L164.483757,299.292665 L133.457073,352.820422 L71.4026916,352.820422 L40.3760075,299.292665 L71.4026916,245.764909 Z M135.155888,355.752949 L167.883414,299.292665 L135.155888,242.831367 L69.7018495,242.831367 L36.9743234,299.292665 L69.7018495,355.752949 L135.155888,355.752949 Z" id="Fill-37"></path>
                <polyline id="Fill-39" points="65.9541985 360.250334 32.9776099 303.789035 0 303.789035 0 306.722577 31.2647924 306.722577 62.5285634 360.250334 31.2647924 413.77809 0 413.77809 0 416.710618 32.9776099 416.710618 65.9541985 360.250334"></polyline>
                <polyline id="Fill-41" points="236.585704 413.7127 267.814018 359.75324 267.811978 359.750173 236.585704 413.705544 174.128057 413.705544 142.902804 359.750173 142.900763 359.75324 174.128057 413.7127 236.585704 413.7127"></polyline>
                <polyline id="Fill-42" points="238.08441 302.795867 270.807882 359.750173 270.811936 359.747105 238.08441 302.789729 172.630371 302.789729 139.902845 359.747105 139.903859 359.750173 172.630371 302.795867 238.08441 302.795867"></polyline>
                <path d="M71.4026916,125.84717 L133.457073,125.84717 L164.483757,179.375941 L133.457073,232.903697 L71.4026916,232.903697 L40.3760075,179.375941 L71.4026916,125.84717 Z M135.155888,235.836225 L167.883414,179.375941 L135.155888,122.914643 L69.7018495,122.914643 L36.9743234,179.375941 L69.7018495,235.836225 L135.155888,235.836225 Z" id="Fill-43"></path>
                <path d="M143.305543,239.330247 L174.329186,185.805533 L236.383568,185.805533 L267.408225,239.330247 L267.410252,239.334303 L236.383568,292.861045 L174.329186,292.861045 L143.303516,239.334303 L143.305543,239.330247 Z M172.630371,295.794587 L238.08441,295.794587 L270.811936,239.334303 L270.807882,239.330247 L238.08441,182.873005 L172.630371,182.873005 L139.903859,239.330247 L139.902845,239.334303 L172.630371,295.794587 Z" id="Fill-44"></path>
                <path d="M339.31209,352.820422 L277.257708,352.820422 L246.231024,299.292665 L277.257708,245.764909 L339.31209,245.764909 L370.338774,299.292665 L339.31209,352.820422 Z M275.558893,242.831367 L242.831367,299.292665 L275.558893,355.752949 L341.012932,355.752949 L373.740458,299.292665 L341.012932,242.831367 L275.558893,242.831367 Z" id="Fill-45"></path>
                <path d="M143.305543,360.247291 L174.329186,306.722577 L236.383568,306.722577 L267.408225,360.247291 L267.410252,360.250334 L236.383568,413.77809 L174.329186,413.77809 L143.303516,360.250334 L143.305543,360.247291 Z M172.630371,416.710618 L238.08441,416.710618 L270.811936,360.250334 L270.807882,360.247291 L238.08441,303.789035 L172.630371,303.789035 L139.903859,360.247291 L139.902845,360.250334 L172.630371,416.710618 Z" id="Fill-46"></path>
                <path d="M339.31209,232.903697 L277.257708,232.903697 L246.231024,179.375941 L277.257708,125.84717 L339.31209,125.84717 L370.338774,179.375941 L339.31209,232.903697 Z M275.558893,122.914643 L242.831367,179.375941 L275.558893,235.836225 L341.012932,235.836225 L373.740458,179.375941 L341.012932,122.914643 L275.558893,122.914643 Z" id="Fill-47"></path>
                <path d="M442.243119,292.861045 L380.186763,292.861045 L349.159599,239.334303 L380.186763,185.805533 L442.243119,185.805533 L473.26927,239.334303 L442.243119,292.861045 Z M378.485895,182.873005 L345.759889,239.334303 L378.485895,295.794587 L443.942974,295.794587 L476.66898,239.334303 L443.942974,182.873005 L378.485895,182.873005 Z" id="Fill-48"></path>
                <path d="M545.170894,352.820422 L483.115018,352.820422 L452.088094,299.292665 L483.115018,245.764909 L545.170894,245.764909 L576.197818,299.292665 L545.170894,352.820422 Z M481.415177,242.831367 L448.688411,299.292665 L481.415177,355.752949 L546.871749,355.752949 L579.597502,299.292665 L546.871749,242.831367 L481.415177,242.831367 Z" id="Fill-49"></path>
                <path d="M442.243119,413.77809 L380.186763,413.77809 L349.159599,360.250334 L380.186763,306.722577 L442.243119,306.722577 L473.26927,360.250334 L442.243119,413.77809 Z M378.485895,303.789035 L345.759889,360.250334 L378.485895,416.710618 L443.942974,416.710618 L476.66898,360.250334 L443.942974,303.789035 L378.485895,303.789035 Z" id="Fill-50"></path>
                <path d="M545.170894,232.903697 L483.115018,232.903697 L452.088094,179.375941 L483.115018,125.84717 L545.170894,125.84717 L576.197818,179.375941 L545.170894,232.903697 Z M481.415177,122.914643 L448.688411,179.375941 L481.415177,235.836225 L546.871749,235.836225 L579.597502,179.375941 L546.871749,122.914643 L481.415177,122.914643 Z" id="Fill-51"></path>
                <path d="M648.099683,292.861045 L586.044287,292.861045 L555.017603,239.334303 L586.044287,185.805533 L648.099683,185.805533 L679.126367,239.334303 L648.099683,292.861045 Z M584.343445,182.873005 L551.616933,239.334303 L584.343445,295.794587 L649.798497,295.794587 L682.526024,239.334303 L649.798497,182.873005 L584.343445,182.873005 Z" id="Fill-52"></path>
                <path d="M751.028952,352.820422 L688.973076,352.820422 L657.946151,299.292665 L688.973076,245.764909 L751.028952,245.764909 L782.054862,299.292665 L751.028952,352.820422 Z M687.273234,242.831367 L654.545455,299.292665 L687.273234,355.752949 L752.726766,355.752949 L785.454545,299.292665 L752.726766,242.831367 L687.273234,242.831367 Z" id="Fill-53"></path>
                <path d="M648.099683,413.77809 L586.044287,413.77809 L555.017603,360.250334 L586.044287,306.722577 L648.099683,306.722577 L679.126367,360.250334 L648.099683,413.77809 Z M584.343445,303.789035 L551.616933,360.250334 L584.343445,416.710618 L649.798497,416.710618 L682.526024,360.250334 L649.798497,303.789035 L584.343445,303.789035 Z" id="Fill-54"></path>
                <path d="M751.028952,232.903697 L688.973076,232.903697 L657.946151,179.375941 L688.973076,125.84717 L751.028952,125.84717 L782.054862,179.375941 L751.028952,232.903697 Z M687.273234,122.914643 L654.545455,179.375941 L687.273234,235.836225 L752.726766,235.836225 L785.454545,179.375941 L752.726766,122.914643 L687.273234,122.914643 Z" id="Fill-55"></path>
                <path d="M853.954966,292.861045 L791.902078,292.861045 L760.875634,239.334303 L791.902078,185.805533 L853.954966,185.805533 L884.980396,239.334303 L853.954966,292.861045 Z M790.201249,182.873005 L757.473976,239.334303 L790.201249,295.794587 L855.655795,295.794587 L888.383067,239.334303 L855.655795,182.873005 L790.201249,182.873005 Z" id="Fill-56"></path>
                <path d="M956.883221,352.820422 L894.829853,352.820422 L863.803169,299.292665 L894.829853,245.764909 L956.883221,245.764909 L987.910919,299.292665 L956.883221,352.820422 Z M893.130024,242.831367 L860.402498,299.292665 L893.130024,355.752949 L958.584063,355.752949 L991.311589,299.292665 L958.584063,242.831367 L893.130024,242.831367 Z" id="Fill-57"></path>
                <path d="M853.954966,413.77809 L791.902078,413.77809 L760.875634,360.250334 L791.902078,306.722577 L853.954966,306.722577 L884.980396,360.250334 L853.954966,413.77809 Z M790.201249,303.789035 L757.473976,360.250334 L790.201249,416.710618 L855.655795,416.710618 L888.383067,360.250334 L855.655795,303.789035 L790.201249,303.789035 Z" id="Fill-58"></path>
                <path d="M956.883221,232.903697 L894.829853,232.903697 L863.803169,179.375941 L894.829853,125.84717 L956.883221,125.84717 L987.910919,179.375941 L956.883221,232.903697 Z M893.130024,122.914643 L860.402498,179.375941 L893.130024,235.836225 L958.584063,235.836225 L991.311589,179.375941 L958.584063,122.914643 L893.130024,122.914643 Z" id="Fill-59"></path>
                <path d="M1059.80769,292.861045 L997.757361,292.861045 L966.729663,239.334303 L997.757361,185.805533 L1059.80769,185.805533 L1090.83437,239.334303 L1059.80769,292.861045 Z M996.057533,182.873005 L963.33102,239.334303 L996.057533,295.794587 L1061.51056,295.794587 L1094.24011,239.334303 L1061.51056,182.873005 L996.057533,182.873005 Z" id="Fill-60"></path>
                <path d="M1162.74608,352.820422 L1100.69223,352.820422 L1069.66531,299.292665 L1100.69223,245.764909 L1162.74608,245.764909 L1193.773,299.292665 L1162.74608,352.820422 Z M1164.44896,242.831367 L1098.98935,242.831367 L1066.25954,299.292665 L1098.98935,355.752949 L1164.44896,355.752949 L1197.16863,299.292665 L1164.44896,242.831367 Z" id="Fill-61"></path>
                <path d="M1059.80769,413.77809 L997.757361,413.77809 L966.729663,360.250334 L997.757361,306.722577 L1059.80769,306.722577 L1090.83437,360.250334 L1059.80769,413.77809 Z M996.057533,303.789035 L963.33102,360.250334 L996.057533,416.710618 L1061.51056,416.710618 L1094.24011,360.250334 L1061.51056,303.789035 L996.057533,303.789035 Z" id="Fill-62"></path>
                <path d="M1162.74608,232.903697 L1100.69223,232.903697 L1069.66531,179.375941 L1100.69223,125.84717 L1162.74608,125.84717 L1193.773,179.375941 L1162.74608,232.903697 Z M1098.98935,122.914643 L1066.25954,179.375941 L1098.98935,235.836225 L1164.44896,235.836225 L1197.16863,179.375941 L1164.44896,122.914643 L1098.98935,122.914643 Z" id="Fill-63"></path>
                <path d="M1265.6746,292.861045 L1203.62075,292.861045 L1172.59383,239.334303 L1203.62075,185.805533 L1265.6746,185.805533 L1296.70153,239.334303 L1265.6746,292.861045 Z M1267.36735,182.873005 L1201.91787,182.873005 L1169.18806,239.334303 L1201.91787,295.794587 L1267.36735,295.794587 L1300.09715,239.334303 L1267.36735,182.873005 Z" id="Fill-64"></path>
                <path d="M1368.59299,352.820422 L1306.53914,352.820422 L1275.51221,299.292665 L1306.53914,245.764909 L1368.59299,245.764909 L1399.61991,299.292665 L1368.59299,352.820422 Z M1304.83626,242.831367 L1272.11659,299.292665 L1304.83626,355.752949 L1370.29587,355.752949 L1403.02568,299.292665 L1370.29587,242.831367 L1304.83626,242.831367 Z" id="Fill-65"></path>
                <path d="M1265.6746,413.77809 L1203.62075,413.77809 L1172.59383,360.250334 L1203.62075,306.722577 L1265.6746,306.722577 L1296.70153,360.250334 L1265.6746,413.77809 Z M1267.36735,303.789035 L1201.91787,303.789035 L1169.18806,360.250334 L1201.91787,416.710618 L1267.36735,416.710618 L1300.09715,360.250334 L1267.36735,303.789035 Z" id="Fill-66"></path>
                <path d="M1368.59299,232.903697 L1306.53914,232.903697 L1275.51221,179.375941 L1306.53914,125.84717 L1368.59299,125.84717 L1399.61991,179.375941 L1368.59299,232.903697 Z M1304.83626,122.914643 L1272.11659,179.375941 L1304.83626,235.836225 L1370.29587,235.836225 L1403.02568,179.375941 L1370.29587,122.914643 L1304.83626,122.914643 Z" id="Fill-67"></path>
                <polyline id="Fill-68" points="1374.0458 239.334303 1407.02801 295.794587 1440 295.794587 1440 292.861045 1408.73381 292.861045 1377.46762 239.334303 1408.73381 185.805533 1440 185.805533 1440 182.873005 1407.02801 182.873005 1374.0458 239.334303"></polyline>
                <polyline id="Fill-69" points="1374.0458 360.250334 1407.02801 416.710618 1440 416.710618 1440 413.77809 1408.73381 413.77809 1377.46762 360.250334 1408.73381 306.722577 1440 306.722577 1440 303.789035 1407.02801 303.789035 1374.0458 360.250334"></polyline>
                <polyline id="Fill-71" points="65.9541985 480.166551 32.9776099 423.70576 0 423.70576 0 426.638314 31.2647924 426.638314 62.5285634 480.166551 31.2647924 533.694788 0 533.694788 0 536.627342 32.9776099 536.627342 65.9541985 480.166551"></polyline>
                <polyline id="Fill-73" points="238.08441 422.713614 270.807882 479.666898 270.811936 479.663829 238.08441 422.706454 172.630371 422.706454 139.902845 479.663829 139.903859 479.666898 172.630371 422.713614 238.08441 422.713614"></polyline>
                <polyline id="Fill-74" points="236.585704 533.629424 267.814018 479.669965 267.811978 479.666898 236.585704 533.623291 174.128057 533.623291 142.902804 479.666898 142.900763 479.669965 174.128057 533.629424 236.585704 533.629424"></polyline>
                <path d="M71.4026916,486.59665 L133.457073,486.59665 L164.483757,540.12542 L133.457073,593.652163 L71.4026916,593.652163 L40.3760075,540.12542 L71.4026916,486.59665 Z M135.155888,596.585704 L167.883414,540.12542 L135.155888,483.664122 L69.7018495,483.664122 L36.9743234,540.12542 L69.7018495,596.585704 L135.155888,596.585704 Z" id="Fill-75"></path>
                <polyline id="Fill-77" points="65.9541985 600.082768 32.9776099 543.622484 0 543.622484 0 546.555012 31.2647924 546.555012 62.5285634 600.082768 31.2647924 653.610525 0 653.610525 0 656.544067 32.9776099 656.544067 65.9541985 600.082768"></polyline>
                <polyline id="Fill-79" points="238.08441 542.630339 270.807882 599.583622 270.811936 599.580554 238.08441 542.623178 172.630371 542.623178 139.902845 599.580554 139.903859 599.583622 172.630371 542.630339 238.08441 542.630339"></polyline>
                <polyline id="Fill-80" points="236.585704 653.546149 267.814018 599.586689 267.811978 599.583622 236.585704 653.540015 174.128057 653.540015 142.902804 599.583622 142.900763 599.586689 174.128057 653.546149 236.585704 653.546149"></polyline>
                <path d="M71.4026916,366.679952 L133.457073,366.679952 L164.483757,420.208189 L133.457073,473.736426 L71.4026916,473.736426 L40.3760075,420.208189 L71.4026916,366.679952 Z M135.155888,476.66898 L167.883414,420.208189 L135.155888,363.747398 L69.7018495,363.747398 L36.9743234,420.208189 L69.7018495,476.66898 L135.155888,476.66898 Z" id="Fill-81"></path>
                <path d="M143.305543,480.163509 L174.329186,426.638314 L236.383568,426.638314 L267.408225,480.163509 L267.410252,480.166551 L236.383568,533.694788 L174.329186,533.694788 L143.303516,480.166551 L143.305543,480.163509 Z M172.630371,536.627342 L238.08441,536.627342 L270.811936,480.166551 L270.807882,480.163509 L238.08441,423.70576 L172.630371,423.70576 L139.903859,480.163509 L139.902845,480.166551 L172.630371,536.627342 Z" id="Fill-82"></path>
                <path d="M277.257708,486.59665 L339.31209,486.59665 L370.338774,540.12542 L339.31209,593.652163 L277.257708,593.652163 L246.231024,540.12542 L277.257708,486.59665 Z M275.558893,596.585704 L341.012932,596.585704 L373.740458,540.12542 L341.012932,483.664122 L275.558893,483.664122 L242.831367,540.12542 L275.558893,596.585704 Z" id="Fill-83"></path>
                <path d="M143.305543,600.079726 L174.329186,546.555012 L236.383568,546.555012 L267.408225,600.079726 L267.410252,600.082768 L236.383568,653.610525 L174.329186,653.610525 L143.303516,600.082768 L143.305543,600.079726 Z M172.630371,656.544067 L238.08441,656.544067 L270.811936,600.082768 L270.807882,600.079726 L238.08441,543.622484 L172.630371,543.622484 L139.903859,600.079726 L139.902845,600.082768 L172.630371,656.544067 Z" id="Fill-84"></path>
                <path d="M277.257708,366.679952 L339.31209,366.679952 L370.338774,420.208189 L339.31209,473.736426 L277.257708,473.736426 L246.231024,420.208189 L277.257708,366.679952 Z M275.558893,476.66898 L341.012932,476.66898 L373.740458,420.208189 L341.012932,363.747398 L275.558893,363.747398 L242.831367,420.208189 L275.558893,476.66898 Z" id="Fill-85"></path>
                <path d="M442.243119,533.694788 L380.186763,533.694788 L349.159599,480.166551 L380.186763,426.638314 L442.243119,426.638314 L473.26927,480.166551 L442.243119,533.694788 Z M378.485895,423.70576 L345.759889,480.166551 L378.485895,536.627342 L443.942974,536.627342 L476.66898,480.166551 L443.942974,423.70576 L378.485895,423.70576 Z" id="Fill-86"></path>
                <path d="M545.170894,593.652163 L483.115018,593.652163 L452.088094,540.12542 L483.115018,486.59665 L545.170894,486.59665 L576.197818,540.12542 L545.170894,593.652163 Z M481.415177,483.664122 L448.688411,540.12542 L481.415177,596.585704 L546.871749,596.585704 L579.597502,540.12542 L546.871749,483.664122 L481.415177,483.664122 Z" id="Fill-87"></path>
                <path d="M380.186763,546.555012 L442.243119,546.555012 L473.26927,600.082768 L442.243119,653.610525 L380.186763,653.610525 L349.159599,600.082768 L380.186763,546.555012 Z M378.485895,656.544067 L443.942974,656.544067 L476.66898,600.082768 L443.942974,543.622484 L378.485895,543.622484 L345.759889,600.082768 L378.485895,656.544067 Z" id="Fill-88"></path>
                <path d="M545.170894,473.736426 L483.115018,473.736426 L452.088094,420.208189 L483.115018,366.679952 L545.170894,366.679952 L576.197818,420.208189 L545.170894,473.736426 Z M481.415177,363.747398 L448.688411,420.208189 L481.415177,476.66898 L546.871749,476.66898 L579.597502,420.208189 L546.871749,363.747398 L481.415177,363.747398 Z" id="Fill-89"></path>
                <path d="M648.099683,533.694788 L586.044287,533.694788 L555.017603,480.166551 L586.044287,426.638314 L648.099683,426.638314 L679.126367,480.166551 L648.099683,533.694788 Z M584.343445,423.70576 L551.616933,480.166551 L584.343445,536.627342 L649.798497,536.627342 L682.526024,480.166551 L649.798497,423.70576 L584.343445,423.70576 Z" id="Fill-90"></path>
                <path d="M751.028952,593.652163 L688.973076,593.652163 L657.946151,540.12542 L688.973076,486.59665 L751.028952,486.59665 L782.054862,540.12542 L751.028952,593.652163 Z M687.273234,483.664122 L654.545455,540.12542 L687.273234,596.585704 L752.726766,596.585704 L785.454545,540.12542 L752.726766,483.664122 L687.273234,483.664122 Z" id="Fill-91"></path>
                <path d="M648.099683,653.610525 L586.044287,653.610525 L555.017603,600.082768 L586.044287,546.555012 L648.099683,546.555012 L679.126367,600.082768 L648.099683,653.610525 Z M584.343445,543.622484 L551.616933,600.082768 L584.343445,656.544067 L649.798497,656.544067 L682.526024,600.082768 L649.798497,543.622484 L584.343445,543.622484 Z" id="Fill-92"></path>
                <path d="M751.028952,473.736426 L688.973076,473.736426 L657.946151,420.208189 L688.973076,366.679952 L751.028952,366.679952 L782.054862,420.208189 L751.028952,473.736426 Z M687.273234,363.747398 L654.545455,420.208189 L687.273234,476.66898 L752.726766,476.66898 L785.454545,420.208189 L752.726766,363.747398 L687.273234,363.747398 Z" id="Fill-93"></path>
                <path d="M853.954966,533.694788 L791.902078,533.694788 L760.875634,480.166551 L791.902078,426.638314 L853.954966,426.638314 L884.980396,480.166551 L853.954966,533.694788 Z M790.201249,423.70576 L757.473976,480.166551 L790.201249,536.627342 L855.655795,536.627342 L888.383067,480.166551 L855.655795,423.70576 L790.201249,423.70576 Z" id="Fill-94"></path>
                <path d="M956.883221,593.652163 L894.829853,593.652163 L863.803169,540.12542 L894.829853,486.59665 L956.883221,486.59665 L987.910919,540.12542 L956.883221,593.652163 Z M958.584063,483.664122 L893.130024,483.664122 L860.402498,540.12542 L893.130024,596.585704 L958.584063,596.585704 L991.311589,540.12542 L958.584063,483.664122 Z" id="Fill-95"></path>
                <path d="M853.954966,653.610525 L791.902078,653.610525 L760.875634,600.082768 L791.902078,546.555012 L853.954966,546.555012 L884.980396,600.082768 L853.954966,653.610525 Z M790.201249,543.622484 L757.473976,600.082768 L790.201249,656.544067 L855.655795,656.544067 L888.383067,600.082768 L855.655795,543.622484 L790.201249,543.622484 Z" id="Fill-96"></path>
                <path d="M956.883221,473.736426 L894.829853,473.736426 L863.803169,420.208189 L894.829853,366.679952 L956.883221,366.679952 L987.910919,420.208189 L956.883221,473.736426 Z M893.130024,363.747398 L860.402498,420.208189 L893.130024,476.66898 L958.584063,476.66898 L991.311589,420.208189 L958.584063,363.747398 L893.130024,363.747398 Z" id="Fill-97"></path>
                <path d="M1059.80769,533.694788 L997.757361,533.694788 L966.729663,480.166551 L997.757361,426.638314 L1059.80769,426.638314 L1090.83437,480.166551 L1059.80769,533.694788 Z M1061.51056,423.70576 L996.057533,423.70576 L963.33102,480.166551 L996.057533,536.627342 L1061.51056,536.627342 L1094.24011,480.166551 L1061.51056,423.70576 Z" id="Fill-98"></path>
                <path d="M1162.74608,593.652163 L1100.69223,593.652163 L1069.66531,540.12542 L1100.69223,486.59665 L1162.74608,486.59665 L1193.773,540.12542 L1162.74608,593.652163 Z M1164.44896,483.664122 L1098.98935,483.664122 L1066.25954,540.12542 L1098.98935,596.585704 L1164.44896,596.585704 L1197.16863,540.12542 L1164.44896,483.664122 Z" id="Fill-99"></path>
                <path d="M1059.80769,653.610525 L997.757361,653.610525 L966.729663,600.082768 L997.757361,546.555012 L1059.80769,546.555012 L1090.83437,600.082768 L1059.80769,653.610525 Z M1061.51056,543.622484 L996.057533,543.622484 L963.33102,600.082768 L996.057533,656.544067 L1061.51056,656.544067 L1094.24011,600.082768 L1061.51056,543.622484 Z" id="Fill-100"></path>
                <path d="M1162.74608,473.736426 L1100.69223,473.736426 L1069.66531,420.208189 L1100.69223,366.679952 L1162.74608,366.679952 L1193.773,420.208189 L1162.74608,473.736426 Z M1164.44896,363.747398 L1098.98935,363.747398 L1066.25954,420.208189 L1098.98935,476.66898 L1164.44896,476.66898 L1197.16863,420.208189 L1164.44896,363.747398 Z" id="Fill-101"></path>
                <path d="M1265.6746,533.694788 L1203.62075,533.694788 L1172.59383,480.166551 L1203.62075,426.638314 L1265.6746,426.638314 L1296.70153,480.166551 L1265.6746,533.694788 Z M1267.36735,423.70576 L1201.91787,423.70576 L1169.18806,480.166551 L1201.91787,536.627342 L1267.36735,536.627342 L1300.09715,480.166551 L1267.36735,423.70576 Z" id="Fill-102"></path>
                <path d="M1368.59299,593.652163 L1306.53914,593.652163 L1275.51221,540.12542 L1306.53914,486.59665 L1368.59299,486.59665 L1399.61991,540.12542 L1368.59299,593.652163 Z M1304.83626,483.664122 L1272.11659,540.12542 L1304.83626,596.585704 L1370.29587,596.585704 L1403.02568,540.12542 L1370.29587,483.664122 L1304.83626,483.664122 Z" id="Fill-103"></path>
                <path d="M1265.6746,653.610525 L1203.62075,653.610525 L1172.59383,600.082768 L1203.62075,546.555012 L1265.6746,546.555012 L1296.70153,600.082768 L1265.6746,653.610525 Z M1267.36735,543.622484 L1201.91787,543.622484 L1169.18806,600.082768 L1201.91787,656.544067 L1267.36735,656.544067 L1300.09715,600.082768 L1267.36735,543.622484 Z" id="Fill-104"></path>
                <path d="M1368.59299,473.736426 L1306.53914,473.736426 L1275.51221,420.208189 L1306.53914,366.679952 L1368.59299,366.679952 L1399.61991,420.208189 L1368.59299,473.736426 Z M1304.83626,363.747398 L1272.11659,420.208189 L1304.83626,476.66898 L1370.29587,476.66898 L1403.02568,420.208189 L1370.29587,363.747398 L1304.83626,363.747398 Z" id="Fill-105"></path>
                <polyline id="Fill-106" points="1374.0458 480.166551 1407.02801 536.627342 1440 536.627342 1440 533.694788 1408.73381 533.694788 1377.46762 480.166551 1408.73381 426.638314 1440 426.638314 1440 423.70576 1407.02801 423.70576 1374.0458 480.166551"></polyline>
                <polyline id="Fill-107" points="1374.0458 600.082768 1407.02801 656.544067 1440 656.544067 1440 653.610525 1408.73381 653.610525 1377.46762 600.082768 1408.73381 546.555012 1440 546.555012 1440 543.622484 1407.02801 543.622484 1374.0458 600.082768"></polyline>
                <polyline id="Fill-109" points="65.9541985 720.000507 32.9776099 663.539209 0 663.539209 0 666.471737 31.2647924 666.471737 62.5285634 720.000507 31.2647924 773.527249 0 773.527249 0 776.460791 32.9776099 776.460791 65.9541985 720.000507"></polyline>
                <polyline id="Fill-111" points="236.585704 773.462873 267.814018 719.504436 267.811978 719.500347 236.585704 773.45674 174.128057 773.45674 142.902804 719.500347 142.900763 719.504436 174.128057 773.462873 236.585704 773.462873"></polyline>
                <polyline id="Fill-112" points="238.08441 663.545347 270.807882 720.499653 270.811936 720.496584 238.08441 663.539209 172.630371 663.539209 139.902845 720.496584 139.903859 720.499653 172.630371 663.545347 238.08441 663.545347"></polyline>
                <path d="M71.4026916,726.431113 L133.457073,726.431113 L164.483757,779.958869 L133.457073,833.486626 L71.4026916,833.486626 L40.3760075,779.958869 L71.4026916,726.431113 Z M135.155888,836.419153 L167.883414,779.958869 L135.155888,723.497571 L69.7018495,723.497571 L36.9743234,779.958869 L69.7018495,836.419153 L135.155888,836.419153 Z" id="Fill-113"></path>
                <polyline id="Fill-115" points="65.9541985 839.916217 32.9776099 783.455933 0 783.455933 0 786.388461 31.2647924 786.388461 62.5285634 839.916217 31.2647924 893.444988 0 893.444988 0 896.377516 32.9776099 896.377516 65.9541985 839.916217"></polyline>
                <polyline id="Fill-117" points="238.08441 783.462071 270.807882 840.416378 270.811936 840.413309 238.08441 783.455933 172.630371 783.455933 139.902845 840.413309 139.903859 840.416378 172.630371 783.462071 238.08441 783.462071"></polyline>
                <polyline id="Fill-118" points="236.585704 893.379598 267.814018 839.419116 267.811978 839.417071 236.585704 893.372442 174.128057 893.372442 142.902804 839.417071 142.900763 839.419116 174.128057 893.379598 236.585704 893.379598"></polyline>
                <path d="M71.4026916,606.513374 L133.457073,606.513374 L164.483757,660.041131 L133.457073,713.569901 L71.4026916,713.569901 L40.3760075,660.041131 L71.4026916,606.513374 Z M135.155888,716.502429 L167.883414,660.041131 L135.155888,603.580847 L69.7018495,603.580847 L36.9743234,660.041131 L69.7018495,716.502429 L135.155888,716.502429 Z" id="Fill-119"></path>
                <path d="M143.305543,719.996451 L174.329186,666.471737 L236.383568,666.471737 L267.408225,719.996451 L267.410252,720.000507 L236.383568,773.527249 L174.329186,773.527249 L143.303516,720.000507 L143.305543,719.996451 Z M172.630371,776.460791 L238.08441,776.460791 L270.811936,720.000507 L270.807882,719.996451 L238.08441,663.539209 L172.630371,663.539209 L139.903859,719.996451 L139.902845,720.000507 L172.630371,776.460791 Z" id="Fill-120"></path>
                <path d="M277.257708,726.431113 L339.31209,726.431113 L370.338774,779.958869 L339.31209,833.486626 L277.257708,833.486626 L246.231024,779.958869 L277.257708,726.431113 Z M275.558893,836.419153 L341.012932,836.419153 L373.740458,779.958869 L341.012932,723.497571 L275.558893,723.497571 L242.831367,779.958869 L275.558893,836.419153 Z" id="Fill-121"></path>
                <path d="M143.305543,839.914189 L174.329186,786.388461 L236.383568,786.388461 L267.408225,839.914189 L267.410252,839.916217 L236.383568,893.444988 L174.329186,893.444988 L143.303516,839.916217 L143.305543,839.914189 Z M172.630371,896.377516 L238.08441,896.377516 L270.811936,839.916217 L270.807882,839.914189 L238.08441,783.455933 L172.630371,783.455933 L139.903859,839.914189 L139.902845,839.916217 L172.630371,896.377516 Z" id="Fill-122"></path>
                <path d="M277.257708,606.513374 L339.31209,606.513374 L370.338774,660.041131 L339.31209,713.569901 L277.257708,713.569901 L246.231024,660.041131 L277.257708,606.513374 Z M275.558893,716.502429 L341.012932,716.502429 L373.740458,660.041131 L341.012932,603.580847 L275.558893,603.580847 L242.831367,660.041131 L275.558893,716.502429 Z" id="Fill-123"></path>
                <path d="M380.186763,666.471737 L442.243119,666.471737 L473.26927,720.000507 L442.243119,773.527249 L380.186763,773.527249 L349.159599,720.000507 L380.186763,666.471737 Z M378.485895,776.460791 L443.942974,776.460791 L476.66898,720.000507 L443.942974,663.539209 L378.485895,663.539209 L345.759889,720.000507 L378.485895,776.460791 Z" id="Fill-124"></path>
                <path d="M483.115018,726.431113 L545.170894,726.431113 L576.197818,779.958869 L545.170894,833.486626 L483.115018,833.486626 L452.088094,779.958869 L483.115018,726.431113 Z M481.415177,836.419153 L546.871749,836.419153 L579.597502,779.958869 L546.871749,723.497571 L481.415177,723.497571 L448.688411,779.958869 L481.415177,836.419153 Z" id="Fill-125"></path>
                <path d="M380.186763,786.388461 L442.243119,786.388461 L473.26927,839.916217 L442.243119,893.444988 L380.186763,893.444988 L349.159599,839.916217 L380.186763,786.388461 Z M378.485895,896.377516 L443.942974,896.377516 L476.66898,839.916217 L443.942974,783.455933 L378.485895,783.455933 L345.759889,839.916217 L378.485895,896.377516 Z" id="Fill-126"></path>
                <path d="M483.115018,606.513374 L545.170894,606.513374 L576.197818,660.041131 L545.170894,713.569901 L483.115018,713.569901 L452.088094,660.041131 L483.115018,606.513374 Z M481.415177,716.502429 L546.871749,716.502429 L579.597502,660.041131 L546.871749,603.580847 L481.415177,603.580847 L448.688411,660.041131 L481.415177,716.502429 Z" id="Fill-127"></path>
                <path d="M648.099683,773.527249 L586.044287,773.527249 L555.017603,720.000507 L586.044287,666.471737 L648.099683,666.471737 L679.126367,720.000507 L648.099683,773.527249 Z M584.343445,663.539209 L551.616933,720.000507 L584.343445,776.460791 L649.798497,776.460791 L682.526024,720.000507 L649.798497,663.539209 L584.343445,663.539209 Z" id="Fill-128"></path>
                <path d="M688.973076,726.431113 L751.028952,726.431113 L782.054862,779.958869 L751.028952,833.486626 L688.973076,833.486626 L657.946151,779.958869 L688.973076,726.431113 Z M752.726766,836.419153 L785.454545,779.958869 L752.726766,723.497571 L687.273234,723.497571 L654.545455,779.958869 L687.273234,836.419153 L752.726766,836.419153 Z" id="Fill-129"></path>
                <path d="M586.044287,786.388461 L648.099683,786.388461 L679.126367,839.916217 L648.099683,893.444988 L586.044287,893.444988 L555.017603,839.916217 L586.044287,786.388461 Z M649.798497,896.377516 L682.526024,839.916217 L649.798497,783.455933 L584.343445,783.455933 L551.616933,839.916217 L584.343445,896.377516 L649.798497,896.377516 Z" id="Fill-130"></path>
                <path d="M688.973076,606.513374 L751.028952,606.513374 L782.054862,660.041131 L751.028952,713.569901 L688.973076,713.569901 L657.946151,660.041131 L688.973076,606.513374 Z M752.726766,716.502429 L785.454545,660.041131 L752.726766,603.580847 L687.273234,603.580847 L654.545455,660.041131 L687.273234,716.502429 L752.726766,716.502429 Z" id="Fill-131"></path>
                <path d="M791.902078,666.471737 L853.954966,666.471737 L884.980396,720.000507 L853.954966,773.527249 L791.902078,773.527249 L760.875634,720.000507 L791.902078,666.471737 Z M855.655795,776.460791 L888.383067,720.000507 L855.655795,663.539209 L790.201249,663.539209 L757.473976,720.000507 L790.201249,776.460791 L855.655795,776.460791 Z" id="Fill-132"></path>
                <path d="M894.829853,726.431113 L956.883221,726.431113 L987.910919,779.958869 L956.883221,833.486626 L894.829853,833.486626 L863.803169,779.958869 L894.829853,726.431113 Z M958.584063,836.419153 L991.311589,779.958869 L958.584063,723.497571 L893.130024,723.497571 L860.402498,779.958869 L893.130024,836.419153 L958.584063,836.419153 Z" id="Fill-133"></path>
                <path d="M791.902078,786.388461 L853.954966,786.388461 L884.980396,839.916217 L853.954966,893.444988 L791.902078,893.444988 L760.875634,839.916217 L791.902078,786.388461 Z M855.655795,896.377516 L888.383067,839.916217 L855.655795,783.455933 L790.201249,783.455933 L757.473976,839.916217 L790.201249,896.377516 L855.655795,896.377516 Z" id="Fill-134"></path>
                <path d="M956.883221,713.569901 L894.829853,713.569901 L863.803169,660.041131 L894.829853,606.513374 L956.883221,606.513374 L987.910919,660.041131 L956.883221,713.569901 Z M958.584063,603.580847 L893.130024,603.580847 L860.402498,660.041131 L893.130024,716.502429 L958.584063,716.502429 L991.311589,660.041131 L958.584063,603.580847 Z" id="Fill-135"></path>
                <path d="M1059.80769,773.527249 L997.757361,773.527249 L966.729663,720.000507 L997.757361,666.471737 L1059.80769,666.471737 L1090.83437,720.000507 L1059.80769,773.527249 Z M1061.51056,663.539209 L996.057533,663.539209 L963.33102,720.000507 L996.057533,776.460791 L1061.51056,776.460791 L1094.24011,720.000507 L1061.51056,663.539209 Z" id="Fill-136"></path>
                <path d="M1162.74608,833.486626 L1100.69223,833.486626 L1069.66531,779.958869 L1100.69223,726.431113 L1162.74608,726.431113 L1193.773,779.958869 L1162.74608,833.486626 Z M1164.44896,723.497571 L1098.98935,723.497571 L1066.25954,779.958869 L1098.98935,836.419153 L1164.44896,836.419153 L1197.16863,779.958869 L1164.44896,723.497571 Z" id="Fill-137"></path>
                <path d="M997.757361,786.388461 L1059.80769,786.388461 L1090.83437,839.916217 L1059.80769,893.444988 L997.757361,893.444988 L966.729663,839.916217 L997.757361,786.388461 Z M1061.51056,896.377516 L1094.24011,839.916217 L1061.51056,783.455933 L996.057533,783.455933 L963.33102,839.916217 L996.057533,896.377516 L1061.51056,896.377516 Z" id="Fill-138"></path>
                <path d="M1162.74608,713.569901 L1100.69223,713.569901 L1069.66531,660.041131 L1100.69223,606.513374 L1162.74608,606.513374 L1193.773,660.041131 L1162.74608,713.569901 Z M1164.44896,603.580847 L1098.98935,603.580847 L1066.25954,660.041131 L1098.98935,716.502429 L1164.44896,716.502429 L1197.16863,660.041131 L1164.44896,603.580847 Z" id="Fill-139"></path>
                <path d="M1265.6746,773.527249 L1203.62075,773.527249 L1172.59383,720.000507 L1203.62075,666.471737 L1265.6746,666.471737 L1296.70153,720.000507 L1265.6746,773.527249 Z M1267.36735,663.539209 L1201.91787,663.539209 L1169.18806,720.000507 L1201.91787,776.460791 L1267.36735,776.460791 L1300.09715,720.000507 L1267.36735,663.539209 Z" id="Fill-140"></path>
                <path d="M1368.59299,833.486626 L1306.53914,833.486626 L1275.51221,779.958869 L1306.53914,726.431113 L1368.59299,726.431113 L1399.61991,779.958869 L1368.59299,833.486626 Z M1304.83626,723.497571 L1272.11659,779.958869 L1304.83626,836.419153 L1370.29587,836.419153 L1403.02568,779.958869 L1370.29587,723.497571 L1304.83626,723.497571 Z" id="Fill-141"></path>
                <path d="M1265.6746,893.444988 L1203.62075,893.444988 L1172.59383,839.916217 L1203.62075,786.388461 L1265.6746,786.388461 L1296.70153,839.916217 L1265.6746,893.444988 Z M1267.36735,783.455933 L1201.91787,783.455933 L1169.18806,839.916217 L1201.91787,896.377516 L1267.36735,896.377516 L1300.09715,839.916217 L1267.36735,783.455933 Z" id="Fill-142"></path>
                <path d="M1368.59299,713.569901 L1306.53914,713.569901 L1275.51221,660.041131 L1306.53914,606.513374 L1368.59299,606.513374 L1399.61991,660.041131 L1368.59299,713.569901 Z M1304.83626,603.580847 L1272.11659,660.041131 L1304.83626,716.502429 L1370.29587,716.502429 L1403.02568,660.041131 L1370.29587,603.580847 L1304.83626,603.580847 Z" id="Fill-143"></path>
                <polyline id="Fill-144" points="1374.0458 720.000507 1407.02801 776.460791 1440 776.460791 1440 773.527249 1408.73381 773.527249 1377.46762 720.000507 1408.73381 666.471737 1440 666.471737 1440 663.539209 1407.02801 663.539209 1374.0458 720.000507"></polyline>
                <polyline id="Fill-145" points="1374.0458 839.916217 1407.02801 896.377516 1440 896.377516 1440 893.444988 1408.73381 893.444988 1377.46762 839.916217 1408.73381 786.388461 1440 786.388461 1440 783.455933 1407.02801 783.455933 1374.0458 839.916217"></polyline>
                <polyline id="Fill-147" points="65.9541985 959.83497 32.9776099 903.372658 0 903.372658 0 906.306252 31.2647924 906.306252 62.5285634 959.83497 31.2647924 1013.36369 0 1013.36369 0 1016.29424 32.9776099 1016.29424 65.9541985 959.83497"></polyline>
                <polyline id="Fill-149" points="238.08441 903.379818 270.807882 960.333102 270.811936 960.330033 238.08441 903.372658 172.630371 903.372658 139.902845 960.330033 139.903859 960.333102 172.630371 903.379818 238.08441 903.379818"></polyline>
                <polyline id="Fill-150" points="236.585704 1013.29632 267.814018 959.337885 267.811978 959.333796 236.585704 1013.28917 174.128057 1013.28917 142.902804 959.333796 142.900763 959.337885 174.128057 1013.29632 236.585704 1013.29632"></polyline>
                <path d="M71.4026916,966.263495 L133.457073,966.263495 L164.483757,1019.79333 L133.457073,1073.31202 L71.4026916,1073.31202 L40.3760075,1019.79333 L71.4026916,966.263495 Z M135.155888,1076.2526 L167.883414,1019.79333 L135.155888,963.33102 L69.7018495,963.33102 L36.9743234,1019.79333 L69.7018495,1076.2526 L135.155888,1076.2526 Z" id="Fill-151"></path>
                <polyline id="Fill-153" points="65.9541985 1079.75017 32.9776099 1023.28938 0 1023.28938 0 1026.21991 31.2647924 1026.21991 62.5285634 1079.75017 31.2647924 1133.28044 0 1133.28044 0 1136.21096 32.9776099 1136.21096 65.9541985 1079.75017"></polyline>
                <polyline id="Fill-155" points="236.585704 1134.21235 267.814018 1080.24983 267.811978 1080.24983 236.585704 1134.20213 174.128057 1134.20213 142.902804 1080.24983 142.900763 1080.24983 174.128057 1134.21235 236.585704 1134.21235"></polyline>
                <polyline id="Fill-156" points="238.08441 1023.28938 270.807882 1080.24983 270.811936 1080.24983 238.08441 1023.28938 172.630371 1023.28938 139.902845 1080.24983 139.903859 1080.24983 172.630371 1023.28938 238.08441 1023.28938"></polyline>
                <path d="M71.4026916,846.347837 L133.457073,846.347837 L164.483757,899.875594 L133.457073,953.40335 L71.4026916,953.40335 L40.3760075,899.875594 L71.4026916,846.347837 Z M135.155888,956.335878 L167.883414,899.875594 L135.155888,843.414296 L69.7018495,843.414296 L36.9743234,899.875594 L69.7018495,956.335878 L135.155888,956.335878 Z" id="Fill-157"></path>
                <path d="M143.305543,959.830914 L174.329186,906.306252 L236.383568,906.306252 L267.408225,959.830914 L267.410252,959.83497 L236.383568,1013.36369 L174.329186,1013.36369 L143.303516,959.83497 L143.305543,959.830914 Z M172.630371,1016.29424 L238.08441,1016.29424 L270.811936,959.83497 L270.807882,959.830914 L238.08441,903.372658 L172.630371,903.372658 L139.903859,959.830914 L139.902845,959.83497 L172.630371,1016.29424 Z" id="Fill-158"></path>
                <path d="M277.257708,966.263495 L339.31209,966.263495 L370.338774,1019.79333 L339.31209,1073.31202 L277.257708,1073.31202 L246.231024,1019.79333 L277.257708,966.263495 Z M275.558893,1076.2526 L341.012932,1076.2526 L373.740458,1019.79333 L341.012932,963.33102 L275.558893,963.33102 L242.831367,1019.79333 L275.558893,1076.2526 Z" id="Fill-159"></path>
                <path d="M143.305543,1079.75017 L174.329186,1026.21991 L236.383568,1026.21991 L267.408225,1079.75017 L267.410252,1079.75017 L236.383568,1133.28044 L174.329186,1133.28044 L143.303516,1079.75017 L143.305543,1079.75017 Z M172.630371,1136.21096 L238.08441,1136.21096 L270.811936,1079.75017 L270.807882,1079.75017 L238.08441,1023.28938 L172.630371,1023.28938 L139.903859,1079.75017 L139.902845,1079.75017 L172.630371,1136.21096 Z" id="Fill-160"></path>
                <path d="M277.257708,846.347837 L339.31209,846.347837 L370.338774,899.875594 L339.31209,953.40335 L277.257708,953.40335 L246.231024,899.875594 L277.257708,846.347837 Z M275.558893,956.335878 L341.012932,956.335878 L373.740458,899.875594 L341.012932,843.414296 L275.558893,843.414296 L242.831367,899.875594 L275.558893,956.335878 Z" id="Fill-161"></path>
                <path d="M380.186763,906.306252 L442.243119,906.306252 L473.26927,959.83497 L442.243119,1013.36369 L380.186763,1013.36369 L349.159599,959.83497 L380.186763,906.306252 Z M378.485895,1016.29424 L443.942974,1016.29424 L476.66898,959.83497 L443.942974,903.372658 L378.485895,903.372658 L345.759889,959.83497 L378.485895,1016.29424 Z" id="Fill-162"></path>
                <path d="M483.115018,966.263495 L545.170894,966.263495 L576.197818,1019.79333 L545.170894,1073.31202 L483.115018,1073.31202 L452.088094,1019.79333 L483.115018,966.263495 Z M546.871749,1076.2526 L579.597502,1019.79333 L546.871749,963.33102 L481.415177,963.33102 L448.688411,1019.79333 L481.415177,1076.2526 L546.871749,1076.2526 Z" id="Fill-163"></path>
                <path d="M380.186763,1026.21991 L442.243119,1026.21991 L473.26927,1079.75017 L442.243119,1133.28044 L380.186763,1133.28044 L349.159599,1079.75017 L380.186763,1026.21991 Z M443.942974,1136.21096 L476.66898,1079.75017 L443.942974,1023.28938 L378.485895,1023.28938 L345.759889,1079.75017 L378.485895,1136.21096 L443.942974,1136.21096 Z" id="Fill-164"></path>
                <path d="M483.115018,846.347837 L545.170894,846.347837 L576.197818,899.875594 L545.170894,953.40335 L483.115018,953.40335 L452.088094,899.875594 L483.115018,846.347837 Z M481.415177,956.335878 L546.871749,956.335878 L579.597502,899.875594 L546.871749,843.414296 L481.415177,843.414296 L448.688411,899.875594 L481.415177,956.335878 Z" id="Fill-165"></path>
                <path d="M586.044287,906.306252 L648.099683,906.306252 L679.126367,959.83497 L648.099683,1013.36369 L586.044287,1013.36369 L555.017603,959.83497 L586.044287,906.306252 Z M649.798497,1016.29424 L682.526024,959.83497 L649.798497,903.372658 L584.343445,903.372658 L551.616933,959.83497 L584.343445,1016.29424 L649.798497,1016.29424 Z" id="Fill-166"></path>
                <path d="M688.973076,966.263495 L751.028952,966.263495 L782.054862,1019.79333 L751.028952,1073.31202 L688.973076,1073.31202 L657.946151,1019.79333 L688.973076,966.263495 Z M752.726766,1076.2526 L785.454545,1019.79333 L752.726766,963.33102 L687.273234,963.33102 L654.545455,1019.79333 L687.273234,1076.2526 L752.726766,1076.2526 Z" id="Fill-167"></path>
                <path d="M586.044287,1026.21991 L648.099683,1026.21991 L679.126367,1079.75017 L648.099683,1133.28044 L586.044287,1133.28044 L555.017603,1079.75017 L586.044287,1026.21991 Z M649.798497,1136.21096 L682.526024,1079.75017 L649.798497,1023.28938 L584.343445,1023.28938 L551.616933,1079.75017 L584.343445,1136.21096 L649.798497,1136.21096 Z" id="Fill-168"></path>
                <path d="M688.973076,846.347837 L751.028952,846.347837 L782.054862,899.875594 L751.028952,953.40335 L688.973076,953.40335 L657.946151,899.875594 L688.973076,846.347837 Z M752.726766,956.335878 L785.454545,899.875594 L752.726766,843.414296 L687.273234,843.414296 L654.545455,899.875594 L687.273234,956.335878 L752.726766,956.335878 Z" id="Fill-169"></path>
                <path d="M791.902078,906.306252 L853.954966,906.306252 L884.980396,959.83497 L853.954966,1013.36369 L791.902078,1013.36369 L760.875634,959.83497 L791.902078,906.306252 Z M855.655795,1016.29424 L888.383067,959.83497 L855.655795,903.372658 L790.201249,903.372658 L757.473976,959.83497 L790.201249,1016.29424 L855.655795,1016.29424 Z" id="Fill-170"></path>
                <path d="M894.829853,966.263495 L956.883221,966.263495 L987.910919,1019.79333 L956.883221,1073.31202 L894.829853,1073.31202 L863.803169,1019.79333 L894.829853,966.263495 Z M958.584063,1076.2526 L991.311589,1019.79333 L958.584063,963.33102 L893.130024,963.33102 L860.402498,1019.79333 L893.130024,1076.2526 L958.584063,1076.2526 Z" id="Fill-171"></path>
                <path d="M791.902078,1026.21991 L853.954966,1026.21991 L884.980396,1079.75017 L853.954966,1133.28044 L791.902078,1133.28044 L760.875634,1079.75017 L791.902078,1026.21991 Z M855.655795,1136.21096 L888.383067,1079.75017 L855.655795,1023.28938 L790.201249,1023.28938 L757.473976,1079.75017 L790.201249,1136.21096 L855.655795,1136.21096 Z" id="Fill-172"></path>
                <path d="M894.829853,846.347837 L956.883221,846.347837 L987.910919,899.875594 L956.883221,953.40335 L894.829853,953.40335 L863.803169,899.875594 L894.829853,846.347837 Z M958.584063,956.335878 L991.311589,899.875594 L958.584063,843.414296 L893.130024,843.414296 L860.402498,899.875594 L893.130024,956.335878 L958.584063,956.335878 Z" id="Fill-173"></path>
                <path d="M997.757361,906.306252 L1059.80769,906.306252 L1090.83437,959.83497 L1059.80769,1013.36369 L997.757361,1013.36369 L966.729663,959.83497 L997.757361,906.306252 Z M1061.51056,1016.29424 L1094.24011,959.83497 L1061.51056,903.372658 L996.057533,903.372658 L963.33102,959.83497 L996.057533,1016.29424 L1061.51056,1016.29424 Z" id="Fill-174"></path>
                <path d="M1100.69223,966.263495 L1162.74608,966.263495 L1193.773,1019.79333 L1162.74608,1073.31202 L1100.69223,1073.31202 L1069.66531,1019.79333 L1100.69223,966.263495 Z M1164.44896,1076.2526 L1197.16863,1019.79333 L1164.44896,963.33102 L1098.98935,963.33102 L1066.25954,1019.79333 L1098.98935,1076.2526 L1164.44896,1076.2526 Z" id="Fill-175"></path>
                <path d="M997.757361,1026.21991 L1059.80769,1026.21991 L1090.83437,1079.75017 L1059.80769,1133.28044 L997.757361,1133.28044 L966.729663,1079.75017 L997.757361,1026.21991 Z M1061.51056,1136.21096 L1094.24011,1079.75017 L1061.51056,1023.28938 L996.057533,1023.28938 L963.33102,1079.75017 L996.057533,1136.21096 L1061.51056,1136.21096 Z" id="Fill-176"></path>
                <path d="M1162.74608,953.40335 L1100.69223,953.40335 L1069.66531,899.875594 L1100.69223,846.347837 L1162.74608,846.347837 L1193.773,899.875594 L1162.74608,953.40335 Z M1164.44896,843.414296 L1098.98935,843.414296 L1066.25954,899.875594 L1098.98935,956.335878 L1164.44896,956.335878 L1197.16863,899.875594 L1164.44896,843.414296 Z" id="Fill-177"></path>
                <path d="M1265.6746,1013.36369 L1203.62075,1013.36369 L1172.59383,959.83497 L1203.62075,906.306252 L1265.6746,906.306252 L1296.70153,959.83497 L1265.6746,1013.36369 Z M1267.36735,903.372658 L1201.91787,903.372658 L1169.18806,959.83497 L1201.91787,1016.29424 L1267.36735,1016.29424 L1300.09715,959.83497 L1267.36735,903.372658 Z" id="Fill-178"></path>
                <path d="M1368.59299,1073.31202 L1306.53914,1073.31202 L1275.51221,1019.79333 L1306.53914,966.263495 L1368.59299,966.263495 L1399.61991,1019.79333 L1368.59299,1073.31202 Z M1304.83626,963.33102 L1272.11659,1019.79333 L1304.83626,1076.2526 L1370.29587,1076.2526 L1403.02568,1019.79333 L1370.29587,963.33102 L1304.83626,963.33102 Z" id="Fill-179"></path>
                <path d="M1203.62075,1026.21991 L1265.6746,1026.21991 L1296.70153,1079.75017 L1265.6746,1133.28044 L1203.62075,1133.28044 L1172.59383,1079.75017 L1203.62075,1026.21991 Z M1267.36735,1136.21096 L1300.09715,1079.75017 L1267.36735,1023.28938 L1201.91787,1023.28938 L1169.18806,1079.75017 L1201.91787,1136.21096 L1267.36735,1136.21096 Z" id="Fill-180"></path>
                <path d="M1368.59299,953.40335 L1306.53914,953.40335 L1275.51221,899.875594 L1306.53914,846.347837 L1368.59299,846.347837 L1399.61991,899.875594 L1368.59299,953.40335 Z M1304.83626,843.414296 L1272.11659,899.875594 L1304.83626,956.335878 L1370.29587,956.335878 L1403.02568,899.875594 L1370.29587,843.414296 L1304.83626,843.414296 Z" id="Fill-181"></path>
                <polyline id="Fill-182" points="1374.0458 959.83497 1407.02801 1016.29424 1440 1016.29424 1440 1013.36369 1408.73381 1013.36369 1377.46762 959.83497 1408.73381 906.306252 1440 906.306252 1440 903.372658 1407.02801 903.372658 1374.0458 959.83497"></polyline>
                <polyline id="Fill-183" points="1374.0458 1079.75017 1407.02801 1136.21096 1440 1136.21096 1440 1133.28044 1408.73381 1133.28044 1377.46762 1079.75017 1408.73381 1026.21991 1440 1026.21991 1440 1023.28938 1407.02801 1023.28938 1374.0458 1079.75017"></polyline>
                <polyline id="Fill-185" points="65.9541985 1199.6669 32.9776099 1143.20611 0 1143.20611 0 1146.13663 31.2647924 1146.13663 62.5285634 1199.6669 31.2647924 1253.19716 0 1253.19716 0 1256.12769 32.9776099 1256.12769 65.9541985 1199.6669"></polyline>
                <polyline id="Fill-187" points="238.08441 1143.20611 270.807882 1200.16655 270.811936 1200.16655 238.08441 1143.20611 172.630371 1143.20611 139.902845 1200.16655 139.903859 1200.16655 172.630371 1143.20611 238.08441 1143.20611"></polyline>
                <polyline id="Fill-188" points="236.585704 1254.12908 267.814018 1200.16655 267.811978 1200.16655 236.585704 1254.11885 174.128057 1254.11885 142.902804 1200.16655 142.900763 1200.16655 174.128057 1254.12908 236.585704 1254.12908"></polyline>
                <path d="M71.4026916,1206.095 L133.457073,1206.095 L164.483757,1259.62526 L133.457073,1313.15553 L71.4026916,1313.15553 L40.3760075,1259.62526 L71.4026916,1206.095 Z M135.155888,1316.08605 L167.883414,1259.62526 L135.155888,1203.16447 L69.7018495,1203.16447 L36.9743234,1259.62526 L69.7018495,1316.08605 L135.155888,1316.08605 Z" id="Fill-189"></path>
                <polyline id="Fill-191" points="65.9541985 1319.58362 32.9776099 1263.12283 0 1263.12283 0 1266.05336 31.2647924 1266.05336 62.5285634 1319.58362 31.2647924 1373.11389 0 1373.11389 0 1376.04441 32.9776099 1376.04441 65.9541985 1319.58362"></polyline>
                <polyline id="Fill-193" points="238.08441 1263.12283 270.807882 1320.08328 270.811936 1320.08328 238.08441 1263.12283 172.630371 1263.12283 139.902845 1320.08328 139.903859 1320.08328 172.630371 1263.12283 238.08441 1263.12283"></polyline>
                <polyline id="Fill-194" points="236.585704 1374.0458 267.814018 1320.08328 267.811978 1320.08328 236.585704 1374.03558 174.128057 1374.03558 142.902804 1320.08328 142.900763 1320.08328 174.128057 1374.0458 236.585704 1374.0458"></polyline>
                <path d="M71.4026916,1086.17827 L133.457073,1086.17827 L164.483757,1139.70854 L133.457073,1193.22866 L71.4026916,1193.22866 L40.3760075,1139.70854 L71.4026916,1086.17827 Z M135.155888,1196.16933 L167.883414,1139.70854 L135.155888,1083.24774 L69.7018495,1083.24774 L36.9743234,1139.70854 L69.7018495,1196.16933 L135.155888,1196.16933 Z" id="Fill-195"></path>
                <path d="M143.305543,1199.6669 L174.329186,1146.13663 L236.383568,1146.13663 L267.408225,1199.6669 L267.410252,1199.6669 L236.383568,1253.19716 L174.329186,1253.19716 L143.303516,1199.6669 L143.305543,1199.6669 Z M172.630371,1256.12769 L238.08441,1256.12769 L270.811936,1199.6669 L270.807882,1199.6669 L238.08441,1143.20611 L172.630371,1143.20611 L139.903859,1199.6669 L139.902845,1199.6669 L172.630371,1256.12769 Z" id="Fill-196"></path>
                <path d="M277.257708,1206.095 L339.31209,1206.095 L370.338774,1259.62526 L339.31209,1313.15553 L277.257708,1313.15553 L246.231024,1259.62526 L277.257708,1206.095 Z M341.012932,1316.08605 L373.740458,1259.62526 L341.012932,1203.16447 L275.558893,1203.16447 L242.831367,1259.62526 L275.558893,1316.08605 L341.012932,1316.08605 Z" id="Fill-197"></path>
                <path d="M143.305543,1319.58362 L174.329186,1266.05336 L236.383568,1266.05336 L267.408225,1319.58362 L267.410252,1319.58362 L236.383568,1373.11389 L174.329186,1373.11389 L143.303516,1319.58362 L143.305543,1319.58362 Z M270.807882,1319.58362 L238.08441,1263.12283 L172.630371,1263.12283 L139.903859,1319.58362 L139.902845,1319.58362 L172.630371,1376.04441 L238.08441,1376.04441 L270.811936,1319.58362 L270.807882,1319.58362 Z" id="Fill-198"></path>
                <path d="M277.257708,1086.17827 L339.31209,1086.17827 L370.338774,1139.70854 L339.31209,1193.22866 L277.257708,1193.22866 L246.231024,1139.70854 L277.257708,1086.17827 Z M275.558893,1196.16933 L341.012932,1196.16933 L373.740458,1139.70854 L341.012932,1083.24774 L275.558893,1083.24774 L242.831367,1139.70854 L275.558893,1196.16933 Z" id="Fill-199"></path>
                <path d="M380.186763,1146.13663 L442.243119,1146.13663 L473.26927,1199.6669 L442.243119,1253.19716 L380.186763,1253.19716 L349.159599,1199.6669 L380.186763,1146.13663 Z M443.942974,1256.12769 L476.66898,1199.6669 L443.942974,1143.20611 L378.485895,1143.20611 L345.759889,1199.6669 L378.485895,1256.12769 L443.942974,1256.12769 Z" id="Fill-200"></path>
                <path d="M483.115018,1206.095 L545.170894,1206.095 L576.197818,1259.62526 L545.170894,1313.15553 L483.115018,1313.15553 L452.088094,1259.62526 L483.115018,1206.095 Z M546.871749,1316.08605 L579.597502,1259.62526 L546.871749,1203.16447 L481.415177,1203.16447 L448.688411,1259.62526 L481.415177,1316.08605 L546.871749,1316.08605 Z" id="Fill-201"></path>
                <path d="M442.243119,1373.11389 L380.186763,1373.11389 L349.159599,1319.58362 L380.186763,1266.05336 L442.243119,1266.05336 L473.26927,1319.58362 L442.243119,1373.11389 Z M443.942974,1263.12283 L378.485895,1263.12283 L345.759889,1319.58362 L378.485895,1376.04441 L443.942974,1376.04441 L476.66898,1319.58362 L443.942974,1263.12283 Z" id="Fill-202"></path>
                <path d="M483.115018,1086.17827 L545.170894,1086.17827 L576.197818,1139.70854 L545.170894,1193.22866 L483.115018,1193.22866 L452.088094,1139.70854 L483.115018,1086.17827 Z M546.871749,1196.16933 L579.597502,1139.70854 L546.871749,1083.24774 L481.415177,1083.24774 L448.688411,1139.70854 L481.415177,1196.16933 L546.871749,1196.16933 Z" id="Fill-203"></path>
                <path d="M586.044287,1146.13663 L648.099683,1146.13663 L679.126367,1199.6669 L648.099683,1253.19716 L586.044287,1253.19716 L555.017603,1199.6669 L586.044287,1146.13663 Z M649.798497,1256.12769 L682.526024,1199.6669 L649.798497,1143.20611 L584.343445,1143.20611 L551.616933,1199.6669 L584.343445,1256.12769 L649.798497,1256.12769 Z" id="Fill-204"></path>
                <path d="M688.973076,1206.095 L751.028952,1206.095 L782.054862,1259.62526 L751.028952,1313.15553 L688.973076,1313.15553 L657.946151,1259.62526 L688.973076,1206.095 Z M752.726766,1316.08605 L785.454545,1259.62526 L752.726766,1203.16447 L687.273234,1203.16447 L654.545455,1259.62526 L687.273234,1316.08605 L752.726766,1316.08605 Z" id="Fill-205"></path>
                <path d="M648.099683,1373.11389 L586.044287,1373.11389 L555.017603,1319.58362 L586.044287,1266.05336 L648.099683,1266.05336 L679.126367,1319.58362 L648.099683,1373.11389 Z M649.798497,1263.12283 L584.343445,1263.12283 L551.616933,1319.58362 L584.343445,1376.04441 L649.798497,1376.04441 L682.526024,1319.58362 L649.798497,1263.12283 Z" id="Fill-206"></path>
                <path d="M688.973076,1086.17827 L751.028952,1086.17827 L782.054862,1139.70854 L751.028952,1193.22866 L688.973076,1193.22866 L657.946151,1139.70854 L688.973076,1086.17827 Z M752.726766,1196.16933 L785.454545,1139.70854 L752.726766,1083.24774 L687.273234,1083.24774 L654.545455,1139.70854 L687.273234,1196.16933 L752.726766,1196.16933 Z" id="Fill-207"></path>
                <path d="M791.902078,1146.13663 L853.954966,1146.13663 L884.980396,1199.6669 L853.954966,1253.19716 L791.902078,1253.19716 L760.875634,1199.6669 L791.902078,1146.13663 Z M855.655795,1256.12769 L888.383067,1199.6669 L855.655795,1143.20611 L790.201249,1143.20611 L757.473976,1199.6669 L790.201249,1256.12769 L855.655795,1256.12769 Z" id="Fill-208"></path>
                <path d="M894.829853,1206.095 L956.883221,1206.095 L987.910919,1259.62526 L956.883221,1313.15553 L894.829853,1313.15553 L863.803169,1259.62526 L894.829853,1206.095 Z M958.584063,1316.08605 L991.311589,1259.62526 L958.584063,1203.16447 L893.130024,1203.16447 L860.402498,1259.62526 L893.130024,1316.08605 L958.584063,1316.08605 Z" id="Fill-209"></path>
                <path d="M853.954966,1373.11389 L791.902078,1373.11389 L760.875634,1319.58362 L791.902078,1266.05336 L853.954966,1266.05336 L884.980396,1319.58362 L853.954966,1373.11389 Z M855.655795,1263.12283 L790.201249,1263.12283 L757.473976,1319.58362 L790.201249,1376.04441 L855.655795,1376.04441 L888.383067,1319.58362 L855.655795,1263.12283 Z" id="Fill-210"></path>
                <path d="M894.829853,1086.17827 L956.883221,1086.17827 L987.910919,1139.70854 L956.883221,1193.22866 L894.829853,1193.22866 L863.803169,1139.70854 L894.829853,1086.17827 Z M958.584063,1196.16933 L991.311589,1139.70854 L958.584063,1083.24774 L893.130024,1083.24774 L860.402498,1139.70854 L893.130024,1196.16933 L958.584063,1196.16933 Z" id="Fill-211"></path>
                <path d="M997.757361,1146.13663 L1059.80769,1146.13663 L1090.83437,1199.6669 L1059.80769,1253.19716 L997.757361,1253.19716 L966.729663,1199.6669 L997.757361,1146.13663 Z M1061.51056,1256.12769 L1094.24011,1199.6669 L1061.51056,1143.20611 L996.057533,1143.20611 L963.33102,1199.6669 L996.057533,1256.12769 L1061.51056,1256.12769 Z" id="Fill-212"></path>
                <path d="M1100.69223,1206.095 L1162.74608,1206.095 L1193.773,1259.62526 L1162.74608,1313.15553 L1100.69223,1313.15553 L1069.66531,1259.62526 L1100.69223,1206.095 Z M1164.44896,1316.08605 L1197.16863,1259.62526 L1164.44896,1203.16447 L1098.98935,1203.16447 L1066.25954,1259.62526 L1098.98935,1316.08605 L1164.44896,1316.08605 Z" id="Fill-213"></path>
                <path d="M1059.80769,1373.11389 L997.757361,1373.11389 L966.729663,1319.58362 L997.757361,1266.05336 L1059.80769,1266.05336 L1090.83437,1319.58362 L1059.80769,1373.11389 Z M1061.51056,1263.12283 L996.057533,1263.12283 L963.33102,1319.58362 L996.057533,1376.04441 L1061.51056,1376.04441 L1094.24011,1319.58362 L1061.51056,1263.12283 Z" id="Fill-214"></path>
                <path d="M1100.69223,1086.17827 L1162.74608,1086.17827 L1193.773,1139.70854 L1162.74608,1193.22866 L1100.69223,1193.22866 L1069.66531,1139.70854 L1100.69223,1086.17827 Z M1164.44896,1196.16933 L1197.16863,1139.70854 L1164.44896,1083.24774 L1098.98935,1083.24774 L1066.25954,1139.70854 L1098.98935,1196.16933 L1164.44896,1196.16933 Z" id="Fill-215"></path>
                <path d="M1203.62075,1146.13663 L1265.6746,1146.13663 L1296.70153,1199.6669 L1265.6746,1253.19716 L1203.62075,1253.19716 L1172.59383,1199.6669 L1203.62075,1146.13663 Z M1267.36735,1256.12769 L1300.09715,1199.6669 L1267.36735,1143.20611 L1201.91787,1143.20611 L1169.18806,1199.6669 L1201.91787,1256.12769 L1267.36735,1256.12769 Z" id="Fill-216"></path>
                <path d="M1368.59299,1313.15553 L1306.53914,1313.15553 L1275.51221,1259.62526 L1306.53914,1206.095 L1368.59299,1206.095 L1399.61991,1259.62526 L1368.59299,1313.15553 Z M1304.83626,1203.16447 L1272.11659,1259.62526 L1304.83626,1316.08605 L1370.29587,1316.08605 L1403.02568,1259.62526 L1370.29587,1203.16447 L1304.83626,1203.16447 Z" id="Fill-217"></path>
                <path d="M1265.6746,1373.11389 L1203.62075,1373.11389 L1172.59383,1319.58362 L1203.62075,1266.05336 L1265.6746,1266.05336 L1296.70153,1319.58362 L1265.6746,1373.11389 Z M1267.36735,1263.12283 L1201.91787,1263.12283 L1169.18806,1319.58362 L1201.91787,1376.04441 L1267.36735,1376.04441 L1300.09715,1319.58362 L1267.36735,1263.12283 Z" id="Fill-218"></path>
                <path d="M1368.59299,1193.22866 L1306.53914,1193.22866 L1275.51221,1139.70854 L1306.53914,1086.17827 L1368.59299,1086.17827 L1399.61991,1139.70854 L1368.59299,1193.22866 Z M1304.83626,1083.24774 L1272.11659,1139.70854 L1304.83626,1196.16933 L1370.29587,1196.16933 L1403.02568,1139.70854 L1370.29587,1083.24774 L1304.83626,1083.24774 Z" id="Fill-219"></path>
                <polyline id="Fill-220" points="1374.0458 1199.6669 1407.02801 1256.12769 1440 1256.12769 1440 1253.19716 1408.73381 1253.19716 1377.46762 1199.6669 1408.73381 1146.13663 1440 1146.13663 1440 1143.20611 1407.02801 1143.20611 1374.0458 1199.6669"></polyline>
                <polyline id="Fill-221" points="1374.0458 1319.58362 1407.02801 1376.04441 1440 1376.04441 1440 1373.11389 1408.73381 1373.11389 1377.46762 1319.58362 1408.73381 1266.05336 1440 1266.05336 1440 1263.12283 1407.02801 1263.12283 1374.0458 1319.58362"></polyline>
                <path d="M133.457073,1433.07225 L71.4026916,1433.07225 L40.3760075,1379.54198 L71.4026916,1326.01172 L133.457073,1326.01172 L164.483757,1379.54198 L133.457073,1433.07225 Z M69.7018495,1323.08119 L36.9743234,1379.54198 L69.7018495,1436.00278 L135.155888,1436.00278 L167.883414,1379.54198 L135.155888,1323.08119 L69.7018495,1323.08119 Z" id="Fill-222"></path>
                <polyline id="Fill-224" points="0 1383.03956 0 1385.99602 31.2647924 1385.99602 62.5285634 1440 65.9541985 1440 32.9776099 1383.03956 0 1383.03956"></polyline>
                <polyline id="Fill-226" points="238.08441 1383.03956 270.807882 1440 270.811936 1440 238.08441 1383.03956 172.630371 1383.03956 139.902845 1440 139.903859 1440 172.630371 1383.03956 238.08441 1383.03956"></polyline>
                <polyline id="Fill-227" points="268.312172 1439.50035 268.31517 1439.50035 268.312172 1439.50035"></polyline>
                <polyline id="Fill-228" points="143.398418 1439.50035 143.402415 1439.50035 143.398418 1439.50035"></polyline>
                <path d="M339.31209,1433.07225 L277.257708,1433.07225 L246.231024,1379.54198 L277.257708,1326.01172 L339.31209,1326.01172 L370.338774,1379.54198 L339.31209,1433.07225 Z M275.558893,1323.08119 L242.831367,1379.54198 L275.558893,1436.00278 L341.012932,1436.00278 L373.740458,1379.54198 L341.012932,1323.08119 L275.558893,1323.08119 Z" id="Fill-229"></path>
                <polyline id="Fill-230" points="238.08441 1383.03956 172.630371 1383.03956 139.903859 1440 139.902845 1440 143.305543 1440 174.329186 1385.99602 236.383568 1385.99602 267.408225 1440 270.811936 1440 270.807882 1440 238.08441 1383.03956"></polyline>
                <path d="M545.170894,1433.07225 L483.115018,1433.07225 L452.088094,1379.54198 L483.115018,1326.01172 L545.170894,1326.01172 L576.197818,1379.54198 L545.170894,1433.07225 Z M481.415177,1323.08119 L448.688411,1379.54198 L481.415177,1436.00278 L546.871749,1436.00278 L579.597502,1379.54198 L546.871749,1323.08119 L481.415177,1323.08119 Z" id="Fill-231"></path>
                <polyline id="Fill-232" points="378.485895 1383.03956 345.759889 1440 349.159599 1440 380.186763 1385.99602 442.243119 1385.99602 473.26927 1440 476.66898 1440 443.942974 1383.03956 378.485895 1383.03956"></polyline>
                <path d="M751.028952,1433.07225 L688.973076,1433.07225 L657.946151,1379.54198 L688.973076,1326.01172 L751.028952,1326.01172 L782.054862,1379.54198 L751.028952,1433.07225 Z M687.273234,1323.08119 L654.545455,1379.54198 L687.273234,1436.00278 L752.726766,1436.00278 L785.454545,1379.54198 L752.726766,1323.08119 L687.273234,1323.08119 Z" id="Fill-233"></path>
                <polyline id="Fill-234" points="584.343445 1383.03956 551.616933 1440 555.017603 1440 586.044287 1385.99602 648.099683 1385.99602 679.126367 1440 682.526024 1440 649.798497 1383.03956 584.343445 1383.03956"></polyline>
                <path d="M956.883221,1433.07225 L894.829853,1433.07225 L863.803169,1379.54198 L894.829853,1326.01172 L956.883221,1326.01172 L987.910919,1379.54198 L956.883221,1433.07225 Z M893.130024,1323.08119 L860.402498,1379.54198 L893.130024,1436.00278 L958.584063,1436.00278 L991.311589,1379.54198 L958.584063,1323.08119 L893.130024,1323.08119 Z" id="Fill-235"></path>
                <polyline id="Fill-236" points="790.201249 1383.03956 757.473976 1440 760.875634 1440 791.902078 1385.99602 853.954966 1385.99602 884.980396 1440 888.383067 1440 855.655795 1383.03956 790.201249 1383.03956"></polyline>
                <path d="M1162.74608,1433.07225 L1100.69223,1433.07225 L1069.66531,1379.54198 L1100.69223,1326.01172 L1162.74608,1326.01172 L1193.773,1379.54198 L1162.74608,1433.07225 Z M1098.98935,1323.08119 L1066.25954,1379.54198 L1098.98935,1436.00278 L1164.44896,1436.00278 L1197.16863,1379.54198 L1164.44896,1323.08119 L1098.98935,1323.08119 Z" id="Fill-237"></path>
                <polyline id="Fill-238" points="996.057533 1383.03956 963.33102 1440 966.729663 1440 997.757361 1385.99602 1059.80769 1385.99602 1090.83437 1440 1094.24011 1440 1061.51056 1383.03956 996.057533 1383.03956"></polyline>
                <path d="M1368.59299,1433.07225 L1306.53914,1433.07225 L1275.51221,1379.54198 L1306.53914,1326.01172 L1368.59299,1326.01172 L1399.61991,1379.54198 L1368.59299,1433.07225 Z M1304.83626,1323.08119 L1272.11659,1379.54198 L1304.83626,1436.00278 L1370.29587,1436.00278 L1403.02568,1379.54198 L1370.29587,1323.08119 L1304.83626,1323.08119 Z" id="Fill-239"></path>
                <polyline id="Fill-240" points="1201.91787 1383.03956 1169.18806 1440 1172.59383 1440 1203.62075 1385.99602 1265.6746 1385.99602 1296.70153 1440 1300.09715 1440 1267.36735 1383.03956 1201.91787 1383.03956"></polyline>
                <polyline id="Fill-241" points="1408.73381 1385.99602 1440 1385.99602 1440 1383.03956 1407.02801 1383.03956 1374.0458 1440 1377.46762 1440 1408.73381 1385.99602"></polyline>
            </g>
        </g>
    </g>
</svg>