<svg height="1440" viewBox="0 0 1439 1440" width="1439" xmlns="http://www.w3.org/2000/svg"><g fill="#fff" fill-rule="evenodd" opacity=".025391" transform="translate(-1)"><path d="m65.9541985.00102298-3.4256351-.00102298-31.263771 54.0009685h-31.2647924v2.9594756h32.9776099z"/><path d="m174.128057 53.962526h62.457647l31.228314-53.96150375-.003061-.00102225-31.225253 53.9563925h-62.457647l-31.223213-53.9563925h-.004081z"/><path d="m71.4026916 5.9304458h62.0543814l31.026684 53.5277564-31.026684 53.5287708h-62.0543814l-31.0266841-53.5287708zm63.7531964 109.9890542 32.727526-56.4612978-32.727526-56.46028409h-65.4540385l-32.7275261 56.46028409 32.7275261 56.4612978z"/><path d="m65.9541985 119.416564-32.9765886-56.4602836h-32.9776099v2.9325276h31.2647924l31.263771 53.527756-31.263771 53.527757h-31.2647924v2.933542h32.9776099z"/><path d="m236.585704 173.879251 31.228314-53.95946-.00204-.003067-31.226274 53.956393h-62.457647l-31.225253-53.956393-.002041.003067 31.227294 53.95946z"/><path d="m139.903859 119.916724 32.726512-56.9532832h65.454039l32.723472 56.9532832.004054-.003068-32.727526-56.9573756h-65.454039l-32.727526 56.9573756z"/><path d="m172.630371 56.9604441h65.454039l32.727526-56.95942112-3.401684-.00102298-31.026684 54.0009685h-62.054382l-31.02567-53.99994552-3.400671-.00102298z"/><path d="m277.257708 5.9304458h62.054382l31.026684 53.5277564-31.026684 53.5287708h-62.054382l-31.026684-53.5287708zm63.755224 109.9890542 32.727526-56.4612978-32.727526-56.46028409h-65.454039l-32.727526 56.46028409 32.727526 56.4612978z"/><path d="m143.305543 119.413522 31.023643-53.524714h62.054382l31.024657 53.524714.002027.003042-31.026684 53.527757h-62.054382l-31.02567-53.527757zm29.324828-56.4572416-32.726512 56.4572416-.001014.003042 32.727526 56.461299h65.454039l32.727526-56.461299-.004054-.003042-32.723472-56.4572416z"/><path d="m378.485895 56.9604441h65.457079l32.726006-56.95942112-3.39971-.00102298-31.026151 54.0009685h-62.056356l-31.027164-53.99994552-3.39971-.00102298z"/><path d="m483.115018 5.9304458h62.055876l31.026924 53.5277564-31.026924 53.5287708h-62.055876l-31.026924-53.5287708zm63.756731 109.9890542 32.725753-56.4612978-32.725753-56.46028409h-65.456572l-32.726766 56.46028409 32.726766 56.4612978z"/><path d="m380.186763 65.888808h62.056356l31.026151 53.527756-31.026151 53.527757h-62.056356l-31.027164-53.527757zm-1.700868 109.989055h65.457079l32.726006-56.461299-32.726006-56.4602836h-65.457079l-32.726006 56.4602836z"/><path d="m584.343445 56.9604441h65.455052l32.727527-56.95942112-3.399657-.00102298-31.026684 54.0009685h-62.055396l-31.026684-53.99994552-3.40067-.00102298z"/><path d="m688.973076 5.9304458h62.055876l31.02591 53.5277564-31.02591 53.5287708h-62.055876l-31.026925-53.5287708zm63.75369 109.9890542 32.727779-56.4612978-32.727779-56.46028409h-65.453532l-32.727779 56.46028409 32.727779 56.4612978z"/><path d="m586.044287 65.888808h62.055396l31.026684 53.527756-31.026684 53.527757h-62.055396l-31.026684-53.527757zm-1.700842 109.989055h65.455052l32.727527-56.461299-32.727527-56.4602836h-65.455052l-32.726512 56.4602836z"/><path d="m790.201249 56.9604441h65.454546l32.727272-56.95942112-3.402671-.00102298-31.02543 54.0009685h-62.052888l-31.026444-53.99994552-3.401658-.00102298z"/><path d="m894.829853 5.9304458h62.053368l31.027698 53.5277564-31.027698 53.5287708h-62.053368l-31.026684-53.5287708zm63.75421 109.9890542 32.727526-56.4612978-32.727526-56.46028409h-65.454039l-32.727526 56.46028409 32.727526 56.4612978z"/><path d="m791.902078 65.888808h62.052888l31.02543 53.527756-31.02543 53.527757h-62.052888l-31.026444-53.527757zm-1.700829 109.989055h65.454546l32.727272-56.461299-32.727272-56.4602836h-65.454546l-32.727273 56.4602836z"/><path d="m996.057533 56.9604441h65.453027l32.72955-56.95942112-3.40574-.00102298-31.02668 54.0009685h-62.050329l-31.027698-53.99994552-3.398643-.00102298z"/><path d="m1100.69223 5.9304458h62.05385l31.02692 53.5277564-31.02692 53.5287708h-62.05385l-31.02692-53.5287708zm63.75673 109.9890542 32.71967-56.4612978-32.71967-56.46028409h-65.45961l-32.72981 56.46028409 32.72981 56.4612978z"/><path d="m997.757361 65.888808h62.050329l31.02668 53.527756-31.02668 53.527757h-62.050329l-31.027698-53.527757zm-1.699828 109.989055h65.453027l32.72955-56.461299-32.72955-56.4602836h-65.453027l-32.726513 56.4602836z"/><path d="m1201.91787 56.9604441h65.44948l32.7298-56.95942112-3.39562-.00102298-31.02693 54.0009685h-62.05385l-31.02692-53.99994552-3.40577-.00102298z"/><path d="m1306.53914 5.9304458h62.05385l31.02692 53.5277564-31.02692 53.5287708h-62.05385l-31.02693-53.5287708zm63.75673 109.9890542 32.72981-56.4612978-32.72981-56.46028409h-65.45961l-32.71967 56.46028409 32.71967 56.4612978z"/><path d="m1203.62075 65.888808h62.05385l31.02693 53.527756-31.02693 53.527757h-62.05385l-31.02692-53.527757zm-1.70288 109.989055h65.44948l32.7298-56.461299-32.7298-56.4602836h-65.44948l-32.72981 56.4602836z"/><path d="m1407.02801 56.9604441h32.97199v-2.9594756h-31.26619l-31.26619-53.99994552-3.42182-.00102298z"/><path d="m1374.0458 119.416564 32.98221 56.461299h32.97199v-2.933542h-31.26619l-31.26619-53.527757 31.26619-53.527756h31.26619v-2.9325276h-32.97199z"/><path d="m65.9541985 239.334303-32.9765886-56.461298h-32.9776099v2.932528h31.2647924l31.263771 53.52877-31.263771 53.526742h-31.2647924v2.933542h32.9776099z"/><path d="m238.08441 182.879143 32.723472 56.954306.004054-.003069-32.727526-56.957375h-65.454039l-32.727526 56.957375.001014.003069 32.726512-56.954306z"/><path d="m236.585704 293.795975 31.228314-53.958437-.00204-.004089-31.226274 53.956393h-62.457647l-31.225253-53.956393-.002041.004089 31.227294 53.958437z"/><path d="m71.4026916 245.764909h62.0543814l31.026684 53.527756-31.026684 53.527757h-62.0543814l-31.0266841-53.527757zm63.7531964 109.98804 32.727526-56.460284-32.727526-56.461298h-65.4540385l-32.7275261 56.461298 32.7275261 56.460284z"/><path d="m65.9541985 360.250334-32.9765886-56.461299h-32.9776099v2.933542h31.2647924l31.263771 53.527757-31.263771 53.527756h-31.2647924v2.932528h32.9776099z"/><path d="m236.585704 413.7127 31.228314-53.95946-.00204-.003067-31.226274 53.955371h-62.457647l-31.225253-53.955371-.002041.003067 31.227294 53.95946z"/><path d="m238.08441 302.795867 32.723472 56.954306.004054-.003068-32.727526-56.957376h-65.454039l-32.727526 56.957376.001014.003068 32.726512-56.954306z"/><path d="m71.4026916 125.84717h62.0543814l31.026684 53.528771-31.026684 53.527756h-62.0543814l-31.0266841-53.527756zm63.7531964 109.989055 32.727526-56.460284-32.727526-56.461298h-65.4540385l-32.7275261 56.461298 32.7275261 56.460284z"/><path d="m143.305543 239.330247 31.023643-53.524714h62.054382l31.024657 53.524714.002027.004056-31.026684 53.526742h-62.054382l-31.02567-53.526742zm29.324828 56.46434h65.454039l32.727526-56.460284-.004054-.004056-32.723472-56.457242h-65.454039l-32.726512 56.457242-.001014.004056z"/><path d="m339.31209 352.820422h-62.054382l-31.026684-53.527757 31.026684-53.527756h62.054382l31.026684 53.527756zm-63.753197-109.989055-32.727526 56.461298 32.727526 56.460284h65.454039l32.727526-56.460284-32.727526-56.461298z"/><path d="m143.305543 360.247291 31.023643-53.524714h62.054382l31.024657 53.524714.002027.003043-31.026684 53.527756h-62.054382l-31.02567-53.527756zm29.324828 56.463327h65.454039l32.727526-56.460284-.004054-.003043-32.723472-56.458256h-65.454039l-32.726512 56.458256-.001014.003043z"/><path d="m339.31209 232.903697h-62.054382l-31.026684-53.527756 31.026684-53.528771h62.054382l31.026684 53.528771zm-63.753197-109.989054-32.727526 56.461298 32.727526 56.460284h65.454039l32.727526-56.460284-32.727526-56.461298z"/><path d="m442.243119 292.861045h-62.056356l-31.027164-53.526742 31.027164-53.52877h62.056356l31.026151 53.52877zm-63.757224-109.98804-32.726006 56.461298 32.726006 56.460284h65.457079l32.726006-56.460284-32.726006-56.461298z"/><path d="m545.170894 352.820422h-62.055876l-31.026924-53.527757 31.026924-53.527756h62.055876l31.026924 53.527756zm-63.755717-109.989055-32.726766 56.461298 32.726766 56.460284h65.456572l32.725753-56.460284-32.725753-56.461298z"/><path d="m442.243119 413.77809h-62.056356l-31.027164-53.527756 31.027164-53.527757h62.056356l31.026151 53.527757zm-63.757224-109.989055-32.726006 56.461299 32.726006 56.460284h65.457079l32.726006-56.460284-32.726006-56.461299z"/><path d="m545.170894 232.903697h-62.055876l-31.026924-53.527756 31.026924-53.528771h62.055876l31.026924 53.528771zm-63.755717-109.989054-32.726766 56.461298 32.726766 56.460284h65.456572l32.725753-56.460284-32.725753-56.461298z"/><path d="m648.099683 292.861045h-62.055396l-31.026684-53.526742 31.026684-53.52877h62.055396l31.026684 53.52877zm-63.756238-109.98804-32.726512 56.461298 32.726512 56.460284h65.455052l32.727527-56.460284-32.727527-56.461298z"/><path d="m751.028952 352.820422h-62.055876l-31.026925-53.527757 31.026925-53.527756h62.055876l31.02591 53.527756zm-63.755718-109.989055-32.727779 56.461298 32.727779 56.460284h65.453532l32.727779-56.460284-32.727779-56.461298z"/><path d="m648.099683 413.77809h-62.055396l-31.026684-53.527756 31.026684-53.527757h62.055396l31.026684 53.527757zm-63.756238-109.989055-32.726512 56.461299 32.726512 56.460284h65.455052l32.727527-56.460284-32.727527-56.461299z"/><path d="m751.028952 232.903697h-62.055876l-31.026925-53.527756 31.026925-53.528771h62.055876l31.02591 53.528771zm-63.755718-109.989054-32.727779 56.461298 32.727779 56.460284h65.453532l32.727779-56.460284-32.727779-56.461298z"/><path d="m853.954966 292.861045h-62.052888l-31.026444-53.526742 31.026444-53.52877h62.052888l31.02543 53.52877zm-63.753717-109.98804-32.727273 56.461298 32.727273 56.460284h65.454546l32.727272-56.460284-32.727272-56.461298z"/><path d="m956.883221 352.820422h-62.053368l-31.026684-53.527757 31.026684-53.527756h62.053368l31.027698 53.527756zm-63.753197-109.989055-32.727526 56.461298 32.727526 56.460284h65.454039l32.727526-56.460284-32.727526-56.461298z"/><path d="m853.954966 413.77809h-62.052888l-31.026444-53.527756 31.026444-53.527757h62.052888l31.02543 53.527757zm-63.753717-109.989055-32.727273 56.461299 32.727273 56.460284h65.454546l32.727272-56.460284-32.727272-56.461299z"/><path d="m956.883221 232.903697h-62.053368l-31.026684-53.527756 31.026684-53.528771h62.053368l31.027698 53.528771zm-63.753197-109.989054-32.727526 56.461298 32.727526 56.460284h65.454039l32.727526-56.460284-32.727526-56.461298z"/><path d="m1059.80769 292.861045h-62.050329l-31.027698-53.526742 31.027698-53.52877h62.050329l31.02668 53.52877zm-63.750157-109.98804-32.726513 56.461298 32.726513 56.460284h65.453027l32.72955-56.460284-32.72955-56.461298z"/><path d="m1162.74608 352.820422h-62.05385l-31.02692-53.527757 31.02692-53.527756h62.05385l31.02692 53.527756zm1.70288-109.989055h-65.45961l-32.72981 56.461298 32.72981 56.460284h65.45961l32.71967-56.460284z"/><path d="m1059.80769 413.77809h-62.050329l-31.027698-53.527756 31.027698-53.527757h62.050329l31.02668 53.527757zm-63.750157-109.989055-32.726513 56.461299 32.726513 56.460284h65.453027l32.72955-56.460284-32.72955-56.461299z"/><path d="m1162.74608 232.903697h-62.05385l-31.02692-53.527756 31.02692-53.528771h62.05385l31.02692 53.528771zm-63.75673-109.989054-32.72981 56.461298 32.72981 56.460284h65.45961l32.71967-56.460284-32.71967-56.461298z"/><path d="m1265.6746 292.861045h-62.05385l-31.02692-53.526742 31.02692-53.52877h62.05385l31.02693 53.52877zm1.69275-109.98804h-65.44948l-32.72981 56.461298 32.72981 56.460284h65.44948l32.7298-56.460284z"/><path d="m1368.59299 352.820422h-62.05385l-31.02693-53.527757 31.02693-53.527756h62.05385l31.02692 53.527756zm-63.75673-109.989055-32.71967 56.461298 32.71967 56.460284h65.45961l32.72981-56.460284-32.72981-56.461298z"/><path d="m1265.6746 413.77809h-62.05385l-31.02692-53.527756 31.02692-53.527757h62.05385l31.02693 53.527757zm1.69275-109.989055h-65.44948l-32.72981 56.461299 32.72981 56.460284h65.44948l32.7298-56.460284z"/><path d="m1368.59299 232.903697h-62.05385l-31.02693-53.527756 31.02693-53.528771h62.05385l31.02692 53.528771zm-63.75673-109.989054-32.71967 56.461298 32.71967 56.460284h65.45961l32.72981-56.460284-32.72981-56.461298z"/><path d="m1374.0458 239.334303 32.98221 56.460284h32.97199v-2.933542h-31.26619l-31.26619-53.526742 31.26619-53.52877h31.26619v-2.932528h-32.97199z"/><path d="m1374.0458 360.250334 32.98221 56.460284h32.97199v-2.932528h-31.26619l-31.26619-53.527756 31.26619-53.527757h31.26619v-2.933542h-32.97199z"/><path d="m65.9541985 480.166551-32.9765886-56.460791h-32.9776099v2.932554h31.2647924l31.263771 53.528237-31.263771 53.528237h-31.2647924v2.932554h32.9776099z"/><path d="m238.08441 422.713614 32.723472 56.953284.004054-.003069-32.727526-56.957375h-65.454039l-32.727526 56.957375.001014.003069 32.726512-56.953284z"/><path d="m236.585704 533.629424 31.228314-53.959459-.00204-.003067-31.226274 53.956393h-62.457647l-31.225253-53.956393-.002041.003067 31.227294 53.959459z"/><path d="m71.4026916 486.59665h62.0543814l31.026684 53.52877-31.026684 53.526743h-62.0543814l-31.0266841-53.526743zm63.7531964 109.989054 32.727526-56.460284-32.727526-56.461298h-65.4540385l-32.7275261 56.461298 32.7275261 56.460284z"/><path d="m65.9541985 600.082768-32.9765886-56.460284h-32.9776099v2.932528h31.2647924l31.263771 53.527756-31.263771 53.527757h-31.2647924v2.933542h32.9776099z"/><path d="m238.08441 542.630339 32.723472 56.953283.004054-.003068-32.727526-56.957376h-65.454039l-32.727526 56.957376.001014.003068 32.726512-56.953283z"/><path d="m236.585704 653.546149 31.228314-53.95946-.00204-.003067-31.226274 53.956393h-62.457647l-31.225253-53.956393-.002041.003067 31.227294 53.95946z"/><path d="m71.4026916 366.679952h62.0543814l31.026684 53.528237-31.026684 53.528237h-62.0543814l-31.0266841-53.528237zm63.7531964 109.989028 32.727526-56.460791-32.727526-56.460791h-65.4540385l-32.7275261 56.460791 32.7275261 56.460791z"/><path d="m143.305543 480.163509 31.023643-53.525195h62.054382l31.024657 53.525195.002027.003042-31.026684 53.528237h-62.054382l-31.02567-53.528237zm29.324828 56.463833h65.454039l32.727526-56.460791-.004054-.003042-32.723472-56.457749h-65.454039l-32.726512 56.457749-.001014.003042z"/><path d="m277.257708 486.59665h62.054382l31.026684 53.52877-31.026684 53.526743h-62.054382l-31.026684-53.526743zm-1.698815 109.989054h65.454039l32.727526-56.460284-32.727526-56.461298h-65.454039l-32.727526 56.461298z"/><path d="m143.305543 600.079726 31.023643-53.524714h62.054382l31.024657 53.524714.002027.003042-31.026684 53.527757h-62.054382l-31.02567-53.527757zm29.324828 56.464341h65.454039l32.727526-56.461299-.004054-.003042-32.723472-56.457242h-65.454039l-32.726512 56.457242-.001014.003042z"/><path d="m277.257708 366.679952h62.054382l31.026684 53.528237-31.026684 53.528237h-62.054382l-31.026684-53.528237zm-1.698815 109.989028h65.454039l32.727526-56.460791-32.727526-56.460791h-65.454039l-32.727526 56.460791z"/><path d="m442.243119 533.694788h-62.056356l-31.027164-53.528237 31.027164-53.528237h62.056356l31.026151 53.528237zm-63.757224-109.989028-32.726006 56.460791 32.726006 56.460791h65.457079l32.726006-56.460791-32.726006-56.460791z"/><path d="m545.170894 593.652163h-62.055876l-31.026924-53.526743 31.026924-53.52877h62.055876l31.026924 53.52877zm-63.755717-109.988041-32.726766 56.461298 32.726766 56.460284h65.456572l32.725753-56.460284-32.725753-56.461298z"/><path d="m380.186763 546.555012h62.056356l31.026151 53.527756-31.026151 53.527757h-62.056356l-31.027164-53.527757zm-1.700868 109.989055h65.457079l32.726006-56.461299-32.726006-56.460284h-65.457079l-32.726006 56.460284z"/><path d="m545.170894 473.736426h-62.055876l-31.026924-53.528237 31.026924-53.528237h62.055876l31.026924 53.528237zm-63.755717-109.989028-32.726766 56.460791 32.726766 56.460791h65.456572l32.725753-56.460791-32.725753-56.460791z"/><path d="m648.099683 533.694788h-62.055396l-31.026684-53.528237 31.026684-53.528237h62.055396l31.026684 53.528237zm-63.756238-109.989028-32.726512 56.460791 32.726512 56.460791h65.455052l32.727527-56.460791-32.727527-56.460791z"/><path d="m751.028952 593.652163h-62.055876l-31.026925-53.526743 31.026925-53.52877h62.055876l31.02591 53.52877zm-63.755718-109.988041-32.727779 56.461298 32.727779 56.460284h65.453532l32.727779-56.460284-32.727779-56.461298z"/><path d="m648.099683 653.610525h-62.055396l-31.026684-53.527757 31.026684-53.527756h62.055396l31.026684 53.527756zm-63.756238-109.988041-32.726512 56.460284 32.726512 56.461299h65.455052l32.727527-56.461299-32.727527-56.460284z"/><path d="m751.028952 473.736426h-62.055876l-31.026925-53.528237 31.026925-53.528237h62.055876l31.02591 53.528237zm-63.755718-109.989028-32.727779 56.460791 32.727779 56.460791h65.453532l32.727779-56.460791-32.727779-56.460791z"/><path d="m853.954966 533.694788h-62.052888l-31.026444-53.528237 31.026444-53.528237h62.052888l31.02543 53.528237zm-63.753717-109.989028-32.727273 56.460791 32.727273 56.460791h65.454546l32.727272-56.460791-32.727272-56.460791z"/><path d="m956.883221 593.652163h-62.053368l-31.026684-53.526743 31.026684-53.52877h62.053368l31.027698 53.52877zm1.700842-109.988041h-65.454039l-32.727526 56.461298 32.727526 56.460284h65.454039l32.727526-56.460284z"/><path d="m853.954966 653.610525h-62.052888l-31.026444-53.527757 31.026444-53.527756h62.052888l31.02543 53.527756zm-63.753717-109.988041-32.727273 56.460284 32.727273 56.461299h65.454546l32.727272-56.461299-32.727272-56.460284z"/><path d="m956.883221 473.736426h-62.053368l-31.026684-53.528237 31.026684-53.528237h62.053368l31.027698 53.528237zm-63.753197-109.989028-32.727526 56.460791 32.727526 56.460791h65.454039l32.727526-56.460791-32.727526-56.460791z"/><path d="m1059.80769 533.694788h-62.050329l-31.027698-53.528237 31.027698-53.528237h62.050329l31.02668 53.528237zm1.70287-109.989028h-65.453027l-32.726513 56.460791 32.726513 56.460791h65.453027l32.72955-56.460791z"/><path d="m1162.74608 593.652163h-62.05385l-31.02692-53.526743 31.02692-53.52877h62.05385l31.02692 53.52877zm1.70288-109.988041h-65.45961l-32.72981 56.461298 32.72981 56.460284h65.45961l32.71967-56.460284z"/><path d="m1059.80769 653.610525h-62.050329l-31.027698-53.527757 31.027698-53.527756h62.050329l31.02668 53.527756zm1.70287-109.988041h-65.453027l-32.726513 56.460284 32.726513 56.461299h65.453027l32.72955-56.461299z"/><path d="m1162.74608 473.736426h-62.05385l-31.02692-53.528237 31.02692-53.528237h62.05385l31.02692 53.528237zm1.70288-109.989028h-65.45961l-32.72981 56.460791 32.72981 56.460791h65.45961l32.71967-56.460791z"/><path d="m1265.6746 533.694788h-62.05385l-31.02692-53.528237 31.02692-53.528237h62.05385l31.02693 53.528237zm1.69275-109.989028h-65.44948l-32.72981 56.460791 32.72981 56.460791h65.44948l32.7298-56.460791z"/><path d="m1368.59299 593.652163h-62.05385l-31.02693-53.526743 31.02693-53.52877h62.05385l31.02692 53.52877zm-63.75673-109.988041-32.71967 56.461298 32.71967 56.460284h65.45961l32.72981-56.460284-32.72981-56.461298z"/><path d="m1265.6746 653.610525h-62.05385l-31.02692-53.527757 31.02692-53.527756h62.05385l31.02693 53.527756zm1.69275-109.988041h-65.44948l-32.72981 56.460284 32.72981 56.461299h65.44948l32.7298-56.461299z"/><path d="m1368.59299 473.736426h-62.05385l-31.02693-53.528237 31.02693-53.528237h62.05385l31.02692 53.528237zm-63.75673-109.989028-32.71967 56.460791 32.71967 56.460791h65.45961l32.72981-56.460791-32.72981-56.460791z"/><path d="m1374.0458 480.166551 32.98221 56.460791h32.97199v-2.932554h-31.26619l-31.26619-53.528237 31.26619-53.528237h31.26619v-2.932554h-32.97199z"/><path d="m1374.0458 600.082768 32.98221 56.461299h32.97199v-2.933542h-31.26619l-31.26619-53.527757 31.26619-53.527756h31.26619v-2.932528h-32.97199z"/><path d="m65.9541985 720.000507-32.9765886-56.461298h-32.9776099v2.932528h31.2647924l31.263771 53.52877-31.263771 53.526742h-31.2647924v2.933542h32.9776099z"/><path d="m236.585704 773.462873 31.228314-53.958437-.00204-.004089-31.226274 53.956393h-62.457647l-31.225253-53.956393-.002041.004089 31.227294 53.958437z"/><path d="m238.08441 663.545347 32.723472 56.954306.004054-.003069-32.727526-56.957375h-65.454039l-32.727526 56.957375.001014.003069 32.726512-56.954306z"/><path d="m71.4026916 726.431113h62.0543814l31.026684 53.527756-31.026684 53.527757h-62.0543814l-31.0266841-53.527757zm63.7531964 109.98804 32.727526-56.460284-32.727526-56.461298h-65.4540385l-32.7275261 56.461298 32.7275261 56.460284z"/><path d="m65.9541985 839.916217-32.9765886-56.460284h-32.9776099v2.932528h31.2647924l31.263771 53.527756-31.263771 53.528771h-31.2647924v2.932528h32.9776099z"/><path d="m238.08441 783.462071 32.723472 56.954307.004054-.003069-32.727526-56.957376h-65.454039l-32.727526 56.957376.001014.003069 32.726512-56.954307z"/><path d="m236.585704 893.379598 31.228314-53.960482-.00204-.002045-31.226274 53.955371h-62.457647l-31.225253-53.955371-.002041.002045 31.227294 53.960482z"/><path d="m71.4026916 606.513374h62.0543814l31.026684 53.527757-31.026684 53.52877h-62.0543814l-31.0266841-53.52877zm63.7531964 109.989055 32.727526-56.461298-32.727526-56.460284h-65.4540385l-32.7275261 56.460284 32.7275261 56.461298z"/><path d="m143.305543 719.996451 31.023643-53.524714h62.054382l31.024657 53.524714.002027.004056-31.026684 53.526742h-62.054382l-31.02567-53.526742zm29.324828 56.46434h65.454039l32.727526-56.460284-.004054-.004056-32.723472-56.457242h-65.454039l-32.726512 56.457242-.001014.004056z"/><path d="m277.257708 726.431113h62.054382l31.026684 53.527756-31.026684 53.527757h-62.054382l-31.026684-53.527757zm-1.698815 109.98804h65.454039l32.727526-56.460284-32.727526-56.461298h-65.454039l-32.727526 56.461298z"/><path d="m143.305543 839.914189 31.023643-53.525728h62.054382l31.024657 53.525728.002027.002028-31.026684 53.528771h-62.054382l-31.02567-53.528771zm29.324828 56.463327h65.454039l32.727526-56.461299-.004054-.002028-32.723472-56.458256h-65.454039l-32.726512 56.458256-.001014.002028z"/><path d="m277.257708 606.513374h62.054382l31.026684 53.527757-31.026684 53.52877h-62.054382l-31.026684-53.52877zm-1.698815 109.989055h65.454039l32.727526-56.461298-32.727526-56.460284h-65.454039l-32.727526 56.460284z"/><path d="m380.186763 666.471737h62.056356l31.026151 53.52877-31.026151 53.526742h-62.056356l-31.027164-53.526742zm-1.700868 109.989054h65.457079l32.726006-56.460284-32.726006-56.461298h-65.457079l-32.726006 56.461298z"/><path d="m483.115018 726.431113h62.055876l31.026924 53.527756-31.026924 53.527757h-62.055876l-31.026924-53.527757zm-1.699841 109.98804h65.456572l32.725753-56.460284-32.725753-56.461298h-65.456572l-32.726766 56.461298z"/><path d="m380.186763 786.388461h62.056356l31.026151 53.527756-31.026151 53.528771h-62.056356l-31.027164-53.528771zm-1.700868 109.989055h65.457079l32.726006-56.461299-32.726006-56.460284h-65.457079l-32.726006 56.460284z"/><path d="m483.115018 606.513374h62.055876l31.026924 53.527757-31.026924 53.52877h-62.055876l-31.026924-53.52877zm-1.699841 109.989055h65.456572l32.725753-56.461298-32.725753-56.460284h-65.456572l-32.726766 56.460284z"/><path d="m648.099683 773.527249h-62.055396l-31.026684-53.526742 31.026684-53.52877h62.055396l31.026684 53.52877zm-63.756238-109.98804-32.726512 56.461298 32.726512 56.460284h65.455052l32.727527-56.460284-32.727527-56.461298z"/><path d="m688.973076 726.431113h62.055876l31.02591 53.527756-31.02591 53.527757h-62.055876l-31.026925-53.527757zm63.75369 109.98804 32.727779-56.460284-32.727779-56.461298h-65.453532l-32.727779 56.461298 32.727779 56.460284z"/><path d="m586.044287 786.388461h62.055396l31.026684 53.527756-31.026684 53.528771h-62.055396l-31.026684-53.528771zm63.75421 109.989055 32.727527-56.461299-32.727527-56.460284h-65.455052l-32.726512 56.460284 32.726512 56.461299z"/><path d="m688.973076 606.513374h62.055876l31.02591 53.527757-31.02591 53.52877h-62.055876l-31.026925-53.52877zm63.75369 109.989055 32.727779-56.461298-32.727779-56.460284h-65.453532l-32.727779 56.460284 32.727779 56.461298z"/><path d="m791.902078 666.471737h62.052888l31.02543 53.52877-31.02543 53.526742h-62.052888l-31.026444-53.526742zm63.753717 109.989054 32.727272-56.460284-32.727272-56.461298h-65.454546l-32.727273 56.461298 32.727273 56.460284z"/><path d="m894.829853 726.431113h62.053368l31.027698 53.527756-31.027698 53.527757h-62.053368l-31.026684-53.527757zm63.75421 109.98804 32.727526-56.460284-32.727526-56.461298h-65.454039l-32.727526 56.461298 32.727526 56.460284z"/><path d="m791.902078 786.388461h62.052888l31.02543 53.527756-31.02543 53.528771h-62.052888l-31.026444-53.528771zm63.753717 109.989055 32.727272-56.461299-32.727272-56.460284h-65.454546l-32.727273 56.460284 32.727273 56.461299z"/><path d="m956.883221 713.569901h-62.053368l-31.026684-53.52877 31.026684-53.527757h62.053368l31.027698 53.527757zm1.700842-109.989054h-65.454039l-32.727526 56.460284 32.727526 56.461298h65.454039l32.727526-56.461298z"/><path d="m1059.80769 773.527249h-62.050329l-31.027698-53.526742 31.027698-53.52877h62.050329l31.02668 53.52877zm1.70287-109.98804h-65.453027l-32.726513 56.461298 32.726513 56.460284h65.453027l32.72955-56.460284z"/><path d="m1162.74608 833.486626h-62.05385l-31.02692-53.527757 31.02692-53.527756h62.05385l31.02692 53.527756zm1.70288-109.989055h-65.45961l-32.72981 56.461298 32.72981 56.460284h65.45961l32.71967-56.460284z"/><path d="m997.757361 786.388461h62.050329l31.02668 53.527756-31.02668 53.528771h-62.050329l-31.027698-53.528771zm63.753199 109.989055 32.72955-56.461299-32.72955-56.460284h-65.453027l-32.726513 56.460284 32.726513 56.461299z"/><path d="m1162.74608 713.569901h-62.05385l-31.02692-53.52877 31.02692-53.527757h62.05385l31.02692 53.527757zm1.70288-109.989054h-65.45961l-32.72981 56.460284 32.72981 56.461298h65.45961l32.71967-56.461298z"/><path d="m1265.6746 773.527249h-62.05385l-31.02692-53.526742 31.02692-53.52877h62.05385l31.02693 53.52877zm1.69275-109.98804h-65.44948l-32.72981 56.461298 32.72981 56.460284h65.44948l32.7298-56.460284z"/><path d="m1368.59299 833.486626h-62.05385l-31.02693-53.527757 31.02693-53.527756h62.05385l31.02692 53.527756zm-63.75673-109.989055-32.71967 56.461298 32.71967 56.460284h65.45961l32.72981-56.460284-32.72981-56.461298z"/><path d="m1265.6746 893.444988h-62.05385l-31.02692-53.528771 31.02692-53.527756h62.05385l31.02693 53.527756zm1.69275-109.989055h-65.44948l-32.72981 56.460284 32.72981 56.461299h65.44948l32.7298-56.461299z"/><path d="m1368.59299 713.569901h-62.05385l-31.02693-53.52877 31.02693-53.527757h62.05385l31.02692 53.527757zm-63.75673-109.989054-32.71967 56.460284 32.71967 56.461298h65.45961l32.72981-56.461298-32.72981-56.460284z"/><path d="m1374.0458 720.000507 32.98221 56.460284h32.97199v-2.933542h-31.26619l-31.26619-53.526742 31.26619-53.52877h31.26619v-2.932528h-32.97199z"/><path d="m1374.0458 839.916217 32.98221 56.461299h32.97199v-2.932528h-31.26619l-31.26619-53.528771 31.26619-53.527756h31.26619v-2.932528h-32.97199z"/><path d="m65.9541985 959.83497-32.9765886-56.462312h-32.9776099v2.933594h31.2647924l31.263771 53.528718-31.263771 53.52872h-31.2647924v2.93055h32.9776099z"/><path d="m238.08441 903.379818 32.723472 56.953284.004054-.003069-32.727526-56.957375h-65.454039l-32.727526 56.957375.001014.003069 32.726512-56.953284z"/><path d="m236.585704 1013.29632 31.228314-53.958435-.00204-.004089-31.226274 53.955374h-62.457647l-31.225253-53.955374-.002041.004089 31.227294 53.958435z"/><path d="m71.4026916 966.263495h62.0543814l31.026684 53.529835-31.026684 53.51869h-62.0543814l-31.0266841-53.51869zm63.7531964 109.989105 32.727526-56.45927-32.727526-56.46231h-65.4540385l-32.7275261 56.46231 32.7275261 56.45927z"/><path d="m65.9541985 1079.75017-32.9765886-56.46079h-32.9776099v2.93053h31.2647924l31.263771 53.53026-31.263771 53.53027h-31.2647924v2.93052h32.9776099z"/><path d="m236.585704 1134.21235 31.228314-53.96252h-.00204l-31.226274 53.9523h-62.457647l-31.225253-53.9523h-.002041l31.227294 53.96252z"/><path d="m238.08441 1023.28938 32.723472 56.96045h.004054l-32.727526-56.96045h-65.454039l-32.727526 56.96045h.001014l32.726512-56.96045z"/><path d="m71.4026916 846.347837h62.0543814l31.026684 53.527757-31.026684 53.527756h-62.0543814l-31.0266841-53.527756zm63.7531964 109.988041 32.727526-56.460284-32.727526-56.461298h-65.4540385l-32.7275261 56.461298 32.7275261 56.460284z"/><path d="m143.305543 959.830914 31.023643-53.524662h62.054382l31.024657 53.524662.002027.004056-31.026684 53.52872h-62.054382l-31.02567-53.52872zm29.324828 56.463326h65.454039l32.727526-56.45927-.004054-.004056-32.723472-56.458256h-65.454039l-32.726512 56.458256-.001014.004056z"/><path d="m277.257708 966.263495h62.054382l31.026684 53.529835-31.026684 53.51869h-62.054382l-31.026684-53.51869zm-1.698815 109.989105h65.454039l32.727526-56.45927-32.727526-56.46231h-65.454039l-32.727526 56.46231z"/><path d="m143.305543 1079.75017 31.023643-53.53026h62.054382l31.024657 53.53026h.002027l-31.026684 53.53027h-62.054382l-31.02567-53.53027zm29.324828 56.46079h65.454039l32.727526-56.46079h-.004054l-32.723472-56.46079h-65.454039l-32.726512 56.46079h-.001014z"/><path d="m277.257708 846.347837h62.054382l31.026684 53.527757-31.026684 53.527756h-62.054382l-31.026684-53.527756zm-1.698815 109.988041h65.454039l32.727526-56.460284-32.727526-56.461298h-65.454039l-32.727526 56.461298z"/><path d="m380.186763 906.306252h62.056356l31.026151 53.528718-31.026151 53.52872h-62.056356l-31.027164-53.52872zm-1.700868 109.987988h65.457079l32.726006-56.45927-32.726006-56.462312h-65.457079l-32.726006 56.462312z"/><path d="m483.115018 966.263495h62.055876l31.026924 53.529835-31.026924 53.51869h-62.055876l-31.026924-53.51869zm63.756731 109.989105 32.725753-56.45927-32.725753-56.46231h-65.456572l-32.726766 56.46231 32.726766 56.45927z"/><path d="m380.186763 1026.21991h62.056356l31.026151 53.53026-31.026151 53.53027h-62.056356l-31.027164-53.53027zm63.756211 109.99105 32.726006-56.46079-32.726006-56.46079h-65.457079l-32.726006 56.46079 32.726006 56.46079z"/><path d="m483.115018 846.347837h62.055876l31.026924 53.527757-31.026924 53.527756h-62.055876l-31.026924-53.527756zm-1.699841 109.988041h65.456572l32.725753-56.460284-32.725753-56.461298h-65.456572l-32.726766 56.461298z"/><path d="m586.044287 906.306252h62.055396l31.026684 53.528718-31.026684 53.52872h-62.055396l-31.026684-53.52872zm63.75421 109.987988 32.727527-56.45927-32.727527-56.462312h-65.455052l-32.726512 56.462312 32.726512 56.45927z"/><path d="m688.973076 966.263495h62.055876l31.02591 53.529835-31.02591 53.51869h-62.055876l-31.026925-53.51869zm63.75369 109.989105 32.727779-56.45927-32.727779-56.46231h-65.453532l-32.727779 56.46231 32.727779 56.45927z"/><path d="m586.044287 1026.21991h62.055396l31.026684 53.53026-31.026684 53.53027h-62.055396l-31.026684-53.53027zm63.75421 109.99105 32.727527-56.46079-32.727527-56.46079h-65.455052l-32.726512 56.46079 32.726512 56.46079z"/><path d="m688.973076 846.347837h62.055876l31.02591 53.527757-31.02591 53.527756h-62.055876l-31.026925-53.527756zm63.75369 109.988041 32.727779-56.460284-32.727779-56.461298h-65.453532l-32.727779 56.461298 32.727779 56.460284z"/><path d="m791.902078 906.306252h62.052888l31.02543 53.528718-31.02543 53.52872h-62.052888l-31.026444-53.52872zm63.753717 109.987988 32.727272-56.45927-32.727272-56.462312h-65.454546l-32.727273 56.462312 32.727273 56.45927z"/><path d="m894.829853 966.263495h62.053368l31.027698 53.529835-31.027698 53.51869h-62.053368l-31.026684-53.51869zm63.75421 109.989105 32.727526-56.45927-32.727526-56.46231h-65.454039l-32.727526 56.46231 32.727526 56.45927z"/><path d="m791.902078 1026.21991h62.052888l31.02543 53.53026-31.02543 53.53027h-62.052888l-31.026444-53.53027zm63.753717 109.99105 32.727272-56.46079-32.727272-56.46079h-65.454546l-32.727273 56.46079 32.727273 56.46079z"/><path d="m894.829853 846.347837h62.053368l31.027698 53.527757-31.027698 53.527756h-62.053368l-31.026684-53.527756zm63.75421 109.988041 32.727526-56.460284-32.727526-56.461298h-65.454039l-32.727526 56.461298 32.727526 56.460284z"/><path d="m997.757361 906.306252h62.050329l31.02668 53.528718-31.02668 53.52872h-62.050329l-31.027698-53.52872zm63.753199 109.987988 32.72955-56.45927-32.72955-56.462312h-65.453027l-32.726513 56.462312 32.726513 56.45927z"/><path d="m1100.69223 966.263495h62.05385l31.02692 53.529835-31.02692 53.51869h-62.05385l-31.02692-53.51869zm63.75673 109.989105 32.71967-56.45927-32.71967-56.46231h-65.45961l-32.72981 56.46231 32.72981 56.45927z"/><path d="m997.757361 1026.21991h62.050329l31.02668 53.53026-31.02668 53.53027h-62.050329l-31.027698-53.53027zm63.753199 109.99105 32.72955-56.46079-32.72955-56.46079h-65.453027l-32.726513 56.46079 32.726513 56.46079z"/><path d="m1162.74608 953.40335h-62.05385l-31.02692-53.527756 31.02692-53.527757h62.05385l31.02692 53.527757zm1.70288-109.989054h-65.45961l-32.72981 56.461298 32.72981 56.460284h65.45961l32.71967-56.460284z"/><path d="m1265.6746 1013.36369h-62.05385l-31.02692-53.52872 31.02692-53.528718h62.05385l31.02693 53.528718zm1.69275-109.991032h-65.44948l-32.72981 56.462312 32.72981 56.45927h65.44948l32.7298-56.45927z"/><path d="m1368.59299 1073.31202h-62.05385l-31.02693-53.51869 31.02693-53.529835h62.05385l31.02692 53.529835zm-63.75673-109.981-32.71967 56.46231 32.71967 56.45927h65.45961l32.72981-56.45927-32.72981-56.46231z"/><path d="m1203.62075 1026.21991h62.05385l31.02693 53.53026-31.02693 53.53027h-62.05385l-31.02692-53.53027zm63.7466 109.99105 32.7298-56.46079-32.7298-56.46079h-65.44948l-32.72981 56.46079 32.72981 56.46079z"/><path d="m1368.59299 953.40335h-62.05385l-31.02693-53.527756 31.02693-53.527757h62.05385l31.02692 53.527757zm-63.75673-109.989054-32.71967 56.461298 32.71967 56.460284h65.45961l32.72981-56.460284-32.72981-56.461298z"/><path d="m1374.0458 959.83497 32.98221 56.45927h32.97199v-2.93055h-31.26619l-31.26619-53.52872 31.26619-53.528718h31.26619v-2.933594h-32.97199z"/><path d="m1374.0458 1079.75017 32.98221 56.46079h32.97199v-2.93052h-31.26619l-31.26619-53.53027 31.26619-53.53026h31.26619v-2.93053h-32.97199z"/><path d="m65.9541985 1199.6669-32.9765886-56.46079h-32.9776099v2.93052h31.2647924l31.263771 53.53027-31.263771 53.53026h-31.2647924v2.93053h32.9776099z"/><path d="m238.08441 1143.20611 32.723472 56.96044h.004054l-32.727526-56.96044h-65.454039l-32.727526 56.96044h.001014l32.726512-56.96044z"/><path d="m236.585704 1254.12908 31.228314-53.96253h-.00204l-31.226274 53.9523h-62.457647l-31.225253-53.9523h-.002041l31.227294 53.96253z"/><path d="m71.4026916 1206.095h62.0543814l31.026684 53.53026-31.026684 53.53027h-62.0543814l-31.0266841-53.53027zm63.7531964 109.99105 32.727526-56.46079-32.727526-56.46079h-65.4540385l-32.7275261 56.46079 32.7275261 56.46079z"/><path d="m65.9541985 1319.58362-32.9765886-56.46079h-32.9776099v2.93053h31.2647924l31.263771 53.53026-31.263771 53.53027h-31.2647924v2.93052h32.9776099z"/><path d="m238.08441 1263.12283 32.723472 56.96045h.004054l-32.727526-56.96045h-65.454039l-32.727526 56.96045h.001014l32.726512-56.96045z"/><path d="m236.585704 1374.0458 31.228314-53.96252h-.00204l-31.226274 53.9523h-62.457647l-31.225253-53.9523h-.002041l31.227294 53.96252z"/><path d="m71.4026916 1086.17827h62.0543814l31.026684 53.53027-31.026684 53.52012h-62.0543814l-31.0266841-53.52012zm63.7531964 109.99106 32.727526-56.46079-32.727526-56.4608h-65.4540385l-32.7275261 56.4608 32.7275261 56.46079z"/><path d="m143.305543 1199.6669 31.023643-53.53027h62.054382l31.024657 53.53027h.002027l-31.026684 53.53026h-62.054382l-31.02567-53.53026zm29.324828 56.46079h65.454039l32.727526-56.46079h-.004054l-32.723472-56.46079h-65.454039l-32.726512 56.46079h-.001014z"/><path d="m277.257708 1206.095h62.054382l31.026684 53.53026-31.026684 53.53027h-62.054382l-31.026684-53.53027zm63.755224 109.99105 32.727526-56.46079-32.727526-56.46079h-65.454039l-32.727526 56.46079 32.727526 56.46079z"/><path d="m143.305543 1319.58362 31.023643-53.53026h62.054382l31.024657 53.53026h.002027l-31.026684 53.53027h-62.054382l-31.02567-53.53027zm127.502339 0-32.723472-56.46079h-65.454039l-32.726512 56.46079h-.001014l32.727526 56.46079h65.454039l32.727526-56.46079z"/><path d="m277.257708 1086.17827h62.054382l31.026684 53.53027-31.026684 53.52012h-62.054382l-31.026684-53.52012zm-1.698815 109.99106h65.454039l32.727526-56.46079-32.727526-56.4608h-65.454039l-32.727526 56.4608z"/><path d="m380.186763 1146.13663h62.056356l31.026151 53.53027-31.026151 53.53026h-62.056356l-31.027164-53.53026zm63.756211 109.99106 32.726006-56.46079-32.726006-56.46079h-65.457079l-32.726006 56.46079 32.726006 56.46079z"/><path d="m483.115018 1206.095h62.055876l31.026924 53.53026-31.026924 53.53027h-62.055876l-31.026924-53.53027zm63.756731 109.99105 32.725753-56.46079-32.725753-56.46079h-65.456572l-32.726766 56.46079 32.726766 56.46079z"/><path d="m442.243119 1373.11389h-62.056356l-31.027164-53.53027 31.027164-53.53026h62.056356l31.026151 53.53026zm1.699855-109.99106h-65.457079l-32.726006 56.46079 32.726006 56.46079h65.457079l32.726006-56.46079z"/><path d="m483.115018 1086.17827h62.055876l31.026924 53.53027-31.026924 53.52012h-62.055876l-31.026924-53.52012zm63.756731 109.99106 32.725753-56.46079-32.725753-56.4608h-65.456572l-32.726766 56.4608 32.726766 56.46079z"/><path d="m586.044287 1146.13663h62.055396l31.026684 53.53027-31.026684 53.53026h-62.055396l-31.026684-53.53026zm63.75421 109.99106 32.727527-56.46079-32.727527-56.46079h-65.455052l-32.726512 56.46079 32.726512 56.46079z"/><path d="m688.973076 1206.095h62.055876l31.02591 53.53026-31.02591 53.53027h-62.055876l-31.026925-53.53027zm63.75369 109.99105 32.727779-56.46079-32.727779-56.46079h-65.453532l-32.727779 56.46079 32.727779 56.46079z"/><path d="m648.099683 1373.11389h-62.055396l-31.026684-53.53027 31.026684-53.53026h62.055396l31.026684 53.53026zm1.698814-109.99106h-65.455052l-32.726512 56.46079 32.726512 56.46079h65.455052l32.727527-56.46079z"/><path d="m688.973076 1086.17827h62.055876l31.02591 53.53027-31.02591 53.52012h-62.055876l-31.026925-53.52012zm63.75369 109.99106 32.727779-56.46079-32.727779-56.4608h-65.453532l-32.727779 56.4608 32.727779 56.46079z"/><path d="m791.902078 1146.13663h62.052888l31.02543 53.53027-31.02543 53.53026h-62.052888l-31.026444-53.53026zm63.753717 109.99106 32.727272-56.46079-32.727272-56.46079h-65.454546l-32.727273 56.46079 32.727273 56.46079z"/><path d="m894.829853 1206.095h62.053368l31.027698 53.53026-31.027698 53.53027h-62.053368l-31.026684-53.53027zm63.75421 109.99105 32.727526-56.46079-32.727526-56.46079h-65.454039l-32.727526 56.46079 32.727526 56.46079z"/><path d="m853.954966 1373.11389h-62.052888l-31.026444-53.53027 31.026444-53.53026h62.052888l31.02543 53.53026zm1.700829-109.99106h-65.454546l-32.727273 56.46079 32.727273 56.46079h65.454546l32.727272-56.46079z"/><path d="m894.829853 1086.17827h62.053368l31.027698 53.53027-31.027698 53.52012h-62.053368l-31.026684-53.52012zm63.75421 109.99106 32.727526-56.46079-32.727526-56.4608h-65.454039l-32.727526 56.4608 32.727526 56.46079z"/><path d="m997.757361 1146.13663h62.050329l31.02668 53.53027-31.02668 53.53026h-62.050329l-31.027698-53.53026zm63.753199 109.99106 32.72955-56.46079-32.72955-56.46079h-65.453027l-32.726513 56.46079 32.726513 56.46079z"/><path d="m1100.69223 1206.095h62.05385l31.02692 53.53026-31.02692 53.53027h-62.05385l-31.02692-53.53027zm63.75673 109.99105 32.71967-56.46079-32.71967-56.46079h-65.45961l-32.72981 56.46079 32.72981 56.46079z"/><path d="m1059.80769 1373.11389h-62.050329l-31.027698-53.53027 31.027698-53.53026h62.050329l31.02668 53.53026zm1.70287-109.99106h-65.453027l-32.726513 56.46079 32.726513 56.46079h65.453027l32.72955-56.46079z"/><path d="m1100.69223 1086.17827h62.05385l31.02692 53.53027-31.02692 53.52012h-62.05385l-31.02692-53.52012zm63.75673 109.99106 32.71967-56.46079-32.71967-56.4608h-65.45961l-32.72981 56.4608 32.72981 56.46079z"/><path d="m1203.62075 1146.13663h62.05385l31.02693 53.53027-31.02693 53.53026h-62.05385l-31.02692-53.53026zm63.7466 109.99106 32.7298-56.46079-32.7298-56.46079h-65.44948l-32.72981 56.46079 32.72981 56.46079z"/><path d="m1368.59299 1313.15553h-62.05385l-31.02693-53.53027 31.02693-53.53026h62.05385l31.02692 53.53026zm-63.75673-109.99106-32.71967 56.46079 32.71967 56.46079h65.45961l32.72981-56.46079-32.72981-56.46079z"/><path d="m1265.6746 1373.11389h-62.05385l-31.02692-53.53027 31.02692-53.53026h62.05385l31.02693 53.53026zm1.69275-109.99106h-65.44948l-32.72981 56.46079 32.72981 56.46079h65.44948l32.7298-56.46079z"/><path d="m1368.59299 1193.22866h-62.05385l-31.02693-53.52012 31.02693-53.53027h62.05385l31.02692 53.53027zm-63.75673-109.98092-32.71967 56.4608 32.71967 56.46079h65.45961l32.72981-56.46079-32.72981-56.4608z"/><path d="m1374.0458 1199.6669 32.98221 56.46079h32.97199v-2.93053h-31.26619l-31.26619-53.53026 31.26619-53.53027h31.26619v-2.93052h-32.97199z"/><path d="m1374.0458 1319.58362 32.98221 56.46079h32.97199v-2.93052h-31.26619l-31.26619-53.53027 31.26619-53.53026h31.26619v-2.93053h-32.97199z"/><path d="m133.457073 1433.07225h-62.0543814l-31.0266841-53.53027 31.0266841-53.53026h62.0543814l31.026684 53.53026zm-63.7552235-109.99106-32.7275261 56.46079 32.7275261 56.4608h65.4540385l32.727526-56.4608-32.727526-56.46079z"/><path d="m0 1383.03956v2.95646h31.2647924l31.263771 54.00398h3.4256351l-32.9765886-56.96044z"/><path d="m238.08441 1383.03956 32.723472 56.96044h.004054l-32.727526-56.96044h-65.454039l-32.727526 56.96044h.001014l32.726512-56.96044z"/><path d="m268.312172 1439.50035h.002998z"/><path d="m143.398418 1439.50035h.003997z"/><path d="m339.31209 1433.07225h-62.054382l-31.026684-53.53027 31.026684-53.53026h62.054382l31.026684 53.53026zm-63.753197-109.99106-32.727526 56.46079 32.727526 56.4608h65.454039l32.727526-56.4608-32.727526-56.46079z"/><path d="m238.08441 1383.03956h-65.454039l-32.726512 56.96044h-.001014 3.402698l31.023643-54.00398h62.054382l31.024657 54.00398h3.403711-.004054z"/><path d="m545.170894 1433.07225h-62.055876l-31.026924-53.53027 31.026924-53.53026h62.055876l31.026924 53.53026zm-63.755717-109.99106-32.726766 56.46079 32.726766 56.4608h65.456572l32.725753-56.4608-32.725753-56.46079z"/><path d="m378.485895 1383.03956-32.726006 56.96044h3.39971l31.027164-54.00398h62.056356l31.026151 54.00398h3.39971l-32.726006-56.96044z"/><path d="m751.028952 1433.07225h-62.055876l-31.026925-53.53027 31.026925-53.53026h62.055876l31.02591 53.53026zm-63.755718-109.99106-32.727779 56.46079 32.727779 56.4608h65.453532l32.727779-56.4608-32.727779-56.46079z"/><path d="m584.343445 1383.03956-32.726512 56.96044h3.40067l31.026684-54.00398h62.055396l31.026684 54.00398h3.399657l-32.727527-56.96044z"/><path d="m956.883221 1433.07225h-62.053368l-31.026684-53.53027 31.026684-53.53026h62.053368l31.027698 53.53026zm-63.753197-109.99106-32.727526 56.46079 32.727526 56.4608h65.454039l32.727526-56.4608-32.727526-56.46079z"/><path d="m790.201249 1383.03956-32.727273 56.96044h3.401658l31.026444-54.00398h62.052888l31.02543 54.00398h3.402671l-32.727272-56.96044z"/><path d="m1162.74608 1433.07225h-62.05385l-31.02692-53.53027 31.02692-53.53026h62.05385l31.02692 53.53026zm-63.75673-109.99106-32.72981 56.46079 32.72981 56.4608h65.45961l32.71967-56.4608-32.71967-56.46079z"/><path d="m996.057533 1383.03956-32.726513 56.96044h3.398643l31.027698-54.00398h62.050329l31.02668 54.00398h3.40574l-32.72955-56.96044z"/><path d="m1368.59299 1433.07225h-62.05385l-31.02693-53.53027 31.02693-53.53026h62.05385l31.02692 53.53026zm-63.75673-109.99106-32.71967 56.46079 32.71967 56.4608h65.45961l32.72981-56.4608-32.72981-56.46079z"/><path d="m1201.91787 1383.03956-32.72981 56.96044h3.40577l31.02692-54.00398h62.05385l31.02693 54.00398h3.39562l-32.7298-56.96044z"/><path d="m1408.73381 1385.99602h31.26619v-2.95646h-32.97199l-32.98221 56.96044h3.42182z"/></g></svg>