<?xml version="1.0" encoding="utf-8"?>
<!-- Generator: Adobe Illustrator 23.0.2, SVG Export Plug-In . SVG Version: 6.00 Build 0)  -->
<svg version="1.1" id="Layer_1" xmlns="http://www.w3.org/2000/svg" xmlns:xlink="http://www.w3.org/1999/xlink" x="0px" y="0px"
	 viewBox="0 0 1439 1440" style="enable-background:new 0 0 1439 1440;" xml:space="preserve">
<style type="text/css">
	.st0{opacity:1.000000e-02;}
	.st1{fill-rule:evenodd;clip-rule:evenodd;fill:#FFFFFF;}
</style>
<g transform="translate(-1)" class="st0">
	<path class="st1" d="M66,0l-3.4,0L31.3,54H0v3h33L66,0z"/>
	<path class="st1" d="M174.1,54h62.5l31.2-54l0,0l-31.2,54L174.1,54L142.9,0h0L174.1,54z"/>
	<path class="st1" d="M71.4,5.9h62.1l31,53.5l-31,53.5H71.4l-31-53.5L71.4,5.9z M135.2,115.9l32.7-56.5L135.2,3H69.7L37,59.5
		l32.7,56.5H135.2z"/>
	<path class="st1" d="M66,119.4L33,63H0v2.9h31.3l31.3,53.5l-31.3,53.5H0v2.9h33L66,119.4z"/>
	<path class="st1" d="M236.6,173.9l31.2-54l0,0L236.6,173.9l-62.5,0l-31.2-54l0,0l31.2,54H236.6z"/>
	<path class="st1" d="M139.9,119.9l32.7-57h65.5l32.7,57l0,0l-32.7-57h-65.5L139.9,119.9L139.9,119.9z"/>
	<path class="st1" d="M172.6,57h65.5l32.7-57l-3.4,0l-31,54h-62.1l-31-54l-3.4,0L172.6,57z"/>
	<path class="st1" d="M277.3,5.9h62.1l31,53.5l-31,53.5h-62.1l-31-53.5L277.3,5.9z M341,115.9l32.7-56.5L341,3h-65.5l-32.7,56.5
		l32.7,56.5H341z"/>
	<path class="st1" d="M143.3,119.4l31-53.5h62.1l31,53.5l0,0l-31,53.5h-62.1L143.3,119.4L143.3,119.4z M172.6,63l-32.7,56.5l0,0
		l32.7,56.5h65.5l32.7-56.5l0,0L238.1,63H172.6z"/>
	<path class="st1" d="M378.5,57h65.5l32.7-57l-3.4,0l-31,54h-62.1l-31-54l-3.4,0L378.5,57z"/>
	<path class="st1" d="M483.1,5.9h62.1l31,53.5l-31,53.5h-62.1l-31-53.5L483.1,5.9z M546.9,115.9l32.7-56.5L546.9,3h-65.5l-32.7,56.5
		l32.7,56.5H546.9z"/>
	<path class="st1" d="M380.2,65.9h62.1l31,53.5l-31,53.5h-62.1l-31-53.5L380.2,65.9z M378.5,175.9h65.5l32.7-56.5L443.9,63h-65.5
		l-32.7,56.5L378.5,175.9z"/>
	<path class="st1" d="M584.3,57h65.5l32.7-57l-3.4,0l-31,54H586L555,0l-3.4,0L584.3,57z"/>
	<path class="st1" d="M689,5.9H751l31,53.5L751,113H689l-31-53.5L689,5.9z M752.7,115.9l32.7-56.5L752.7,3h-65.5l-32.7,56.5
		l32.7,56.5H752.7z"/>
	<path class="st1" d="M586,65.9h62.1l31,53.5l-31,53.5H586l-31-53.5L586,65.9z M584.3,175.9h65.5l32.7-56.5L649.8,63h-65.5
		l-32.7,56.5L584.3,175.9z"/>
	<path class="st1" d="M790.2,57h65.5l32.7-57L885,0l-31,54h-62.1l-31-54l-3.4,0L790.2,57z"/>
	<path class="st1" d="M894.8,5.9h62.1l31,53.5l-31,53.5h-62.1l-31-53.5L894.8,5.9z M958.6,115.9l32.7-56.5L958.6,3h-65.5l-32.7,56.5
		l32.7,56.5H958.6z"/>
	<path class="st1" d="M791.9,65.9H854l31,53.5l-31,53.5h-62.1l-31-53.5L791.9,65.9z M790.2,175.9h65.5l32.7-56.5L855.7,63h-65.5
		l-32.7,56.5L790.2,175.9z"/>
	<path class="st1" d="M996.1,57h65.5l32.7-57l-3.4,0l-31,54h-62.1l-31-54l-3.4,0L996.1,57z"/>
	<path class="st1" d="M1100.7,5.9h62.1l31,53.5l-31,53.5h-62.1l-31-53.5L1100.7,5.9z M1164.4,115.9l32.7-56.5L1164.4,3H1099
		l-32.7,56.5l32.7,56.5H1164.4z"/>
	<path class="st1" d="M997.8,65.9h62.1l31,53.5l-31,53.5h-62.1l-31-53.5L997.8,65.9z M996.1,175.9h65.5l32.7-56.5L1061.5,63h-65.5
		l-32.7,56.5L996.1,175.9z"/>
	<path class="st1" d="M1201.9,57h65.4l32.7-57l-3.4,0l-31,54h-62.1l-31-54l-3.4,0L1201.9,57z"/>
	<path class="st1" d="M1306.5,5.9h62.1l31,53.5l-31,53.5h-62.1l-31-53.5L1306.5,5.9z M1370.3,115.9l32.7-56.5L1370.3,3h-65.5
		l-32.7,56.5l32.7,56.5H1370.3z"/>
	<path class="st1" d="M1203.6,65.9h62.1l31,53.5l-31,53.5h-62.1l-31-53.5L1203.6,65.9z M1201.9,175.9h65.4l32.7-56.5L1267.4,63
		h-65.4l-32.7,56.5L1201.9,175.9z"/>
	<path class="st1" d="M1407,57h33v-3h-31.3l-31.3-54l-3.4,0L1407,57z"/>
	<path class="st1" d="M1374,119.4l33,56.5h33v-2.9h-31.3l-31.3-53.5l31.3-53.5h31.3V63h-33L1374,119.4z"/>
	<path class="st1" d="M66,239.3l-33-56.5H0v2.9h31.3l31.3,53.5l-31.3,53.5H0v2.9h33L66,239.3z"/>
	<path class="st1" d="M238.1,182.9l32.7,57l0,0L238.1,182.9l-65.5,0l-32.7,57l0,0l32.7-57H238.1z"/>
	<path class="st1" d="M236.6,293.8l31.2-54l0,0L236.6,293.8l-62.5,0l-31.2-54l0,0l31.2,54H236.6z"/>
	<path class="st1" d="M71.4,245.8h62.1l31,53.5l-31,53.5H71.4l-31-53.5L71.4,245.8z M135.2,355.8l32.7-56.5l-32.7-56.5H69.7
		L37,299.3l32.7,56.5H135.2z"/>
	<path class="st1" d="M66,360.3l-33-56.5H0v2.9h31.3l31.3,53.5l-31.3,53.5H0v2.9h33L66,360.3z"/>
	<path class="st1" d="M236.6,413.7l31.2-54l0,0L236.6,413.7l-62.5,0l-31.2-54l0,0l31.2,54H236.6z"/>
	<path class="st1" d="M238.1,302.8l32.7,57l0,0L238.1,302.8l-65.5,0l-32.7,57l0,0l32.7-57H238.1z"/>
	<path class="st1" d="M71.4,125.8h62.1l31,53.5l-31,53.5H71.4l-31-53.5L71.4,125.8z M135.2,235.8l32.7-56.5l-32.7-56.5H69.7
		L37,179.4l32.7,56.5H135.2z"/>
	<path class="st1" d="M143.3,239.3l31-53.5h62.1l31,53.5l0,0l-31,53.5h-62.1L143.3,239.3L143.3,239.3z M172.6,295.8h65.5l32.7-56.5
		l0,0l-32.7-56.5h-65.5l-32.7,56.5l0,0L172.6,295.8z"/>
	<path class="st1" d="M339.3,352.8h-62.1l-31-53.5l31-53.5h62.1l31,53.5L339.3,352.8z M275.6,242.8l-32.7,56.5l32.7,56.5H341
		l32.7-56.5L341,242.8H275.6z"/>
	<path class="st1" d="M143.3,360.2l31-53.5h62.1l31,53.5l0,0l-31,53.5h-62.1L143.3,360.2L143.3,360.2z M172.6,416.7h65.5l32.7-56.5
		l0,0l-32.7-56.5h-65.5l-32.7,56.5l0,0L172.6,416.7z"/>
	<path class="st1" d="M339.3,232.9h-62.1l-31-53.5l31-53.5h62.1l31,53.5L339.3,232.9z M275.6,122.9l-32.7,56.5l32.7,56.5H341
		l32.7-56.5L341,122.9L275.6,122.9z"/>
	<path class="st1" d="M442.2,292.9h-62.1l-31-53.5l31-53.5h62.1l31,53.5L442.2,292.9z M378.5,182.9l-32.7,56.5l32.7,56.5h65.5
		l32.7-56.5l-32.7-56.5L378.5,182.9z"/>
	<path class="st1" d="M545.2,352.8h-62.1l-31-53.5l31-53.5h62.1l31,53.5L545.2,352.8z M481.4,242.8l-32.7,56.5l32.7,56.5h65.5
		l32.7-56.5l-32.7-56.5H481.4z"/>
	<path class="st1" d="M442.2,413.8h-62.1l-31-53.5l31-53.5h62.1l31,53.5L442.2,413.8z M378.5,303.8l-32.7,56.5l32.7,56.5h65.5
		l32.7-56.5l-32.7-56.5H378.5z"/>
	<path class="st1" d="M545.2,232.9h-62.1l-31-53.5l31-53.5h62.1l31,53.5L545.2,232.9z M481.4,122.9l-32.7,56.5l32.7,56.5h65.5
		l32.7-56.5l-32.7-56.5L481.4,122.9z"/>
	<path class="st1" d="M648.1,292.9H586l-31-53.5l31-53.5h62.1l31,53.5L648.1,292.9z M584.3,182.9l-32.7,56.5l32.7,56.5h65.5
		l32.7-56.5l-32.7-56.5L584.3,182.9z"/>
	<path class="st1" d="M751,352.8H689l-31-53.5l31-53.5H751l31,53.5L751,352.8z M687.3,242.8l-32.7,56.5l32.7,56.5h65.5l32.7-56.5
		l-32.7-56.5H687.3z"/>
	<path class="st1" d="M648.1,413.8H586l-31-53.5l31-53.5h62.1l31,53.5L648.1,413.8z M584.3,303.8l-32.7,56.5l32.7,56.5h65.5
		l32.7-56.5l-32.7-56.5H584.3z"/>
	<path class="st1" d="M751,232.9H689l-31-53.5l31-53.5H751l31,53.5L751,232.9z M687.3,122.9l-32.7,56.5l32.7,56.5h65.5l32.7-56.5
		l-32.7-56.5L687.3,122.9z"/>
	<path class="st1" d="M854,292.9h-62.1l-31-53.5l31-53.5H854l31,53.5L854,292.9z M790.2,182.9l-32.7,56.5l32.7,56.5h65.5l32.7-56.5
		l-32.7-56.5L790.2,182.9z"/>
	<path class="st1" d="M956.9,352.8h-62.1l-31-53.5l31-53.5h62.1l31,53.5L956.9,352.8z M893.1,242.8l-32.7,56.5l32.7,56.5h65.5
		l32.7-56.5l-32.7-56.5H893.1z"/>
	<path class="st1" d="M854,413.8h-62.1l-31-53.5l31-53.5H854l31,53.5L854,413.8z M790.2,303.8l-32.7,56.5l32.7,56.5h65.5l32.7-56.5
		l-32.7-56.5H790.2z"/>
	<path class="st1" d="M956.9,232.9h-62.1l-31-53.5l31-53.5h62.1l31,53.5L956.9,232.9z M893.1,122.9l-32.7,56.5l32.7,56.5h65.5
		l32.7-56.5l-32.7-56.5L893.1,122.9z"/>
	<path class="st1" d="M1059.8,292.9h-62.1l-31-53.5l31-53.5h62.1l31,53.5L1059.8,292.9z M996.1,182.9l-32.7,56.5l32.7,56.5h65.5
		l32.7-56.5l-32.7-56.5L996.1,182.9z"/>
	<path class="st1" d="M1162.7,352.8h-62.1l-31-53.5l31-53.5h62.1l31,53.5L1162.7,352.8z M1164.4,242.8H1099l-32.7,56.5l32.7,56.5
		h65.5l32.7-56.5L1164.4,242.8z"/>
	<path class="st1" d="M1059.8,413.8h-62.1l-31-53.5l31-53.5h62.1l31,53.5L1059.8,413.8z M996.1,303.8l-32.7,56.5l32.7,56.5h65.5
		l32.7-56.5l-32.7-56.5H996.1z"/>
	<path class="st1" d="M1162.7,232.9h-62.1l-31-53.5l31-53.5h62.1l31,53.5L1162.7,232.9z M1099,122.9l-32.7,56.5l32.7,56.5h65.5
		l32.7-56.5l-32.7-56.5L1099,122.9z"/>
	<path class="st1" d="M1265.7,292.9h-62.1l-31-53.5l31-53.5h62.1l31,53.5L1265.7,292.9z M1267.4,182.9h-65.4l-32.7,56.5l32.7,56.5
		h65.4l32.7-56.5L1267.4,182.9z"/>
	<path class="st1" d="M1368.6,352.8h-62.1l-31-53.5l31-53.5h62.1l31,53.5L1368.6,352.8z M1304.8,242.8l-32.7,56.5l32.7,56.5h65.5
		l32.7-56.5l-32.7-56.5H1304.8z"/>
	<path class="st1" d="M1265.7,413.8h-62.1l-31-53.5l31-53.5h62.1l31,53.5L1265.7,413.8z M1267.4,303.8h-65.4l-32.7,56.5l32.7,56.5
		h65.4l32.7-56.5L1267.4,303.8z"/>
	<path class="st1" d="M1368.6,232.9h-62.1l-31-53.5l31-53.5h62.1l31,53.5L1368.6,232.9z M1304.8,122.9l-32.7,56.5l32.7,56.5h65.5
		l32.7-56.5l-32.7-56.5L1304.8,122.9z"/>
	<path class="st1" d="M1374,239.3l33,56.5h33v-2.9h-31.3l-31.3-53.5l31.3-53.5h31.3v-2.9h-33L1374,239.3z"/>
	<path class="st1" d="M1374,360.3l33,56.5h33v-2.9h-31.3l-31.3-53.5l31.3-53.5h31.3v-2.9h-33L1374,360.3z"/>
	<path class="st1" d="M66,480.2l-33-56.5H0v2.9h31.3l31.3,53.5l-31.3,53.5H0v2.9h33L66,480.2z"/>
	<path class="st1" d="M238.1,422.7l32.7,57l0,0L238.1,422.7l-65.5,0l-32.7,57l0,0l32.7-57H238.1z"/>
	<path class="st1" d="M236.6,533.6l31.2-54l0,0L236.6,533.6l-62.5,0l-31.2-54l0,0l31.2,54H236.6z"/>
	<path class="st1" d="M71.4,486.6h62.1l31,53.5l-31,53.5H71.4l-31-53.5L71.4,486.6z M135.2,596.6l32.7-56.5l-32.7-56.5H69.7
		L37,540.1l32.7,56.5H135.2z"/>
	<path class="st1" d="M66,600.1l-33-56.5H0v2.9h31.3l31.3,53.5l-31.3,53.5H0v2.9h33L66,600.1z"/>
	<path class="st1" d="M238.1,542.6l32.7,57l0,0L238.1,542.6l-65.5,0l-32.7,57l0,0l32.7-57H238.1z"/>
	<path class="st1" d="M236.6,653.5l31.2-54l0,0L236.6,653.5l-62.5,0l-31.2-54l0,0l31.2,54H236.6z"/>
	<path class="st1" d="M71.4,366.7h62.1l31,53.5l-31,53.5H71.4l-31-53.5L71.4,366.7z M135.2,476.7l32.7-56.5l-32.7-56.5H69.7
		L37,420.2l32.7,56.5H135.2z"/>
	<path class="st1" d="M143.3,480.2l31-53.5h62.1l31,53.5l0,0l-31,53.5h-62.1L143.3,480.2L143.3,480.2z M172.6,536.6h65.5l32.7-56.5
		l0,0l-32.7-56.5h-65.5l-32.7,56.5l0,0L172.6,536.6z"/>
	<path class="st1" d="M277.3,486.6h62.1l31,53.5l-31,53.5h-62.1l-31-53.5L277.3,486.6z M275.6,596.6H341l32.7-56.5L341,483.7h-65.5
		l-32.7,56.5L275.6,596.6z"/>
	<path class="st1" d="M143.3,600.1l31-53.5h62.1l31,53.5l0,0l-31,53.5h-62.1L143.3,600.1L143.3,600.1z M172.6,656.5h65.5l32.7-56.5
		l0,0l-32.7-56.5h-65.5l-32.7,56.5l0,0L172.6,656.5z"/>
	<path class="st1" d="M277.3,366.7h62.1l31,53.5l-31,53.5h-62.1l-31-53.5L277.3,366.7z M275.6,476.7H341l32.7-56.5L341,363.7h-65.5
		l-32.7,56.5L275.6,476.7z"/>
	<path class="st1" d="M442.2,533.7h-62.1l-31-53.5l31-53.5h62.1l31,53.5L442.2,533.7z M378.5,423.7l-32.7,56.5l32.7,56.5h65.5
		l32.7-56.5l-32.7-56.5H378.5z"/>
	<path class="st1" d="M545.2,593.7h-62.1l-31-53.5l31-53.5h62.1l31,53.5L545.2,593.7z M481.4,483.7l-32.7,56.5l32.7,56.5h65.5
		l32.7-56.5l-32.7-56.5H481.4z"/>
	<path class="st1" d="M380.2,546.6h62.1l31,53.5l-31,53.5h-62.1l-31-53.5L380.2,546.6z M378.5,656.5h65.5l32.7-56.5l-32.7-56.5
		h-65.5l-32.7,56.5L378.5,656.5z"/>
	<path class="st1" d="M545.2,473.7h-62.1l-31-53.5l31-53.5h62.1l31,53.5L545.2,473.7z M481.4,363.7l-32.7,56.5l32.7,56.5h65.5
		l32.7-56.5l-32.7-56.5H481.4z"/>
	<path class="st1" d="M648.1,533.7H586l-31-53.5l31-53.5h62.1l31,53.5L648.1,533.7z M584.3,423.7l-32.7,56.5l32.7,56.5h65.5
		l32.7-56.5l-32.7-56.5H584.3z"/>
	<path class="st1" d="M751,593.7H689l-31-53.5l31-53.5H751l31,53.5L751,593.7z M687.3,483.7l-32.7,56.5l32.7,56.5h65.5l32.7-56.5
		l-32.7-56.5H687.3z"/>
	<path class="st1" d="M648.1,653.6H586l-31-53.5l31-53.5h62.1l31,53.5L648.1,653.6z M584.3,543.6l-32.7,56.5l32.7,56.5h65.5
		l32.7-56.5l-32.7-56.5H584.3z"/>
	<path class="st1" d="M751,473.7H689l-31-53.5l31-53.5H751l31,53.5L751,473.7z M687.3,363.7l-32.7,56.5l32.7,56.5h65.5l32.7-56.5
		l-32.7-56.5H687.3z"/>
	<path class="st1" d="M854,533.7h-62.1l-31-53.5l31-53.5H854l31,53.5L854,533.7z M790.2,423.7l-32.7,56.5l32.7,56.5h65.5l32.7-56.5
		l-32.7-56.5H790.2z"/>
	<path class="st1" d="M956.9,593.7h-62.1l-31-53.5l31-53.5h62.1l31,53.5L956.9,593.7z M958.6,483.7h-65.5l-32.7,56.5l32.7,56.5h65.5
		l32.7-56.5L958.6,483.7z"/>
	<path class="st1" d="M854,653.6h-62.1l-31-53.5l31-53.5H854l31,53.5L854,653.6z M790.2,543.6l-32.7,56.5l32.7,56.5h65.5l32.7-56.5
		l-32.7-56.5H790.2z"/>
	<path class="st1" d="M956.9,473.7h-62.1l-31-53.5l31-53.5h62.1l31,53.5L956.9,473.7z M893.1,363.7l-32.7,56.5l32.7,56.5h65.5
		l32.7-56.5l-32.7-56.5H893.1z"/>
	<path class="st1" d="M1059.8,533.7h-62.1l-31-53.5l31-53.5h62.1l31,53.5L1059.8,533.7z M1061.5,423.7h-65.5l-32.7,56.5l32.7,56.5
		h65.5l32.7-56.5L1061.5,423.7z"/>
	<path class="st1" d="M1162.7,593.7h-62.1l-31-53.5l31-53.5h62.1l31,53.5L1162.7,593.7z M1164.4,483.7H1099l-32.7,56.5l32.7,56.5
		h65.5l32.7-56.5L1164.4,483.7z"/>
	<path class="st1" d="M1059.8,653.6h-62.1l-31-53.5l31-53.5h62.1l31,53.5L1059.8,653.6z M1061.5,543.6h-65.5l-32.7,56.5l32.7,56.5
		h65.5l32.7-56.5L1061.5,543.6z"/>
	<path class="st1" d="M1162.7,473.7h-62.1l-31-53.5l31-53.5h62.1l31,53.5L1162.7,473.7z M1164.4,363.7H1099l-32.7,56.5l32.7,56.5
		h65.5l32.7-56.5L1164.4,363.7z"/>
	<path class="st1" d="M1265.7,533.7h-62.1l-31-53.5l31-53.5h62.1l31,53.5L1265.7,533.7z M1267.4,423.7h-65.4l-32.7,56.5l32.7,56.5
		h65.4l32.7-56.5L1267.4,423.7z"/>
	<path class="st1" d="M1368.6,593.7h-62.1l-31-53.5l31-53.5h62.1l31,53.5L1368.6,593.7z M1304.8,483.7l-32.7,56.5l32.7,56.5h65.5
		l32.7-56.5l-32.7-56.5H1304.8z"/>
	<path class="st1" d="M1265.7,653.6h-62.1l-31-53.5l31-53.5h62.1l31,53.5L1265.7,653.6z M1267.4,543.6h-65.4l-32.7,56.5l32.7,56.5
		h65.4l32.7-56.5L1267.4,543.6z"/>
	<path class="st1" d="M1368.6,473.7h-62.1l-31-53.5l31-53.5h62.1l31,53.5L1368.6,473.7z M1304.8,363.7l-32.7,56.5l32.7,56.5h65.5
		l32.7-56.5l-32.7-56.5H1304.8z"/>
	<path class="st1" d="M1374,480.2l33,56.5h33v-2.9h-31.3l-31.3-53.5l31.3-53.5h31.3v-2.9h-33L1374,480.2z"/>
	<path class="st1" d="M1374,600.1l33,56.5h33v-2.9h-31.3l-31.3-53.5l31.3-53.5h31.3v-2.9h-33L1374,600.1z"/>
	<path class="st1" d="M66,720l-33-56.5H0v2.9h31.3L62.5,720l-31.3,53.5H0v2.9h33L66,720z"/>
	<path class="st1" d="M236.6,773.5l31.2-54l0,0L236.6,773.5l-62.5,0l-31.2-54l0,0l31.2,54H236.6z"/>
	<path class="st1" d="M238.1,663.5l32.7,57l0,0L238.1,663.5l-65.5,0l-32.7,57l0,0l32.7-57H238.1z"/>
	<path class="st1" d="M71.4,726.4h62.1l31,53.5l-31,53.5H71.4l-31-53.5L71.4,726.4z M135.2,836.4l32.7-56.5l-32.7-56.5H69.7L37,780
		l32.7,56.5H135.2z"/>
	<path class="st1" d="M66,839.9l-33-56.5H0v2.9h31.3l31.3,53.5l-31.3,53.5H0v2.9h33L66,839.9z"/>
	<path class="st1" d="M238.1,783.5l32.7,57l0,0L238.1,783.5l-65.5,0l-32.7,57l0,0l32.7-57H238.1z"/>
	<path class="st1" d="M236.6,893.4l31.2-54l0,0L236.6,893.4l-62.5,0l-31.2-54l0,0l31.2,54H236.6z"/>
	<path class="st1" d="M71.4,606.5h62.1l31,53.5l-31,53.5H71.4l-31-53.5L71.4,606.5z M135.2,716.5l32.7-56.5l-32.7-56.5H69.7L37,660
		l32.7,56.5H135.2z"/>
	<path class="st1" d="M143.3,720l31-53.5h62.1l31,53.5l0,0l-31,53.5h-62.1L143.3,720L143.3,720z M172.6,776.5h65.5l32.7-56.5l0,0
		l-32.7-56.5h-65.5L139.9,720l0,0L172.6,776.5z"/>
	<path class="st1" d="M277.3,726.4h62.1l31,53.5l-31,53.5h-62.1l-31-53.5L277.3,726.4z M275.6,836.4H341l32.7-56.5L341,723.5h-65.5
		L242.8,780L275.6,836.4z"/>
	<path class="st1" d="M143.3,839.9l31-53.5h62.1l31,53.5l0,0l-31,53.5h-62.1L143.3,839.9L143.3,839.9z M172.6,896.4h65.5l32.7-56.5
		l0,0l-32.7-56.5h-65.5l-32.7,56.5l0,0L172.6,896.4z"/>
	<path class="st1" d="M277.3,606.5h62.1l31,53.5l-31,53.5h-62.1l-31-53.5L277.3,606.5z M275.6,716.5H341l32.7-56.5L341,603.6h-65.5
		L242.8,660L275.6,716.5z"/>
	<path class="st1" d="M380.2,666.5h62.1l31,53.5l-31,53.5h-62.1l-31-53.5L380.2,666.5z M378.5,776.5h65.5l32.7-56.5l-32.7-56.5
		h-65.5L345.8,720L378.5,776.5z"/>
	<path class="st1" d="M483.1,726.4h62.1l31,53.5l-31,53.5h-62.1l-31-53.5L483.1,726.4z M481.4,836.4h65.5l32.7-56.5l-32.7-56.5
		h-65.5L448.7,780L481.4,836.4z"/>
	<path class="st1" d="M380.2,786.4h62.1l31,53.5l-31,53.5h-62.1l-31-53.5L380.2,786.4z M378.5,896.4h65.5l32.7-56.5l-32.7-56.5
		h-65.5l-32.7,56.5L378.5,896.4z"/>
	<path class="st1" d="M483.1,606.5h62.1l31,53.5l-31,53.5h-62.1l-31-53.5L483.1,606.5z M481.4,716.5h65.5l32.7-56.5l-32.7-56.5
		h-65.5L448.7,660L481.4,716.5z"/>
	<path class="st1" d="M648.1,773.5H586L555,720l31-53.5h62.1l31,53.5L648.1,773.5z M584.3,663.5L551.6,720l32.7,56.5h65.5l32.7-56.5
		l-32.7-56.5H584.3z"/>
	<path class="st1" d="M689,726.4H751l31,53.5l-31,53.5H689l-31-53.5L689,726.4z M752.7,836.4l32.7-56.5l-32.7-56.5h-65.5L654.5,780
		l32.7,56.5H752.7z"/>
	<path class="st1" d="M586,786.4h62.1l31,53.5l-31,53.5H586l-31-53.5L586,786.4z M649.8,896.4l32.7-56.5l-32.7-56.5h-65.5
		l-32.7,56.5l32.7,56.5H649.8z"/>
	<path class="st1" d="M689,606.5H751l31,53.5l-31,53.5H689l-31-53.5L689,606.5z M752.7,716.5l32.7-56.5l-32.7-56.5h-65.5L654.5,660
		l32.7,56.5H752.7z"/>
	<path class="st1" d="M791.9,666.5H854l31,53.5l-31,53.5h-62.1l-31-53.5L791.9,666.5z M855.7,776.5l32.7-56.5l-32.7-56.5h-65.5
		L757.5,720l32.7,56.5H855.7z"/>
	<path class="st1" d="M894.8,726.4h62.1l31,53.5l-31,53.5h-62.1l-31-53.5L894.8,726.4z M958.6,836.4l32.7-56.5l-32.7-56.5h-65.5
		L860.4,780l32.7,56.5H958.6z"/>
	<path class="st1" d="M791.9,786.4H854l31,53.5l-31,53.5h-62.1l-31-53.5L791.9,786.4z M855.7,896.4l32.7-56.5l-32.7-56.5h-65.5
		l-32.7,56.5l32.7,56.5H855.7z"/>
	<path class="st1" d="M956.9,713.6h-62.1l-31-53.5l31-53.5h62.1l31,53.5L956.9,713.6z M958.6,603.6h-65.5L860.4,660l32.7,56.5h65.5
		l32.7-56.5L958.6,603.6z"/>
	<path class="st1" d="M1059.8,773.5h-62.1l-31-53.5l31-53.5h62.1l31,53.5L1059.8,773.5z M1061.5,663.5h-65.5L963.3,720l32.7,56.5
		h65.5l32.7-56.5L1061.5,663.5z"/>
	<path class="st1" d="M1162.7,833.5h-62.1l-31-53.5l31-53.5h62.1l31,53.5L1162.7,833.5z M1164.4,723.5H1099l-32.7,56.5l32.7,56.5
		h65.5l32.7-56.5L1164.4,723.5z"/>
	<path class="st1" d="M997.8,786.4h62.1l31,53.5l-31,53.5h-62.1l-31-53.5L997.8,786.4z M1061.5,896.4l32.7-56.5l-32.7-56.5h-65.5
		l-32.7,56.5l32.7,56.5H1061.5z"/>
	<path class="st1" d="M1162.7,713.6h-62.1l-31-53.5l31-53.5h62.1l31,53.5L1162.7,713.6z M1164.4,603.6H1099l-32.7,56.5l32.7,56.5
		h65.5l32.7-56.5L1164.4,603.6z"/>
	<path class="st1" d="M1265.7,773.5h-62.1l-31-53.5l31-53.5h62.1l31,53.5L1265.7,773.5z M1267.4,663.5h-65.4l-32.7,56.5l32.7,56.5
		h65.4l32.7-56.5L1267.4,663.5z"/>
	<path class="st1" d="M1368.6,833.5h-62.1l-31-53.5l31-53.5h62.1l31,53.5L1368.6,833.5z M1304.8,723.5l-32.7,56.5l32.7,56.5h65.5
		L1403,780l-32.7-56.5H1304.8z"/>
	<path class="st1" d="M1265.7,893.4h-62.1l-31-53.5l31-53.5h62.1l31,53.5L1265.7,893.4z M1267.4,783.5h-65.4l-32.7,56.5l32.7,56.5
		h65.4l32.7-56.5L1267.4,783.5z"/>
	<path class="st1" d="M1368.6,713.6h-62.1l-31-53.5l31-53.5h62.1l31,53.5L1368.6,713.6z M1304.8,603.6l-32.7,56.5l32.7,56.5h65.5
		L1403,660l-32.7-56.5H1304.8z"/>
	<path class="st1" d="M1374,720l33,56.5h33v-2.9h-31.3l-31.3-53.5l31.3-53.5h31.3v-2.9h-33L1374,720z"/>
	<path class="st1" d="M1374,839.9l33,56.5h33v-2.9h-31.3l-31.3-53.5l31.3-53.5h31.3v-2.9h-33L1374,839.9z"/>
	<path class="st1" d="M66,959.8l-33-56.5H0v2.9h31.3l31.3,53.5l-31.3,53.5H0v2.9h33L66,959.8z"/>
	<path class="st1" d="M238.1,903.4l32.7,57l0,0L238.1,903.4l-65.5,0l-32.7,57l0,0l32.7-57H238.1z"/>
	<path class="st1" d="M236.6,1013.3l31.2-54l0,0L236.6,1013.3l-62.5,0l-31.2-54l0,0l31.2,54H236.6z"/>
	<path class="st1" d="M71.4,966.3h62.1l31,53.5l-31,53.5H71.4l-31-53.5L71.4,966.3z M135.2,1076.3l32.7-56.5l-32.7-56.5H69.7
		L37,1019.8l32.7,56.5L135.2,1076.3z"/>
	<path class="st1" d="M66,1079.8l-33-56.5H0v2.9h31.3l31.3,53.5l-31.3,53.5H0v2.9h33L66,1079.8z"/>
	<path class="st1" d="M236.6,1134.2l31.2-54h0L236.6,1134.2l-62.5,0l-31.2-54h0l31.2,54H236.6z"/>
	<path class="st1" d="M238.1,1023.3l32.7,57h0L238.1,1023.3l-65.5,0l-32.7,57h0l32.7-57L238.1,1023.3z"/>
	<path class="st1" d="M71.4,846.3h62.1l31,53.5l-31,53.5H71.4l-31-53.5L71.4,846.3z M135.2,956.3l32.7-56.5l-32.7-56.5H69.7
		L37,899.9l32.7,56.5H135.2z"/>
	<path class="st1" d="M143.3,959.8l31-53.5h62.1l31,53.5l0,0l-31,53.5h-62.1L143.3,959.8L143.3,959.8z M172.6,1016.3h65.5l32.7-56.5
		l0,0l-32.7-56.5h-65.5l-32.7,56.5l0,0L172.6,1016.3z"/>
	<path class="st1" d="M277.3,966.3h62.1l31,53.5l-31,53.5h-62.1l-31-53.5L277.3,966.3z M275.6,1076.3H341l32.7-56.5L341,963.3h-65.5
		l-32.7,56.5L275.6,1076.3z"/>
	<path class="st1" d="M143.3,1079.8l31-53.5h62.1l31,53.5h0l-31,53.5h-62.1L143.3,1079.8L143.3,1079.8z M172.6,1136.2h65.5
		l32.7-56.5h0l-32.7-56.5h-65.5l-32.7,56.5h0L172.6,1136.2z"/>
	<path class="st1" d="M277.3,846.3h62.1l31,53.5l-31,53.5h-62.1l-31-53.5L277.3,846.3z M275.6,956.3H341l32.7-56.5L341,843.4h-65.5
		l-32.7,56.5L275.6,956.3z"/>
	<path class="st1" d="M380.2,906.3h62.1l31,53.5l-31,53.5h-62.1l-31-53.5L380.2,906.3z M378.5,1016.3h65.5l32.7-56.5l-32.7-56.5
		h-65.5l-32.7,56.5L378.5,1016.3z"/>
	<path class="st1" d="M483.1,966.3h62.1l31,53.5l-31,53.5h-62.1l-31-53.5L483.1,966.3z M546.9,1076.3l32.7-56.5l-32.7-56.5h-65.5
		l-32.7,56.5l32.7,56.5L546.9,1076.3z"/>
	<path class="st1" d="M380.2,1026.2h62.1l31,53.5l-31,53.5h-62.1l-31-53.5L380.2,1026.2z M443.9,1136.2l32.7-56.5l-32.7-56.5h-65.5
		l-32.7,56.5l32.7,56.5H443.9z"/>
	<path class="st1" d="M483.1,846.3h62.1l31,53.5l-31,53.5h-62.1l-31-53.5L483.1,846.3z M481.4,956.3h65.5l32.7-56.5l-32.7-56.5
		h-65.5l-32.7,56.5L481.4,956.3z"/>
	<path class="st1" d="M586,906.3h62.1l31,53.5l-31,53.5H586l-31-53.5L586,906.3z M649.8,1016.3l32.7-56.5l-32.7-56.5h-65.5
		l-32.7,56.5l32.7,56.5H649.8z"/>
	<path class="st1" d="M689,966.3H751l31,53.5l-31,53.5H689l-31-53.5L689,966.3z M752.7,1076.3l32.7-56.5l-32.7-56.5h-65.5
		l-32.7,56.5l32.7,56.5L752.7,1076.3z"/>
	<path class="st1" d="M586,1026.2h62.1l31,53.5l-31,53.5H586l-31-53.5L586,1026.2z M649.8,1136.2l32.7-56.5l-32.7-56.5h-65.5
		l-32.7,56.5l32.7,56.5H649.8z"/>
	<path class="st1" d="M689,846.3H751l31,53.5l-31,53.5H689l-31-53.5L689,846.3z M752.7,956.3l32.7-56.5l-32.7-56.5h-65.5l-32.7,56.5
		l32.7,56.5H752.7z"/>
	<path class="st1" d="M791.9,906.3H854l31,53.5l-31,53.5h-62.1l-31-53.5L791.9,906.3z M855.7,1016.3l32.7-56.5l-32.7-56.5h-65.5
		l-32.7,56.5l32.7,56.5H855.7z"/>
	<path class="st1" d="M894.8,966.3h62.1l31,53.5l-31,53.5h-62.1l-31-53.5L894.8,966.3z M958.6,1076.3l32.7-56.5l-32.7-56.5h-65.5
		l-32.7,56.5l32.7,56.5L958.6,1076.3z"/>
	<path class="st1" d="M791.9,1026.2H854l31,53.5l-31,53.5h-62.1l-31-53.5L791.9,1026.2z M855.7,1136.2l32.7-56.5l-32.7-56.5h-65.5
		l-32.7,56.5l32.7,56.5H855.7z"/>
	<path class="st1" d="M894.8,846.3h62.1l31,53.5l-31,53.5h-62.1l-31-53.5L894.8,846.3z M958.6,956.3l32.7-56.5l-32.7-56.5h-65.5
		l-32.7,56.5l32.7,56.5H958.6z"/>
	<path class="st1" d="M997.8,906.3h62.1l31,53.5l-31,53.5h-62.1l-31-53.5L997.8,906.3z M1061.5,1016.3l32.7-56.5l-32.7-56.5h-65.5
		l-32.7,56.5l32.7,56.5H1061.5z"/>
	<path class="st1" d="M1100.7,966.3h62.1l31,53.5l-31,53.5h-62.1l-31-53.5L1100.7,966.3z M1164.4,1076.3l32.7-56.5l-32.7-56.5H1099
		l-32.7,56.5l32.7,56.5L1164.4,1076.3z"/>
	<path class="st1" d="M997.8,1026.2h62.1l31,53.5l-31,53.5h-62.1l-31-53.5L997.8,1026.2z M1061.5,1136.2l32.7-56.5l-32.7-56.5h-65.5
		l-32.7,56.5l32.7,56.5H1061.5z"/>
	<path class="st1" d="M1162.7,953.4h-62.1l-31-53.5l31-53.5h62.1l31,53.5L1162.7,953.4z M1164.4,843.4H1099l-32.7,56.5l32.7,56.5
		h65.5l32.7-56.5L1164.4,843.4z"/>
	<path class="st1" d="M1265.7,1013.4h-62.1l-31-53.5l31-53.5h62.1l31,53.5L1265.7,1013.4z M1267.4,903.4h-65.4l-32.7,56.5l32.7,56.5
		h65.4l32.7-56.5L1267.4,903.4z"/>
	<path class="st1" d="M1368.6,1073.3h-62.1l-31-53.5l31-53.5h62.1l31,53.5L1368.6,1073.3z M1304.8,963.3l-32.7,56.5l32.7,56.5h65.5
		l32.7-56.5l-32.7-56.5L1304.8,963.3z"/>
	<path class="st1" d="M1203.6,1026.2h62.1l31,53.5l-31,53.5h-62.1l-31-53.5L1203.6,1026.2z M1267.4,1136.2l32.7-56.5l-32.7-56.5
		h-65.4l-32.7,56.5l32.7,56.5H1267.4z"/>
	<path class="st1" d="M1368.6,953.4h-62.1l-31-53.5l31-53.5h62.1l31,53.5L1368.6,953.4z M1304.8,843.4l-32.7,56.5l32.7,56.5h65.5
		l32.7-56.5l-32.7-56.5H1304.8z"/>
	<path class="st1" d="M1374,959.8l33,56.5h33v-2.9h-31.3l-31.3-53.5l31.3-53.5h31.3v-2.9h-33L1374,959.8z"/>
	<path class="st1" d="M1374,1079.8l33,56.5h33v-2.9h-31.3l-31.3-53.5l31.3-53.5h31.3v-2.9h-33L1374,1079.8z"/>
	<path class="st1" d="M66,1199.7l-33-56.5H0v2.9h31.3l31.3,53.5l-31.3,53.5H0v2.9h33L66,1199.7z"/>
	<path class="st1" d="M238.1,1143.2l32.7,57h0L238.1,1143.2h-65.5l-32.7,57h0l32.7-57H238.1z"/>
	<path class="st1" d="M236.6,1254.1l31.2-54h0L236.6,1254.1l-62.5,0l-31.2-54h0l31.2,54H236.6z"/>
	<path class="st1" d="M71.4,1206.1h62.1l31,53.5l-31,53.5H71.4l-31-53.5L71.4,1206.1z M135.2,1316.1l32.7-56.5l-32.7-56.5H69.7
		L37,1259.6l32.7,56.5H135.2z"/>
	<path class="st1" d="M66,1319.6l-33-56.5H0v2.9h31.3l31.3,53.5l-31.3,53.5H0v2.9h33L66,1319.6z"/>
	<path class="st1" d="M238.1,1263.1l32.7,57h0L238.1,1263.1h-65.5l-32.7,57h0l32.7-57H238.1z"/>
	<path class="st1" d="M236.6,1374l31.2-54h0L236.6,1374l-62.5,0l-31.2-54h0l31.2,54H236.6z"/>
	<path class="st1" d="M71.4,1086.2h62.1l31,53.5l-31,53.5H71.4l-31-53.5L71.4,1086.2z M135.2,1196.2l32.7-56.5l-32.7-56.5H69.7
		L37,1139.7l32.7,56.5H135.2z"/>
	<path class="st1" d="M143.3,1199.7l31-53.5h62.1l31,53.5h0l-31,53.5h-62.1L143.3,1199.7L143.3,1199.7z M172.6,1256.1h65.5
		l32.7-56.5h0l-32.7-56.5h-65.5l-32.7,56.5h0L172.6,1256.1z"/>
	<path class="st1" d="M277.3,1206.1h62.1l31,53.5l-31,53.5h-62.1l-31-53.5L277.3,1206.1z M341,1316.1l32.7-56.5l-32.7-56.5h-65.5
		l-32.7,56.5l32.7,56.5H341z"/>
	<path class="st1" d="M143.3,1319.6l31-53.5h62.1l31,53.5h0l-31,53.5h-62.1L143.3,1319.6L143.3,1319.6z M270.8,1319.6l-32.7-56.5
		h-65.5l-32.7,56.5h0l32.7,56.5h65.5L270.8,1319.6L270.8,1319.6z"/>
	<path class="st1" d="M277.3,1086.2h62.1l31,53.5l-31,53.5h-62.1l-31-53.5L277.3,1086.2z M275.6,1196.2H341l32.7-56.5l-32.7-56.5
		h-65.5l-32.7,56.5L275.6,1196.2z"/>
	<path class="st1" d="M380.2,1146.1h62.1l31,53.5l-31,53.5h-62.1l-31-53.5L380.2,1146.1z M443.9,1256.1l32.7-56.5l-32.7-56.5h-65.5
		l-32.7,56.5l32.7,56.5H443.9z"/>
	<path class="st1" d="M483.1,1206.1h62.1l31,53.5l-31,53.5h-62.1l-31-53.5L483.1,1206.1z M546.9,1316.1l32.7-56.5l-32.7-56.5h-65.5
		l-32.7,56.5l32.7,56.5H546.9z"/>
	<path class="st1" d="M442.2,1373.1h-62.1l-31-53.5l31-53.5h62.1l31,53.5L442.2,1373.1z M443.9,1263.1h-65.5l-32.7,56.5l32.7,56.5
		h65.5l32.7-56.5L443.9,1263.1z"/>
	<path class="st1" d="M483.1,1086.2h62.1l31,53.5l-31,53.5h-62.1l-31-53.5L483.1,1086.2z M546.9,1196.2l32.7-56.5l-32.7-56.5h-65.5
		l-32.7,56.5l32.7,56.5H546.9z"/>
	<path class="st1" d="M586,1146.1h62.1l31,53.5l-31,53.5H586l-31-53.5L586,1146.1z M649.8,1256.1l32.7-56.5l-32.7-56.5h-65.5
		l-32.7,56.5l32.7,56.5H649.8z"/>
	<path class="st1" d="M689,1206.1H751l31,53.5l-31,53.5H689l-31-53.5L689,1206.1z M752.7,1316.1l32.7-56.5l-32.7-56.5h-65.5
		l-32.7,56.5l32.7,56.5H752.7z"/>
	<path class="st1" d="M648.1,1373.1H586l-31-53.5l31-53.5h62.1l31,53.5L648.1,1373.1z M649.8,1263.1h-65.5l-32.7,56.5l32.7,56.5
		h65.5l32.7-56.5L649.8,1263.1z"/>
	<path class="st1" d="M689,1086.2H751l31,53.5l-31,53.5H689l-31-53.5L689,1086.2z M752.7,1196.2l32.7-56.5l-32.7-56.5h-65.5
		l-32.7,56.5l32.7,56.5H752.7z"/>
	<path class="st1" d="M791.9,1146.1H854l31,53.5l-31,53.5h-62.1l-31-53.5L791.9,1146.1z M855.7,1256.1l32.7-56.5l-32.7-56.5h-65.5
		l-32.7,56.5l32.7,56.5H855.7z"/>
	<path class="st1" d="M894.8,1206.1h62.1l31,53.5l-31,53.5h-62.1l-31-53.5L894.8,1206.1z M958.6,1316.1l32.7-56.5l-32.7-56.5h-65.5
		l-32.7,56.5l32.7,56.5H958.6z"/>
	<path class="st1" d="M854,1373.1h-62.1l-31-53.5l31-53.5H854l31,53.5L854,1373.1z M855.7,1263.1h-65.5l-32.7,56.5l32.7,56.5h65.5
		l32.7-56.5L855.7,1263.1z"/>
	<path class="st1" d="M894.8,1086.2h62.1l31,53.5l-31,53.5h-62.1l-31-53.5L894.8,1086.2z M958.6,1196.2l32.7-56.5l-32.7-56.5h-65.5
		l-32.7,56.5l32.7,56.5H958.6z"/>
	<path class="st1" d="M997.8,1146.1h62.1l31,53.5l-31,53.5h-62.1l-31-53.5L997.8,1146.1z M1061.5,1256.1l32.7-56.5l-32.7-56.5h-65.5
		l-32.7,56.5l32.7,56.5H1061.5z"/>
	<path class="st1" d="M1100.7,1206.1h62.1l31,53.5l-31,53.5h-62.1l-31-53.5L1100.7,1206.1z M1164.4,1316.1l32.7-56.5l-32.7-56.5
		H1099l-32.7,56.5l32.7,56.5H1164.4z"/>
	<path class="st1" d="M1059.8,1373.1h-62.1l-31-53.5l31-53.5h62.1l31,53.5L1059.8,1373.1z M1061.5,1263.1h-65.5l-32.7,56.5
		l32.7,56.5h65.5l32.7-56.5L1061.5,1263.1z"/>
	<path class="st1" d="M1100.7,1086.2h62.1l31,53.5l-31,53.5h-62.1l-31-53.5L1100.7,1086.2z M1164.4,1196.2l32.7-56.5l-32.7-56.5
		H1099l-32.7,56.5l32.7,56.5H1164.4z"/>
	<path class="st1" d="M1203.6,1146.1h62.1l31,53.5l-31,53.5h-62.1l-31-53.5L1203.6,1146.1z M1267.4,1256.1l32.7-56.5l-32.7-56.5
		h-65.4l-32.7,56.5l32.7,56.5H1267.4z"/>
	<path class="st1" d="M1368.6,1313.2h-62.1l-31-53.5l31-53.5h62.1l31,53.5L1368.6,1313.2z M1304.8,1203.2l-32.7,56.5l32.7,56.5h65.5
		l32.7-56.5l-32.7-56.5H1304.8z"/>
	<path class="st1" d="M1265.7,1373.1h-62.1l-31-53.5l31-53.5h62.1l31,53.5L1265.7,1373.1z M1267.4,1263.1h-65.4l-32.7,56.5
		l32.7,56.5h65.4l32.7-56.5L1267.4,1263.1z"/>
	<path class="st1" d="M1368.6,1193.2h-62.1l-31-53.5l31-53.5h62.1l31,53.5L1368.6,1193.2z M1304.8,1083.2l-32.7,56.5l32.7,56.5h65.5
		l32.7-56.5l-32.7-56.5H1304.8z"/>
	<path class="st1" d="M1374,1199.7l33,56.5h33v-2.9h-31.3l-31.3-53.5l31.3-53.5h31.3v-2.9h-33L1374,1199.7z"/>
	<path class="st1" d="M1374,1319.6l33,56.5h33v-2.9h-31.3l-31.3-53.5l31.3-53.5h31.3v-2.9h-33L1374,1319.6z"/>
	<path class="st1" d="M133.5,1433.1H71.4l-31-53.5l31-53.5h62.1l31,53.5L133.5,1433.1z M69.7,1323.1L37,1379.5l32.7,56.5h65.5
		l32.7-56.5l-32.7-56.5H69.7z"/>
	<path class="st1" d="M0,1383v3h31.3l31.3,54H66l-33-57H0z"/>
	<path class="st1" d="M238.1,1383l32.7,57h0L238.1,1383h-65.5l-32.7,57h0l32.7-57H238.1z"/>
	<path class="st1" d="M268.3,1439.5L268.3,1439.5L268.3,1439.5z"/>
	<path class="st1" d="M143.4,1439.5L143.4,1439.5L143.4,1439.5z"/>
	<path class="st1" d="M339.3,1433.1h-62.1l-31-53.5l31-53.5h62.1l31,53.5L339.3,1433.1z M275.6,1323.1l-32.7,56.5l32.7,56.5H341
		l32.7-56.5l-32.7-56.5H275.6z"/>
	<path class="st1" d="M238.1,1383h-65.5l-32.7,57h0h3.4l31-54h62.1l31,54h3.4h0L238.1,1383z"/>
	<path class="st1" d="M545.2,1433.1h-62.1l-31-53.5l31-53.5h62.1l31,53.5L545.2,1433.1z M481.4,1323.1l-32.7,56.5l32.7,56.5h65.5
		l32.7-56.5l-32.7-56.5H481.4z"/>
	<path class="st1" d="M378.5,1383l-32.7,57h3.4l31-54h62.1l31,54h3.4l-32.7-57H378.5z"/>
	<path class="st1" d="M751,1433.1H689l-31-53.5l31-53.5H751l31,53.5L751,1433.1z M687.3,1323.1l-32.7,56.5l32.7,56.5h65.5l32.7-56.5
		l-32.7-56.5H687.3z"/>
	<path class="st1" d="M584.3,1383l-32.7,57h3.4l31-54h62.1l31,54h3.4l-32.7-57H584.3z"/>
	<path class="st1" d="M956.9,1433.1h-62.1l-31-53.5l31-53.5h62.1l31,53.5L956.9,1433.1z M893.1,1323.1l-32.7,56.5l32.7,56.5h65.5
		l32.7-56.5l-32.7-56.5H893.1z"/>
	<path class="st1" d="M790.2,1383l-32.7,57h3.4l31-54H854l31,54h3.4l-32.7-57H790.2z"/>
	<path class="st1" d="M1162.7,1433.1h-62.1l-31-53.5l31-53.5h62.1l31,53.5L1162.7,1433.1z M1099,1323.1l-32.7,56.5l32.7,56.5h65.5
		l32.7-56.5l-32.7-56.5H1099z"/>
	<path class="st1" d="M996.1,1383l-32.7,57h3.4l31-54h62.1l31,54h3.4l-32.7-57H996.1z"/>
	<path class="st1" d="M1368.6,1433.1h-62.1l-31-53.5l31-53.5h62.1l31,53.5L1368.6,1433.1z M1304.8,1323.1l-32.7,56.5l32.7,56.5h65.5
		l32.7-56.5l-32.7-56.5H1304.8z"/>
	<path class="st1" d="M1201.9,1383l-32.7,57h3.4l31-54h62.1l31,54h3.4l-32.7-57H1201.9z"/>
	<path class="st1" d="M1408.7,1386h31.3v-3h-33l-33,57h3.4L1408.7,1386z"/>
</g>
</svg>
