<svg height="99" viewBox="0 0 288 99" width="288" xmlns="http://www.w3.org/2000/svg"><g fill="none" fill-rule="evenodd"><rect fill-rule="nonzero" height="98" rx="8" stroke="#d7dfe2" width="287" x=".5" y=".5"/><g fill="#fff"><g fill-rule="nonzero" transform="translate(13 15)"><path d="m37.2355009 29c-2.1036907 0-3.7644991 1.7818182-3.7644991 4s1.6977152 4 3.7644991 4c2.1036907 0 3.7644991-1.7818182 3.7644991-4s-1.6977153-4-3.7644991-4zm-13.4710018 0c-2.1036907 0-3.7644991 1.7818182-3.7644991 4s1.6977153 4 3.7644991 4c2.1036907 0 3.7644991-1.7818182 3.7644991-4 .0369069-2.2181818-1.6608084-4-3.7644991-4z"/><path d="m55.786935 0h-48.38478506c-4.08020948 0-7.40214994 3.29399899-7.40214994 7.33988906v47.97781144c0 4.04589 3.32194046 7.339889 7.40214994 7.339889h40.94652706l-1.9137266-6.5521936 4.6218302 4.2249117 4.3690739 3.9742814 7.7993384 6.695411v-63.66011094c-.036108-4.04589007-3.3580485-7.33988906-7.4382579-7.33988906zm-13.9377068 46.3666162s-1.2998897-1.5395864-2.3831312-2.8643469c4.7301544-1.3247605 6.5355568-4.2249118 6.5355568-4.2249118-1.48043.9667171-2.8886439 1.6469995-4.1524256 2.1124559-1.8054024.7518911-3.5385887 1.2173475-5.235667 1.5395865-3.4663727.6444781-6.6438809.4654564-9.3519846-.0358043-2.0581587-.3938477-3.8274531-.9309128-5.3078831-1.5395865-.8304851-.3222391-1.7331863-.7160868-2.6358875-1.2173475-.1083242-.0716086-.2166483-.107413-.3249725-.1790217-.0722161-.0358043-.1083241-.0716086-.1444322-.0716086-.6499449-.3580434-1.0110253-.6086738-1.0110253-.6086738s1.7331863 2.8285427 6.3189085 4.1891075c-1.0832415 1.3605648-2.4192393 2.9359556-2.4192393 2.9359556-7.9798787-.2506304-11.0129548-5.4064549-11.0129548-5.4064549 0-11.4215835 5.199559-20.6949067 5.199559-20.6949067 5.199559-3.831064 10.1102536-3.723651 10.1102536-3.723651l.3610805.429652c-6.4994488 1.8260212-9.4603087 4.6545638-9.4603087 4.6545638s.794377-.429652 2.1303748-1.0025214c3.8635612-1.6828039 6.9327453-2.1124559 8.196527-2.2556733.2166483-.0358043.3971886-.0716086.6138369-.0716086 2.2025909-.2864347 4.6940463-.3580434 7.2938258-.0716087 3.4302646.3938477 7.1132855 1.3963691 10.8685226 3.401412 0 0-2.8525359-2.6853253-8.9909041-4.5113464l.5055127-.5728694s4.9468026-.107413 10.1102535 3.723651c0 0 5.199559 9.2733232 5.199559 20.6949067 0-.0358043-3.0330761 5.1200202-11.0129548 5.3706505zm54.5231533-15.04236h-11.9878721v13.3550176l7.9798787 7.1250631v-12.96117h4.2607497c2.7081037 0 4.0441012 1.2889561 4.0441012 3.3656077v9.9178013c0 2.0766515-1.2637814 3.4730207-4.0441012 3.4730207h-12.2767365v7.5550133l11.9878721-.0002983c6.4272326.0358044 12.4572766-3.1507816 12.4572766-10.4548663v-10.6696924c.036108-7.4473021-5.993936-10.7054967-12.4211685-10.7054967zm62.8280045 21.3751891v-10.9561271c0-3.9384771 7.149393-4.8335855 9.315876-.8951084l6.607773-2.6495209c-2.599779-5.6570853-7.329934-7.3040848-11.265711-7.3040848-6.427232 0-12.782249 3.6878467-12.782249 10.8487141v10.9561271c0 7.232476 6.355017 10.8487141 12.637817 10.8487141 4.044101 0 8.88258-1.9692386 11.554575-7.1250631l-7.077177-3.2223903c-1.733186 4.4039334-8.990904 3.3298033-8.990904-.5012607zm-21.845369-9.4523449c-2.491456-.5370651-4.152426-1.4321735-4.26075-2.97176.144432-3.6878467 5.885612-3.8310641 9.24366-.2864347l5.307883-4.0458901c-3.32194-4.0100857-7.077177-5.0842158-10.940738-5.0842158-5.885612 0-11.590684 3.293999-11.590684 9.5239536 0 6.0509329 4.694046 9.3091276 9.857497 10.096823 2.635888.3580434 5.56064 1.3963691 5.488424 3.186586-.216649 3.401412-7.293826 3.2223903-10.507442-.6444781l-5.127343 4.7619768c2.996968 3.8310641 7.077177 5.7644983 10.90463 5.7644983 5.885612 0 12.421169-3.3656077 12.673925-9.5239537.361081-7.7695411-5.343991-9.7387796-11.049062-10.7771053zm-24.192393 19.8714069h8.088203v-31.7942511h-8.088203zm136.380099-31.7942511h-11.987872v13.3550176l7.979879 7.1250631v-12.96117h4.26075c2.708103 0 4.044101 1.2889561 4.044101 3.3656077v9.9178013c0 2.0766515-1.263782 3.4730207-4.044101 3.4730207h-12.276737v7.5550133l12.02398-.0002983c6.427233.0358044 12.457277-3.1507816 12.457277-10.4548663v-10.6696924c0-7.4473021-6.030044-10.7054967-12.457277-10.7054967zm-58.820011-.4296521c-6.643881 0-13.251654 3.5804337-13.251654 10.9203228v10.848714c0 7.2682804 6.643881 10.9203228 13.32387 10.9203228 6.643881 0 13.251654-3.6520424 13.251654-10.9203228v-10.848714c0-7.3040847-6.679989-10.9203228-13.32387-10.9203228zm5.199559 21.7690368c0 2.2914776-2.599779 3.4730207-5.163451 3.4730207-2.599779 0-5.199559-1.1099344-5.199559-3.4730207v-10.848714c0-2.3272819 2.527564-3.5804337 5.055127-3.5804337 2.635888 0 5.307883 1.1099344 5.307883 3.5804337zm37.155182-10.848714c-.18054-7.4473021-5.307883-10.4548664-11.915656-10.4548664h-12.818357v31.7942511h8.196527v-10.0968229h1.444322l7.438258 10.0968229h10.110253l-8.738147-10.9203227c3.863561-1.2173474 6.2828-4.5471508 6.2828-10.419062zm-11.771224 4.2965204h-4.766262v-7.2682804h4.766262c5.091235 0 5.091235 7.2682804 0 7.2682804z"/></g><path d="m103.26749 38c-1.624151 0-2.908089-.4493835-3.8518521-1.3481638-.9437633-.8987804-1.4156379-2.1061601-1.4156379-3.6221752 0-.2165736.0219477-.519772.0658436-.9096045l.2962963-2.4039548c.021948-.1082868.0768171-.2003292.1646091-.2761299.0877919-.0758008.1865563-.1137006.2962963-.1137006h2.9300407c.10974 0 .197531.0378998.263375.1137006.065844.0758007.087791.1678431.065843.2761299l-.296296 2.4689265c-.021948.1082868-.032922.2598861-.032922.4548023 0 .6280634.170095 1.1370037.510288 1.5268362.340194.3898324.806582.5847457 1.399177.5847457.680388 0 1.251027-.2382273 1.711935-.7146892.460907-.4764619.735253-1.0936874.823045-1.851695l2.106996-16.7951977c.021948-.1082868.07133-.2003292.148148-.2761299.076818-.0758008.170095-.1137006.279835-.1137006h2.930041c.10974 0 .197531.0378998.263375.1137006.065844.0758007.087791.1678431.065843.2761299l-2.074074 16.730226c-.219479 1.7542461-.938265 3.1727818-2.156378 4.2556497-1.218113 1.082868-2.716041 1.6242938-4.493827 1.6242938zm16.251741 0c-1.705137 0-3.051277-.4604237-4.038462-1.3812849-.987184-.9208612-1.480769-2.173642-1.480769-3.7583799 0-.171323.022436-.4925489.067308-.9636872l1.379807-10.793296c.22436-1.8417225.981564-3.3193613 2.271635-4.4329609s2.877394-1.6703911 4.762019-1.6703911c1.705137 0 3.051277.4550699 4.038462 1.3652235.987184.9101535 1.480769 2.146873 1.480769 3.7101955 0 .2141538-.022436.5567947-.067308 1.027933l-1.379807 10.793296c-.22436 1.8417225-.981564 3.3193613-2.271635 4.4329609s-2.877394 1.6703911-4.762019 1.6703911zm.28967-3c.806286 0 1.490398-.2580724 2.052356-.7742248.561957-.5161525.904013-1.1915333 1.026178-2.0261628l1.575916-11.3992248c.024433-.1098197.036649-.2635649.036649-.4612403 0-.7248098-.213785-1.2958636-.641361-1.7131783-.427577-.4173148-1.00785-.625969-1.740838-.625969-.806287 0-1.48429.2580724-2.034031.7742248-.549741.5161525-.885689 1.1915333-1.007854 2.0261628l-1.539267 11.3992248c-.024433.1317836-.036649.3184742-.036649.5600775 0 .680882.201569 1.2244812.604712 1.630814s.971201.6094961 1.704189.6094961zm11.583456 3c-.261573 0-.392357-.1314273-.392357-.3942857l2.96051-22.2114286c.023779-.1095243.083226-.2026186.178343-.2792857.095118-.076667.202123-.115.32102-.115h3.174522c.118896 0 .214012.038333.28535.115.071338.0766671.095117.1697614.071338.2792857l-2.96051 22.2114286c-.023779.1095243-.077282.2026187-.160509.2792857-.083228.0766671-.184289.115-.303185.115zm20.822422-22.6057143c.022683-.1095243.07372-.2026186.15311-.2792857.079391-.076667.175793-.115.289208-.115h2.994152c.113416 0 .204147.038333.272196.115.068049.0766671.090732.1697614.068049.2792857l-2.82403 22.2114286c0 .1095243-.045365.2026187-.136098.2792857-.090732.0766671-.192804.115-.30622.115h-3.43647c-.226831 0-.362927-.1095227-.408293-.3285714l-3.13025-13.9314286c-.022683-.0657146-.062378-.0930953-.119086-.0821429-.056707.0109525-.085061.0492854-.085061.115l-1.735247 13.8328572c-.022683.1095243-.073719.2026187-.15311.2792857-.079391.0766671-.175793.115-.289208.115h-2.994152c-.249514 0-.374269-.1314273-.374269-.3942857l2.82403-22.2114286c.022683-.1095243.07939-.2026186.170122-.2792857.090732-.076667.192805-.115.30622-.115h3.368421c.226831 0 .362927.1095227.408294.3285714l3.198298 13.8328572c0 .0657146.028354.0930953.085062.0821428.056707-.0109524.096402-.0492854.119085-.115zm20.304452 22.6057143c-1.705137 0-3.051277-.4604237-4.038462-1.3812849-.987184-.9208612-1.480769-2.173642-1.480769-3.7583799 0-.171323.022436-.4925489.067308-.9636872l1.379807-10.793296c.22436-1.8417225.981564-3.3193613 2.271635-4.4329609s2.877394-1.6703911 4.762019-1.6703911c1.705137 0 3.051277.4550699 4.038462 1.3652235.987184.9101535 1.480769 2.146873 1.480769 3.7101955 0 .2141538-.022436.5567947-.067308 1.027933l-1.379807 10.793296c-.22436 1.8417225-.981564 3.3193613-2.271635 4.4329609s-2.877394 1.6703911-4.762019 1.6703911zm.28967-3c.806286 0 1.490398-.2580724 2.052356-.7742248.561957-.5161525.904013-1.1915333 1.026178-2.0261628l1.575916-11.3992248c.024433-.1098197.036649-.2635649.036649-.4612403 0-.7248098-.213785-1.2958636-.641361-1.7131783-.427577-.4173148-1.00785-.625969-1.740838-.625969-.806287 0-1.48429.2580724-2.034031.7742248-.549741.5161525-.885689 1.1915333-1.007854 2.0261628l-1.539267 11.3992248c-.024433.1317836-.036649.3184742-.036649.5600775 0 .680882.201569 1.2244812.604712 1.630814s.971201.6094961 1.704189.6094961zm16.409503 3c-1.609016 0-2.880989-.4872833-3.815958-1.4618644-.934969-.9745812-1.402446-2.2956602-1.402446-3.9632768 0-.238231.021743-.6172291.06523-1.1370057l1.989517-16.0480226c0-.1082868.043486-.2003292.13046-.2761299.086974-.0758008.184818-.1137006.293535-.1137006h2.902737c.108718 0 .19569.0378998.26092.1137006.065231.0758007.086974.1678431.065231.2761299l-2.022132 16.4378531c-.021744.1299442-.032615.3248575-.032615.5847458 0 .7146928.179381 1.28319.538148 1.7055085.358767.4223184.842552.6334745 1.451368.6334745.674048 0 1.261112-.2707129 1.761212-.8121469.500099-.5414339.804503-1.2452875.913221-2.1115819l2.022131-16.4378531c.021744-.1082868.070666-.2003292.146768-.2761299.076102-.0758008.16851-.1137006.277228-.1137006h2.902737c.108717 0 .19569.0378998.26092.1137006.06523.0758007.086974.1678431.06523.2761299l-1.956901 16.0480226c-.239178 1.9708197-.983881 3.5571974-2.23413 4.7591808s-2.777704 1.8029661-4.582411 1.8029661zm20.507177 0c-.217055 0-.347286-.1095227-.390697-.3285714l-1.530233-9.43c0-.0219049-.010852-.0492856-.032558-.0821429s-.054263-.0492857-.097674-.0492857h-1.693024c-.108527 0-.16279.0547614-.16279.1642857l-1.139535 9.3314286c-.021706.1095243-.070542.2026187-.146512.2792857-.075969.0766671-.168216.115-.276744.115h-2.897674c-.238761 0-.35814-.1314273-.35814-.3942857l2.702326-22.2114286c.021705-.1095243.075968-.2026186.16279-.2792857.086822-.076667.184496-.115.293024-.115h5.925581c1.519387 0 2.7186.5092806 3.597674 1.5278571.879075 1.0185766 1.318605 2.3711821 1.318605 4.0578572 0 .2190487-.021705.5914259-.065116 1.1171428-.173645 1.3581021-.575191 2.5299951-1.204651 3.5157143-.629461.9857192-1.421701 1.7304737-2.376745 2.2342857-.086822.0219049-.130232.0876185-.130232.1971429l1.888372 9.89v.1314286c0 .2190487-.119379.3285714-.35814.3285714zm-2.571735-19.5c-.128206 0-.192308.0478464-.192308.1435407l-.961538 5.7129186c0 .0956943.051282.1435407.153846.1435407h2.307692c1.000005 0 1.839741-.3301402 2.519231-.9904306.679491-.6602904 1.019231-1.5358797 1.019231-2.6267943 0-.7464152-.230767-1.3301414-.692308-1.7511962-.46154-.4210547-1.089739-.6315789-1.884615-.6315789z" fill-rule="evenodd"/></g></g></svg>