<?xml version="1.0" encoding="UTF-8"?>
<svg width="288px" height="99px" viewBox="0 0 288 99" version="1.1" xmlns="http://www.w3.org/2000/svg" xmlns:xlink="http://www.w3.org/1999/xlink">
    <!-- Generator: Sketch 52.6 (67491) - http://www.bohemiancoding.com/sketch -->
    <title>Discord_Join</title>
    <desc>Created with Sketch.</desc>
    <g id="Symbols" stroke="none" stroke-width="1" fill="none" fill-rule="evenodd">
        <g id="Organism/Discord" transform="translate(-135.000000, -545.000000)">
            <g id="Atoms/Server/Discord" transform="translate(135.000000, 545.000000)">
                <rect id="Rectangle" stroke="#D7DFE2" stroke-width="1" fill-rule="nonzero" x="0.5" y="0.5" width="287" height="98" rx="8"></rect>
                <g id="Discord-Logo+Wordmark-White" stroke-width="1" fill-rule="evenodd" transform="translate(13.000000, 15.000000)" fill="#FFFFFF">
                    <path d="M37.2355009,29 C35.1318102,29 33.4710018,30.7818182 33.4710018,33 C33.4710018,35.2181818 35.168717,37 37.2355009,37 C39.3391916,37 41,35.2181818 41,33 C41,30.7818182 39.3022847,29 37.2355009,29 Z M23.7644991,29 C21.6608084,29 20,30.7818182 20,33 C20,35.2181818 21.6977153,37 23.7644991,37 C25.8681898,37 27.5289982,35.2181818 27.5289982,33 C27.5659051,30.7818182 25.8681898,29 23.7644991,29 Z" id="Shape" fill-rule="nonzero"></path>
                    <path d="M55.786935,0 L7.40214994,0 C3.32194046,0 0,3.29399899 0,7.33988906 L0,55.3177005 C0,59.3635905 3.32194046,62.6575895 7.40214994,62.6575895 L48.348677,62.6575895 L46.4349504,56.1053959 L51.0567806,60.3303076 L55.4258545,64.304589 L63.2251929,71 L63.2251929,7.33988906 C63.1890849,3.29399899 59.8671444,0 55.786935,0 Z M41.8492282,46.3666162 C41.8492282,46.3666162 40.5493385,44.8270298 39.466097,43.5022693 C44.1962514,42.1775088 46.0016538,39.2773575 46.0016538,39.2773575 C44.5212238,40.2440746 43.1130099,40.924357 41.8492282,41.3898134 C40.0438258,42.1417045 38.3106395,42.6071609 36.6135612,42.9293999 C33.1471885,43.573878 29.9696803,43.3948563 27.2615766,42.8935956 C25.2034179,42.4997479 23.4341235,41.9626828 21.9536935,41.3540091 C21.1232084,41.03177 20.2205072,40.6379223 19.317806,40.1366616 C19.2094818,40.065053 19.1011577,40.0292486 18.9928335,39.9576399 C18.9206174,39.9218356 18.8845094,39.8860313 18.8484013,39.8860313 C18.1984564,39.5279879 17.837376,39.2773575 17.837376,39.2773575 C17.837376,39.2773575 19.5705623,42.1059002 24.1562845,43.466465 C23.073043,44.8270298 21.7370452,46.4024206 21.7370452,46.4024206 C13.7571665,46.1517902 10.7240904,40.9959657 10.7240904,40.9959657 C10.7240904,29.5743822 15.9236494,20.301059 15.9236494,20.301059 C21.1232084,16.469995 26.033903,16.577408 26.033903,16.577408 L26.3949835,17.00706 C19.8955347,18.8330812 16.9346748,21.6616238 16.9346748,21.6616238 C16.9346748,21.6616238 17.7290518,21.2319718 19.0650496,20.6591024 C22.9286108,18.9762985 25.9977949,18.5466465 27.2615766,18.4034291 C27.4782249,18.3676248 27.6587652,18.3318205 27.8754135,18.3318205 C30.0780044,18.0453858 32.5694598,17.9737771 35.1692393,18.2602118 C38.5995039,18.6540595 42.2825248,19.6565809 46.0377619,21.6616238 C46.0377619,21.6616238 43.185226,18.9762985 37.0468578,17.1502774 L37.5523705,16.577408 C37.5523705,16.577408 42.4991731,16.469995 47.662624,20.301059 C47.662624,20.301059 52.862183,29.5743822 52.862183,40.9959657 C52.862183,40.9601614 49.8291069,46.1159859 41.8492282,46.3666162 Z M96.3723815,31.3242562 L84.3845094,31.3242562 L84.3845094,44.6792738 L92.3643881,51.8043369 L92.3643881,38.8431669 L96.6251378,38.8431669 C99.3332415,38.8431669 100.669239,40.132123 100.669239,42.2087746 L100.669239,52.1265759 C100.669239,54.2032274 99.4054576,55.5995966 96.6251378,55.5995966 L84.3484013,55.5995966 L84.3484013,63.1546099 L96.3362734,63.1543116 C102.763506,63.190116 108.79355,60.00353 108.79355,52.6994453 L108.79355,42.0297529 C108.829658,34.5824508 102.799614,31.3242562 96.3723815,31.3242562 Z M159.200386,52.6994453 L159.200386,41.7433182 C159.200386,37.8048411 166.349779,36.9097327 168.516262,40.8482098 L175.124035,38.1986889 C172.524256,32.5416036 167.794101,30.8946041 163.858324,30.8946041 C157.431092,30.8946041 151.076075,34.5824508 151.076075,41.7433182 L151.076075,52.6994453 C151.076075,59.9319213 157.431092,63.5481594 163.713892,63.5481594 C167.757993,63.5481594 172.596472,61.5789208 175.268467,56.4230963 L168.19129,53.200706 C166.458104,57.6046394 159.200386,56.5305093 159.200386,52.6994453 Z M137.355017,43.2471004 C134.863561,42.7100353 133.202591,41.8149269 133.094267,40.2753404 C133.238699,36.5874937 138.979879,36.4442763 142.337927,39.9889057 L147.64581,35.9430156 C144.32387,31.9329299 140.568633,30.8587998 136.705072,30.8587998 C130.81946,30.8587998 125.114388,34.1527988 125.114388,40.3827534 C125.114388,46.4336863 129.808434,49.691881 134.971885,50.4795764 C137.607773,50.8376198 140.532525,51.8759455 140.460309,53.6661624 C140.24366,57.0675744 133.166483,56.8885527 129.952867,53.0216843 L124.825524,57.7836611 C127.822492,61.6147252 131.902701,63.5481594 135.730154,63.5481594 C141.615766,63.5481594 148.151323,60.1825517 148.404079,54.0242057 C148.76516,46.2546646 143.060088,44.2854261 137.355017,43.2471004 Z M113.162624,63.1185073 L121.250827,63.1185073 L121.250827,31.3242562 L113.162624,31.3242562 L113.162624,63.1185073 Z M249.542723,31.3242562 L237.554851,31.3242562 L237.554851,44.6792738 L245.53473,51.8043369 L245.53473,38.8431669 L249.79548,38.8431669 C252.503583,38.8431669 253.839581,40.132123 253.839581,42.2087746 L253.839581,52.1265759 C253.839581,54.2032274 252.575799,55.5995966 249.79548,55.5995966 L237.518743,55.5995966 L237.518743,63.1546099 L249.542723,63.1543116 C255.969956,63.190116 262,60.00353 262,52.6994453 L262,42.0297529 C262,34.5824508 255.969956,31.3242562 249.542723,31.3242562 Z M190.722712,30.8946041 C184.078831,30.8946041 177.471058,34.4750378 177.471058,41.8149269 L177.471058,52.6636409 C177.471058,59.9319213 184.114939,63.5839637 190.794928,63.5839637 C197.438809,63.5839637 204.046582,59.9319213 204.046582,52.6636409 L204.046582,41.8149269 C204.046582,34.5108422 197.366593,30.8946041 190.722712,30.8946041 Z M195.922271,52.6636409 C195.922271,54.9551185 193.322492,56.1366616 190.75882,56.1366616 C188.159041,56.1366616 185.559261,55.0267272 185.559261,52.6636409 L185.559261,41.8149269 C185.559261,39.487645 188.086825,38.2344932 190.614388,38.2344932 C193.250276,38.2344932 195.922271,39.3444276 195.922271,41.8149269 L195.922271,52.6636409 Z M233.077453,41.8149269 C232.896913,34.3676248 227.76957,31.3600605 221.161797,31.3600605 L208.34344,31.3600605 L208.34344,63.1543116 L216.539967,63.1543116 L216.539967,53.0574887 L217.984289,53.0574887 L225.422547,63.1543116 L235.5328,63.1543116 L226.794653,52.2339889 C230.658214,51.0166415 233.077453,47.6868381 233.077453,41.8149269 Z M221.306229,46.1114473 L216.539967,46.1114473 L216.539967,38.8431669 L221.306229,38.8431669 C226.397464,38.8431669 226.397464,46.1114473 221.306229,46.1114473 Z" id="Shape" fill-rule="nonzero"></path>
                </g>
                <path d="M103.26749,38 C101.643339,38 100.359401,37.5506165 99.4156379,36.6518362 C98.4718746,35.7530558 98,34.5456761 98,33.029661 C98,32.8130874 98.0219477,32.509889 98.0658436,32.1200565 L98.3621399,29.7161017 C98.3840879,29.6078149 98.438957,29.5157725 98.526749,29.4399718 C98.6145409,29.364171 98.7133053,29.3262712 98.8230453,29.3262712 L101.753086,29.3262712 C101.862826,29.3262712 101.950617,29.364171 102.016461,29.4399718 C102.082305,29.5157725 102.104252,29.6078149 102.082304,29.7161017 L101.786008,32.1850282 C101.76406,32.293315 101.753086,32.4449143 101.753086,32.6398305 C101.753086,33.2678939 101.923181,33.7768342 102.263374,34.1666667 C102.603568,34.5564991 103.069956,34.7514124 103.662551,34.7514124 C104.342939,34.7514124 104.913578,34.5131851 105.374486,34.0367232 C105.835393,33.5602613 106.109739,32.9430358 106.197531,32.1850282 L108.304527,15.3898305 C108.326475,15.2815437 108.375857,15.1895013 108.452675,15.1137006 C108.529493,15.0378998 108.62277,15 108.73251,15 L111.662551,15 C111.772291,15 111.860082,15.0378998 111.925926,15.1137006 C111.99177,15.1895013 112.013717,15.2815437 111.991769,15.3898305 L109.917695,32.1200565 C109.698216,33.8743026 108.97943,35.2928383 107.761317,36.3757062 C106.543204,37.4585742 105.045276,38 103.26749,38 Z M119.519231,38 C117.814094,38 116.467954,37.5395763 115.480769,36.6187151 C114.493585,35.6978539 114,34.4450731 114,32.8603352 C114,32.6890122 114.022436,32.3677863 114.067308,31.896648 L115.447115,21.103352 C115.671475,19.2616295 116.428679,17.7839907 117.71875,16.6703911 C119.008821,15.5567915 120.596144,15 122.480769,15 C124.185906,15 125.532046,15.4550699 126.519231,16.3652235 C127.506415,17.275377 128,18.5120965 128,20.075419 C128,20.2895728 127.977564,20.6322137 127.932692,21.103352 L126.552885,31.896648 C126.328525,33.7383705 125.571321,35.2160093 124.28125,36.3296089 C122.991179,37.4432085 121.403856,38 119.519231,38 Z M119.808901,35 C120.615187,35 121.299299,34.7419276 121.861257,34.2257752 C122.423214,33.7096227 122.76527,33.0342419 122.887435,32.1996124 L124.463351,20.8003876 C124.487784,20.6905679 124.5,20.5368227 124.5,20.3391473 C124.5,19.6143375 124.286215,19.0432837 123.858639,18.625969 C123.431062,18.2086542 122.850789,18 122.117801,18 C121.311514,18 120.633511,18.2580724 120.08377,18.7742248 C119.534029,19.2903773 119.198081,19.9657581 119.075916,20.8003876 L117.536649,32.1996124 C117.512216,32.331396 117.5,32.5180866 117.5,32.7596899 C117.5,33.4405719 117.701569,33.9841711 118.104712,34.3905039 C118.507855,34.7968367 119.075913,35 119.808901,35 Z M131.392357,38 C131.130784,38 131,37.8685727 131,37.6057143 L133.96051,15.3942857 C133.984289,15.2847614 134.043736,15.1916671 134.138853,15.115 C134.233971,15.038333 134.340976,15 134.459873,15 L137.634395,15 C137.753291,15 137.848407,15.038333 137.919745,15.115 C137.991083,15.1916671 138.014862,15.2847614 137.991083,15.3942857 L135.030573,37.6057143 C135.006794,37.7152386 134.953291,37.808333 134.870064,37.885 C134.786836,37.9616671 134.685775,38 134.566879,38 L131.392357,38 Z M152.214779,15.3942857 C152.237462,15.2847614 152.288499,15.1916671 152.367889,15.115 C152.44728,15.038333 152.543682,15 152.657097,15 L155.651249,15 C155.764665,15 155.855396,15.038333 155.923445,15.115 C155.991494,15.1916671 156.014177,15.2847614 155.991494,15.3942857 L153.167464,37.6057143 C153.167464,37.7152386 153.122099,37.808333 153.031366,37.885 C152.940634,37.9616671 152.838562,38 152.725146,38 L149.288676,38 C149.061845,38 148.925749,37.8904773 148.880383,37.6714286 L145.750133,23.74 C145.72745,23.6742854 145.687755,23.6469047 145.631047,23.6578571 C145.57434,23.6688096 145.545986,23.7071425 145.545986,23.7728571 L143.810739,37.6057143 C143.788056,37.7152386 143.73702,37.808333 143.657629,37.885 C143.578238,37.9616671 143.481836,38 143.368421,38 L140.374269,38 C140.124755,38 140,37.8685727 140,37.6057143 L142.82403,15.3942857 C142.846713,15.2847614 142.90342,15.1916671 142.994152,15.115 C143.084884,15.038333 143.186957,15 143.300372,15 L146.668793,15 C146.895624,15 147.03172,15.1095227 147.077087,15.3285714 L150.275385,29.1614286 C150.275385,29.2271432 150.303739,29.2545239 150.360447,29.2435714 C150.417154,29.232619 150.456849,29.194286 150.479532,29.1285714 L152.214779,15.3942857 Z M172.519231,38 C170.814094,38 169.467954,37.5395763 168.480769,36.6187151 C167.493585,35.6978539 167,34.4450731 167,32.8603352 C167,32.6890122 167.022436,32.3677863 167.067308,31.896648 L168.447115,21.103352 C168.671475,19.2616295 169.428679,17.7839907 170.71875,16.6703911 C172.008821,15.5567915 173.596144,15 175.480769,15 C177.185906,15 178.532046,15.4550699 179.519231,16.3652235 C180.506415,17.275377 181,18.5120965 181,20.075419 C181,20.2895728 180.977564,20.6322137 180.932692,21.103352 L179.552885,31.896648 C179.328525,33.7383705 178.571321,35.2160093 177.28125,36.3296089 C175.991179,37.4432085 174.403856,38 172.519231,38 Z M172.808901,35 C173.615187,35 174.299299,34.7419276 174.861257,34.2257752 C175.423214,33.7096227 175.76527,33.0342419 175.887435,32.1996124 L177.463351,20.8003876 C177.487784,20.6905679 177.5,20.5368227 177.5,20.3391473 C177.5,19.6143375 177.286215,19.0432837 176.858639,18.625969 C176.431062,18.2086542 175.850789,18 175.117801,18 C174.311514,18 173.633511,18.2580724 173.08377,18.7742248 C172.534029,19.2903773 172.198081,19.9657581 172.075916,20.8003876 L170.536649,32.1996124 C170.512216,32.331396 170.5,32.5180866 170.5,32.7596899 C170.5,33.4405719 170.701569,33.9841711 171.104712,34.3905039 C171.507855,34.7968367 172.075913,35 172.808901,35 Z M189.218404,38 C187.609388,38 186.337415,37.5127167 185.402446,36.5381356 C184.467477,35.5635544 184,34.2424754 184,32.5748588 C184,32.3366278 184.021743,31.9576297 184.06523,31.4378531 L186.054747,15.3898305 C186.054747,15.2815437 186.098233,15.1895013 186.185207,15.1137006 C186.272181,15.0378998 186.370025,15 186.478742,15 L189.381479,15 C189.490197,15 189.577169,15.0378998 189.642399,15.1137006 C189.70763,15.1895013 189.729373,15.2815437 189.70763,15.3898305 L187.685498,31.8276836 C187.663754,31.9576278 187.652883,32.1525411 187.652883,32.4124294 C187.652883,33.1271222 187.832264,33.6956194 188.191031,34.1179379 C188.549798,34.5402563 189.033583,34.7514124 189.642399,34.7514124 C190.316447,34.7514124 190.903511,34.4806995 191.403611,33.9392655 C191.90371,33.3978316 192.208114,32.693978 192.316832,31.8276836 L194.338963,15.3898305 C194.360707,15.2815437 194.409629,15.1895013 194.485731,15.1137006 C194.561833,15.0378998 194.654241,15 194.762959,15 L197.665696,15 C197.774413,15 197.861386,15.0378998 197.926616,15.1137006 C197.991846,15.1895013 198.01359,15.2815437 197.991846,15.3898305 L196.034945,31.4378531 C195.795767,33.4086728 195.051064,34.9950505 193.800815,36.1970339 C192.550566,37.3990173 191.023111,38 189.218404,38 Z M209.725581,38 C209.508526,38 209.378295,37.8904773 209.334884,37.6714286 L207.804651,28.2414286 C207.804651,28.2195237 207.793799,28.192143 207.772093,28.1592857 C207.750387,28.1264284 207.71783,28.11 207.674419,28.11 L205.981395,28.11 C205.872868,28.11 205.818605,28.1647614 205.818605,28.2742857 L204.67907,37.6057143 C204.657364,37.7152386 204.608528,37.808333 204.532558,37.885 C204.456589,37.9616671 204.364342,38 204.255814,38 L201.35814,38 C201.119379,38 201,37.8685727 201,37.6057143 L203.702326,15.3942857 C203.724031,15.2847614 203.778294,15.1916671 203.865116,15.115 C203.951938,15.038333 204.049612,15 204.15814,15 L210.083721,15 C211.603108,15 212.802321,15.5092806 213.681395,16.5278571 C214.56047,17.5464337 215,18.8990392 215,20.5857143 C215,20.804763 214.978295,21.1771402 214.934884,21.7028571 C214.761239,23.0609592 214.359693,24.2328522 213.730233,25.2185714 C213.100772,26.2042906 212.308532,26.9490451 211.353488,27.4528571 C211.266666,27.474762 211.223256,27.5404756 211.223256,27.65 L213.111628,37.54 L213.111628,37.6714286 C213.111628,37.8904773 212.992249,38 212.753488,38 L209.725581,38 Z M207.153846,18.5 C207.02564,18.5 206.961538,18.5478464 206.961538,18.6435407 L206,24.3564593 C206,24.4521536 206.051282,24.5 206.153846,24.5 L208.461538,24.5 C209.461543,24.5 210.301279,24.1698598 210.980769,23.5095694 C211.66026,22.849279 212,21.9736897 212,20.8827751 C212,20.1363599 211.769233,19.5526337 211.307692,19.1315789 C210.846152,18.7105242 210.217953,18.5 209.423077,18.5 L207.153846,18.5 Z" id="JOIN-OUR" fill="#FFFFFF" fill-rule="evenodd"></path>
            </g>
        </g>
    </g>
</svg>