<?xml version="1.0" encoding="UTF-8"?>
<svg width="288px" height="99px" viewBox="0 0 288 99" version="1.1" xmlns="http://www.w3.org/2000/svg" xmlns:xlink="http://www.w3.org/1999/xlink">
    <!-- Generator: Sketch 52.6 (67491) - http://www.bohemiancoding.com/sketch -->
    <title>Teamspeak_Join</title>
    <desc>Created with Sketch.</desc>
    <defs>
        <polygon id="path-1" points="-1.99739395e-15 0 243 0 243 72 -1.99739395e-15 72"></polygon>
    </defs>
    <g id="Symbols" stroke="none" stroke-width="1" fill="none" fill-rule="evenodd">
        <g id="Organism/Discord" transform="translate(-455.000000, -545.000000)">
            <g id="Atoms/Server/Teamspeak" transform="translate(455.000000, 545.000000)">
                <rect id="Rectangle" stroke="#D7DFE2" fill-rule="nonzero" x="0.5" y="0.5" width="287" height="98" rx="8"></rect>
                <g id="TS_Inline_BlueLight_CMYK" fill-rule="evenodd" transform="translate(23.000000, 14.000000)">
                    <mask id="mask-2" fill="white">
                        <use xlink:href="#path-1"></use>
                    </mask>
                    <g id="Clip-2"></g>
                    <path d="M209.000476,18.1549923 C209.032573,17.606373 208.953042,16.9653461 209.053615,16.3276379 C209.222663,15.2554002 209.773316,14.4736601 210.706645,13.9866582 C210.936001,13.8659678 211.077551,13.7419219 211.129264,13.4455613 C211.535835,11.1428573 212.43029,9.04996938 213.751644,7.153549 C213.90286,6.93543613 214.024474,6.78638927 213.829748,6.50334035 C213.581883,6.1437399 213.758777,5.81323345 214.016628,5.51436536 C215.879755,3.3556933 218.12299,1.75648165 220.791377,0.904827429 C227.155275,-1.12648 232.765591,0.262952425 237.557417,5.06729852 C237.999295,5.51100978 238.590249,5.95722851 238.024973,6.73646115 C237.93082,6.86633325 238.097728,6.97953807 238.170126,7.08193865 C239.54355,9.01751979 240.4512,11.1619952 240.85531,13.5271277 C240.899498,13.7885313 241.05749,13.8709459 241.241873,13.9675203 C242.392396,14.5710826 242.957708,15.56758 242.962344,16.8737866 C242.967301,18.0550623 243.08,19.2438973 242.88991,20.4177243 C242.61601,22.1068361 240.953351,23.2839818 239.343117,22.9401636 C238.855233,22.8352925 238.726486,22.4473355 238.728982,21.972834 C238.736828,20.0347454 238.774632,18.0958824 238.729695,16.1594901 C238.608794,10.9513678 236.334139,7.02865495 231.929982,4.5253535 C224.560357,0.335374009 215.106879,4.97990587 213.485233,13.5204903 C213.202417,15.005649 213.251634,16.4966339 213.267683,17.9926337 C213.282341,19.3845736 213.266256,20.7773616 213.233088,22.1693015 C213.222033,22.6571147 212.944209,22.9326781 212.439206,22.9568309 C210.385312,23.0559128 209.004399,21.7072267 209.000476,19.5835486 C208.999406,19.1373299 209.000476,18.6911111 209.000476,18.1549923" id="Fill-1" fill="#FFFFFF" mask="url(#mask-2)"></path>
                    <path d="M229.551696,24.6741357 C230.416475,24.7935519 231.27874,24.9392675 232.14998,24.9917536 C233.31953,25.0628856 234.203693,24.6707592 234.858469,23.9347155 C235.679452,23.0097744 236.056379,21.9349158 235.993199,20.7288232 C235.928224,19.5167654 234.911239,18.800193 233.532763,19.04923 C232.302545,19.2720053 231.212329,19.7733808 230.108471,20.2341631 C229.132769,20.6415589 228.217734,21.1311542 227.501214,21.8265295 C226.493921,22.8039568 227.065414,24.0990395 228.673995,24.5055724 C228.961536,24.5784301 229.259129,24.6190609 229.551696,24.6741357" id="Fill-3" fill="#FFFFFF" mask="url(#mask-2)"></path>
                    <path d="M224.918139,22.3152742 C224.918139,22.3144123 224.918139,22.3144123 224.918139,22.3144123 C224.832787,22.0267523 224.68806,21.765325 224.515332,21.5191126 C223.917532,20.4843835 223.086616,19.5503505 222.24558,18.7677174 C221.803976,18.341324 221.334035,17.95383 220.8479,17.5891958 C219.765652,16.760056 218.917868,16.277787 218.917868,16.277787 L218.914832,16.2794734 C217.628482,15.5645581 216.454809,16.2633965 216.144776,17.8946191 C215.797633,19.7237859 216.075617,21.476803 216.969619,23.0733235 C217.5853,24.1723601 218.535674,24.6935284 219.672912,24.8119876 C220.384031,24.885589 221.098558,24.928723 221.811398,24.9854231 C222.391993,25.000638 222.970598,25.0454959 223.534325,24.8331237 C224.277865,24.5530712 224.851342,24.0488417 224.979235,23.160491 C225.023395,22.8533438 224.994382,22.5741532 224.918139,22.3152742" id="Fill-4" fill="#FFFFFF" mask="url(#mask-2)"></path>
                    <path d="M239.997996,27.0610499 C239.984494,26.4269425 239.683544,25.3983375 239.236915,25.0704572 C239.045082,24.9297286 238.762928,25.0090791 238.689023,25.2261738 C238.594509,25.5061387 238.438882,25.9074008 238.201213,26.3790603 L238.202244,26.3790603 C237.672472,27.5469017 236.895438,28.5028876 235.987223,29.2874393 C234.800833,30.3115678 233.390595,31.0414728 232.011626,31.5602518 C232.011626,31.5610145 232.010915,31.5610145 232.010915,31.5610145 C231.667683,31.6897725 231.327293,31.8065599 230.992233,31.9106142 C230.989781,31.9113768 230.986548,31.9121063 230.984096,31.912869 C230.761279,31.9824706 230.541376,32.0468662 230.325666,32.1059894 C230.323889,32.1059894 230.322468,32.1067521 230.320727,32.1067521 C230.216585,32.1359655 230.112833,32.162891 230.010148,32.1891201 C230.004818,32.1906123 229.999133,32.1921044 229.993484,32.1935966 C229.784915,32.2475138 229.581285,32.2961587 229.38302,32.3410565 C229.374137,32.3433114 229.367031,32.3448367 229.358148,32.3463289 C229.266833,32.3672856 229.176939,32.3867502 229.087755,32.4054521 C229.079583,32.4077069 229.071766,32.4091991 229.06466,32.4106913 C228.875278,32.4503831 228.691581,32.4870574 228.514991,32.5199847 C228.50291,32.5222396 228.490829,32.5237317 228.478749,32.5259866 C228.40129,32.540212 228.324188,32.5544373 228.249607,32.5671706 C228.239978,32.5686627 228.23042,32.5709176 228.220791,32.5724097 C228.053794,32.6008605 227.894969,32.6262938 227.744317,32.6487759 C227.73117,32.6510307 227.718379,32.6524897 227.705588,32.6547446 C227.639855,32.6644934 227.575543,32.6734796 227.514074,32.6824327 C227.505902,32.6831953 227.497019,32.6846875 227.489202,32.6854502 C227.417784,32.6959286 227.347823,32.7049148 227.280633,32.713901 C227.280633,32.713901 227.280633,32.713901 227.279567,32.713901 C227.215611,32.7221245 227.153076,32.7296185 227.093739,32.7363499 C227.083079,32.7378421 227.073486,32.7386047 227.063892,32.7400969 C227.005976,32.7468283 226.949837,32.7535596 226.896185,32.7587988 C226.896185,32.7587988 226.896185,32.7587988 226.895474,32.7595615 C226.450978,32.8074768 226.174189,32.8224317 226.130841,32.8246866 C226.126932,32.8246866 226.124445,32.8246866 226.124445,32.8246866 L226.124445,32.8254492 C220.351355,33.3891593 227.590111,34.5704634 233.034607,33.6758556 L233.033506,33.6766182 C233.046652,33.6743634 233.057667,33.6721085 233.070458,33.6698869 C233.199082,33.6489301 233.325573,33.6264812 233.451709,33.6025069 C233.563988,33.5822797 233.67378,33.5598308 233.782186,33.5373818 C233.86707,33.5194094 233.950569,33.501437 234.034067,33.4827351 C234.085232,33.4707314 234.138174,33.4595235 234.188628,33.447553 C234.913822,33.2753562 235.579679,33.0567693 236.146758,32.7850279 C239.515125,31.2638066 239.841693,28.7229997 239.841693,28.7229997 C239.953226,28.2408619 240.011853,27.6936321 239.997996,27.0610499" id="Fill-5" fill="#FFFFFF" mask="url(#mask-2)"></path>
                    <path d="M14.597666,38.0032367 L11.0392296,38.0032367 C10.571785,38.0032367 10.1927929,38.3675614 10.1927929,38.8168713 L10.1927929,53.7380482 C10.1927929,56.7057168 11.2430325,57.9525249 13.7764855,57.9525249 C14.2161372,57.9525249 14.569873,57.9320854 14.9910209,57.8528377 C15.5123355,57.7549433 16,58.1379146 16,58.6489015 L16,61.9073844 C16,62.3046992 15.6984926,62.6414127 15.2908495,62.7102614 C14.0771722,62.9160906 13.1936906,63 12.04653,63 C9.20481714,63 7.10512142,62.2867698 5.86954545,60.8036527 C4.75782552,59.4962433 4.44784966,58.0722931 4.44784966,54.3311516 L4.44784966,38.8168713 C4.44784966,38.3675614 4.06885762,38.0032367 3.60141297,38.0032367 L0.84643669,38.0032367 C0.379029344,38.0032367 0,37.638912 0,37.1896021 L0,33.889021 C0,33.4389222 0.379029344,33.0754222 0.84643669,33.0754222 L3.60141297,33.0754222 C4.06885762,33.0754222 4.44784966,32.7110975 4.44784966,32.2609987 L4.44784966,25.8136346 C4.44784966,25.3643247 4.826879,25 5.29432365,25 L9.34631894,25 C9.8137636,25 10.1927929,25.3643247 10.1927929,25.8136346 L10.1927929,32.2609987 C10.1927929,32.7110975 10.571785,33.0754222 11.0392296,33.0754222 L14.597666,33.0754222 C15.0651107,33.0754222 15.44414,33.4389222 15.44414,33.889021 L15.44414,37.1896021 C15.44414,37.638912 15.0651107,38.0032367 14.597666,38.0032367" id="Fill-6" fill="#FFFFFF" mask="url(#mask-2)"></path>
                    <path d="M26.2211846,47.8995371 C25.7800482,47.8995371 25.4223862,48.2555881 25.4223862,48.6946944 L25.4223862,50.4518204 C25.4223862,55.5010169 26.2958926,57.0678518 29.0937111,57.0678518 C30.7851328,57.0678518 31.9511692,56.1966481 32.3597044,54.5138163 C32.5075362,54.0207416 32.5719287,53.5697202 32.5878068,52.2334774 C32.5934046,51.7975252 32.9486725,51.4383201 33.3866403,51.4383201 L37.2010088,51.4383201 C37.6477782,51.4383201 38.0086439,51.8048845 37.9998423,52.2485465 C37.9276692,55.7354639 37.7129101,56.9388884 36.7901148,58.3438182 C35.3316187,60.7236831 32.650615,62 29.0937111,62 C25.771317,62 23.2651836,60.955677 21.8074621,58.9816262 C20.5245756,57.1831479 20,55.0366786 20,51.1488534 L20,42.5598225 C20,37.9767165 20.5245756,36.0610847 22.3320376,34.3204997 C23.9066093,32.8117333 26.1798522,32 28.9196505,32 C31.8931491,32 34.2243769,32.9272397 35.7401539,34.6694017 C37.4309067,36.5255281 37.9554823,38.6141741 37.9554823,43.1412091 L37.9554823,47.1043797 C37.9554823,47.543486 37.5977851,47.8995371 37.1566487,47.8995371 L26.2211846,47.8995371 Z M32.5345747,41.5740237 C32.5345747,38.1498358 31.4846138,36.7582229 28.9776707,36.7582229 C26.4715374,36.7582229 25.4223862,38.1498358 25.4223862,41.5740237 L25.4223862,43.1412091 L32.5345747,43.1412091 L32.5345747,41.5740237 Z" id="Fill-7" fill="#FFFFFF" mask="url(#mask-2)"></path>
                    <path d="M55.2033825,61.9728723 C55.1265378,61.6686695 55.0643302,61.3332664 55.0156619,60.9698539 C54.9282053,60.3142933 54.1151153,60.0061904 53.624407,60.4649765 C51.6114419,62.3476303 50.1389511,63 48.1201312,63 C44.3016816,63 42,60.0639819 42,55.249919 C42,51.492766 43.4549263,49.2034448 47.2104363,47.0311247 C48.4952065,46.2387082 50.0053877,45.5558473 54.3946836,43.7210576 C54.6995009,43.5937746 54.9051519,43.3002082 54.9051519,42.9789871 L54.9051519,41.9827051 C54.9051519,38.9881864 54.0583966,37.813921 51.9367511,37.813921 C49.9929462,37.813921 49.0155548,38.8495579 48.6799997,41.2838895 C48.6254765,41.6799205 48.291751,41.9827051 47.879717,41.9827051 L43.5936126,41.9827051 C43.0988792,41.9827051 42.698189,41.563274 42.7666173,41.0878241 C43.5240865,35.7959359 46.9806341,33 52.7242263,33 C55.5114932,33 57.5116508,33.704382 58.9051013,35.2308207 C60.1774299,36.7572594 60.5407956,38.1067783 60.5407956,41.6887842 L60.5407956,54.6631409 C60.5407956,58.3812935 60.6275203,59.9228715 60.9828356,61.6215145 C61.0878566,62.1203646 60.6977783,62.5883689 60.1726729,62.5883689 L56.014643,62.5883689 C55.6285899,62.5883689 55.2941325,62.3362848 55.2033825,61.9728723 M54.9051519,48.9311514 C54.9051519,48.3085638 54.2011081,47.9274239 53.6452648,48.2397813 C49.5962812,50.5152751 47.9382654,52.4387021 47.9382654,54.8985612 C47.9382654,56.8347519 49.150216,58.1859372 50.7859103,58.1859372 C52.2968234,58.1859372 53.6964946,57.3750842 54.769393,55.7558601 C54.8586792,55.6221952 54.9051519,55.4587483 54.9051519,55.300265 L54.9051519,48.9311514" id="Fill-8" fill="#FFFFFF" mask="url(#mask-2)"></path>
                    <path d="M72.7314771,34.1733171 C72.7314771,34.8858936 73.6206582,35.2592027 74.1525291,34.764968 C76.2297662,32.8350838 78.1581241,32 80.3734467,32 C82.5798365,32 84.0604402,32.9909138 84.8141411,34.937801 C85.0233164,35.4791262 85.7680846,35.5919278 86.189785,35.1829233 C88.4888521,32.9551825 90.5761385,32 92.9466676,32 C96.3976876,32 98,34.2025419 98,38.9055182 L98,61.1836446 C98,61.6347789 97.6218468,62 97.1554827,62 L93.1130401,62 C92.646676,62 92.2685229,61.6347789 92.2685229,61.1836446 L92.2685229,40.3329719 C92.2685229,37.7735486 91.7139478,36.8813451 90.1112632,36.8813451 C88.5744576,36.8813451 86.9814501,37.8666512 85.5484878,39.6262547 C85.4301288,39.7714804 85.3653664,39.9580451 85.3653664,40.1431719 L85.3653664,61.1836446 C85.3653664,61.6347789 84.9872132,62 84.5208491,62 L80.4784065,62 C80.0120424,62 79.6338892,61.6347789 79.6338892,61.1836446 L79.6338892,40.3329719 C79.6338892,37.7735486 79.0793142,36.8813451 77.4766296,36.8813451 C75.939824,36.8813451 74.3475609,37.8666512 72.9149708,39.6262547 C72.7962396,39.7714804 72.7314771,39.9580451 72.7314771,40.1431719 L72.7314771,61.1836446 C72.7314771,61.6347789 72.3536962,62 71.8873321,62 L67.8445173,62 C67.3781532,62 67,61.6347789 67,61.1836446 L67,33.232729 C67,32.7823496 67.3781532,32.4179193 67.8445173,32.4179193 L71.8873321,32.4179193 C72.3536962,32.4179193 72.7314771,32.7823496 72.7314771,33.232729 L72.7314771,34.1733171" id="Fill-9" fill="#FFFFFF" mask="url(#mask-2)"></path>
                    <path d="M116.168715,40.7861513 C115.763232,40.9585704 115.279385,40.7875531 115.103244,40.3911996 C113.998591,37.9061928 112.784659,36.9323057 110.82159,36.9323057 C109.095412,36.9323057 107.903767,37.9766323 107.903767,39.4863502 C107.903767,41.0528401 108.738098,41.8644712 112.904722,44.0694723 C116.237733,45.8693587 117.726301,46.7966367 118.916868,48.0158354 C120.224981,49.3499803 121,51.3229866 121,53.4701643 C121,58.5775524 117.368987,62 111.892812,62 C107.070514,62 103.979067,59.6811042 102.050147,54.6413521 C101.890902,54.2257241 102.124917,53.7589311 102.554125,53.6141972 L106.176151,52.3960498 C106.593137,52.2558717 107.058292,52.4577281 107.211786,52.8610905 C108.350948,55.8668589 109.737067,57.0685354 111.892812,57.0685354 C113.737256,57.0685354 115.047167,55.8500375 115.047167,54.1664988 C115.047167,52.5414845 114.095289,51.4971579 110.880543,49.8143201 C106.832544,47.609319 105.702009,46.8558619 104.392458,45.5206658 C103.023234,44.1272957 102.249654,42.1549902 102.249654,40.0659865 C102.249654,35.3657106 105.880666,32 110.880543,32 C115.3369,32 118.294984,33.9803657 120.164231,38.2352609 C120.337855,38.6333666 120.137989,39.1015614 119.730709,39.2750317 L116.168715,40.7861513" id="Fill-10" fill="#FFFFFF" mask="url(#mask-2)"></path>
                    <path d="M129.524994,32.2598164 L129.524994,32.5642178 C129.524994,33.2716958 130.324324,33.6432522 130.862114,33.2003529 C132.709758,31.6792274 134.32564,31 136.059555,31 C138.198158,31 139.861038,32.0947945 140.812485,34.1018748 C141.702583,36.1705629 142,38.2994626 142,42.9224261 L142,50.1614199 C142,54.845734 141.702583,56.9132831 140.812485,58.9819344 C139.861038,60.9899699 138.198158,62.0847277 136.059555,62.0847277 C134.32564,62.0847277 132.709758,61.4054636 130.862114,59.8841912 C130.324324,59.4415123 129.524994,59.8129217 129.524994,60.5204732 L129.524994,71.1664412 C129.524994,71.6267537 129.160488,72 128.710954,72 L124.81404,72 C124.364506,72 124,71.6267537 124,71.1664412 L124,32.2598164 C124,31.7995038 124.364506,31.4262943 124.81404,31.4262943 L128.710954,31.4262943 C129.160488,31.4262943 129.524994,31.7995038 129.524994,32.2598164 M129.524994,55.1344855 C129.524994,55.4096444 129.662401,55.6792928 129.886271,55.8328528 C131.19756,56.7376811 132.241569,57.0966 133.386032,57.0966 C134.514351,57.0966 135.524276,56.4886053 135.940804,55.5150791 C136.416168,54.4809372 136.476082,53.6903604 136.476082,50.5262167 L136.476082,42.5583641 C136.476082,39.3942203 136.416168,38.6047457 135.940804,37.5695016 C135.524276,36.5967102 134.514351,35.9879808 133.386032,35.9879808 C132.246233,35.9879808 131.15702,36.3942902 129.888424,37.2535648 C129.662401,37.4071248 129.524994,37.6764058 129.524994,37.9545037 L129.524994,55.1344855" id="Fill-11" fill="#FFFFFF" mask="url(#mask-2)"></path>
                    <path d="M154.221277,47.8995371 C153.780144,47.8995371 153.422449,48.2555881 153.422449,48.6946944 L153.422449,50.4518204 C153.422449,55.5010169 154.295914,57.0678518 157.09445,57.0678518 C158.785048,57.0678518 159.951076,56.1966481 160.359819,54.5138163 C160.507685,54.0207416 160.572112,53.5697202 160.587955,52.2334774 C160.593588,51.7975252 160.948818,51.4383201 161.386782,51.4383201 L165.201015,51.4383201 C165.647781,51.4383201 166.008644,51.8048845 165.999842,52.2485465 C165.92767,55.7354639 165.712912,56.9388884 164.790159,58.3438182 C163.331569,60.7236831 160.649918,62 157.09445,62 C153.771342,62 151.264665,60.955677 149.807483,58.9816262 C148.524571,57.1831479 148,55.0366786 148,51.1488534 L148,42.5598225 C148,37.9767165 148.524571,36.0610847 150.332055,34.3204997 C151.906825,32.8117333 154.180086,32 156.919827,32 C159.893338,32 162.224336,32.9272397 163.740312,34.6694017 C165.430946,36.5255281 165.955483,38.6141741 165.955483,43.1412091 L165.955483,47.1043797 C165.955483,47.543486 165.597788,47.8995371 165.156691,47.8995371 L154.221277,47.8995371 Z M160.533737,41.5740237 C160.533737,38.1498358 159.484594,36.7582229 156.977917,36.7582229 C154.471592,36.7582229 153.422449,38.1498358 153.422449,41.5740237 L153.422449,43.1412091 L160.533737,43.1412091 L160.533737,41.5740237 Z" id="Fill-12" fill="#FFFFFF" mask="url(#mask-2)"></path>
                    <path d="M184.202891,61.9728723 C184.126817,61.6686695 184.063844,61.3332664 184.015177,60.9698539 C183.928456,60.3142933 183.115762,60.0061904 182.623974,60.4649765 C180.611816,62.3476303 179.138648,63 177.119903,63 C173.302328,63 171,60.0639819 171,55.249919 C171,51.492766 172.454872,49.2034448 176.210279,47.0311247 C177.495696,46.2387082 179.00509,45.5558473 183.394954,43.7210576 C183.69976,43.5937746 183.905403,43.3002082 183.905403,42.9789871 L183.905403,41.9827051 C183.905403,38.9881864 183.057947,37.813921 180.937113,37.813921 C178.992648,37.813921 178.016025,38.8495579 177.679787,41.2838895 C177.625962,41.6799205 177.291517,41.9827051 176.879498,41.9827051 L172.593553,41.9827051 C172.098838,41.9827051 171.698895,41.563274 171.766589,41.0878241 C172.52403,35.7959359 175.980449,33 181.724559,33 C184.511722,33 186.511073,33.704382 187.905203,35.2308207 C189.177485,36.7572594 189.541203,38.1067783 189.541203,41.6887842 L189.541203,54.6631409 C189.541203,58.3812935 189.626826,59.9228715 189.98286,61.6215145 C190.087877,62.1203646 189.697118,62.5883689 189.17163,62.5883689 L185.014121,62.5883689 C184.628082,62.5883689 184.293674,62.3362848 184.202891,61.9728723 M183.905403,48.9311514 C183.905403,48.3085638 183.20069,47.9274239 182.644868,48.2397813 C178.595998,50.5152751 176.938813,52.4387021 176.938813,54.8985612 C176.938813,56.8347519 178.14995,58.1859372 179.785583,58.1859372 C181.29644,58.1859372 182.696059,57.3750842 183.770052,55.7558601 C183.8582,55.6221952 183.905403,55.4587483 183.905403,55.300265 L183.905403,48.9311514" id="Fill-13" fill="#FFFFFF" mask="url(#mask-2)"></path>
                    <path d="M202.161149,41.9106971 L207.135997,33.3486871 C207.282166,33.0967719 207.558101,32.9405166 207.856672,32.9405166 L212.280707,32.9405166 C212.930266,32.9405166 213.326125,33.6317121 212.982756,34.1658402 L207.8796,42.094319 C207.750563,42.2959501 207.719215,42.5420741 207.795762,42.7677173 L213.957823,60.9491173 C214.134246,61.4674963 213.735107,62 213.171937,62 L208.650942,62 C208.286431,62 207.964531,61.7687069 207.859187,61.4300657 L204.336187,50.1175398 C204.131332,49.4596788 203.223699,49.3399714 202.844972,49.9212055 L200.740649,53.1508335 C200.657541,53.2790158 200.61307,53.4266196 200.61307,53.5781077 L200.61307,61.1987726 C200.61307,61.6412309 200.242727,62 199.786359,62 L195.827039,62 C195.371036,62 195,61.6412309 195,61.1987726 L195,23.8011921 C195,23.3587691 195.371036,23 195.827039,23 L199.786359,23 C200.242727,23 200.61307,23.3587691 200.61307,23.8011921 L200.61307,41.5176754 C200.61307,42.3422087 201.743784,42.6300008 202.161149,41.9106971" id="Fill-14" fill="#FFFFFF" mask="url(#mask-2)"></path>
                </g>
            </g>
        </g>
    </g>
</svg>