<svg height="99" viewBox="0 0 288 99" width="288" xmlns="http://www.w3.org/2000/svg" xmlns:xlink="http://www.w3.org/1999/xlink"><mask id="a" fill="#fff"><path d="m0 0h243v72h-243z" fill="#fff" fill-rule="evenodd"/></mask><g fill="none" fill-rule="evenodd"><rect fill-rule="nonzero" height="98" rx="8" stroke="#d7dfe2" width="287" x=".5" y=".5"/><g fill="#fff" fill-rule="evenodd" transform="translate(23 14)"><path d="m209.000476 18.1549923c.032097-.5486193-.047434-1.1896462.053139-1.8273544.169048-1.0722377.719701-1.8539778 1.65303-2.3409797.229356-.1206904.370906-.2447363.422619-.5410969.406571-2.302704 1.301026-4.39559192 2.62238-6.2920123.151216-.21811287.27283-.36715973.078104-.65020865-.247865-.35960045-.070971-.6901069.18688-.98897499 1.863127-2.15867206 4.106362-3.75788371 6.774749-4.60953793 6.363898-2.03130743 11.974214-.641875 16.76604 4.16247109.441878.44371126 1.032832.88992999.467556 1.66916263-.094153.1298721.072755.24307692.145153.3454775 1.373424 1.93558114 2.281074 4.08005655 2.685184 6.44518905.044188.2614036.20218.3438182.386563.4403926 1.150523.6035623 1.715835 1.6000597 1.720471 2.9062663.004957 1.1812757.117656 2.3701107-.072434 3.5439377-.2739 1.6891118-1.936559 2.8662575-3.546793 2.5224393-.487884-.1048711-.616631-.4928281-.614135-.9673296.007846-1.9380886.04565-3.8769516.000713-5.8133439-.120901-5.2081223-2.395556-9.13083515-6.799713-11.6341366-7.369625-4.18997949-16.823103.45455237-18.444749 8.9951368-.282816 1.4851587-.233599 2.9761436-.21755 4.4721434.014658 1.3919399-.001427 2.7847279-.034595 4.1766678-.011055.4878132-.288879.7633766-.793882.7875294-2.053894.0990819-3.434807-1.2496042-3.43873-3.3732823-.00107-.4462187 0-.8924375 0-1.4285563" mask="url(#a)"/><path d="m229.551696 24.6741357c.864779.1194162 1.727044.2651318 2.598284.3176179 1.16955.071132 2.053713-.3209944 2.708489-1.0570381.820983-.9249411 1.19791-1.9997997 1.13473-3.2058923-.064975-1.2120578-1.08196-1.9286302-2.460436-1.6795932-1.230218.2227753-2.320434.7241508-3.424292 1.1849331-.975702.4073958-1.890737.8969911-2.607257 1.5923664-1.007293.9774273-.4358 2.27251 1.172781 2.6790429.287541.0728577.585134.1134885.877701.1685633" mask="url(#a)"/><path d="m224.918139 22.3152742c0-.0008619 0-.0008619 0-.0008619-.085352-.28766-.230079-.5490873-.402807-.7952997-.5978-1.0347291-1.428716-1.9687621-2.269752-2.7513952-.441604-.4263934-.911545-.8138874-1.39768-1.1785216-1.082248-.8291398-1.930032-1.3114088-1.930032-1.3114088l-.003036.0016864c-1.28635-.7149153-2.460023-.0160769-2.770056 1.6151457-.347143 1.8291668-.069159 3.5821839.824843 5.1787044.615681 1.0990366 1.566055 1.6202049 2.703293 1.7386641.711119.0736014 1.425646.1167354 2.138486.1734355.580595.0152149 1.1592.0600728 1.722927-.1522994.74354-.2800525 1.317017-.784282 1.44491-1.6726327.04416-.3071472.015147-.5863378-.061096-.8452168" mask="url(#a)"/><path d="m239.997996 27.0610499c-.013502-.6341074-.314452-1.6627124-.761081-1.9905927-.191833-.1407286-.473987-.0613781-.547892.1557166-.094514.2799649-.250141.681227-.48781 1.1528865h.001031c-.529772 1.1678414-1.306806 2.1238273-2.215021 2.908379-1.18639 1.0241285-2.596628 1.7540335-3.975597 2.2728125 0 .0007627-.000711.0007627-.000711.0007627-.343232.128758-.683622.2455454-1.018682.3495997-.002452.0007626-.005685.0014921-.008137.0022548-.222817.0696016-.44272.1339972-.65843.1931204-.001777 0-.003198.0007627-.004939.0007627-.104142.0292134-.207894.0561389-.310579.082368-.00533.0014922-.011015.0029843-.016664.0044765-.208569.0539172-.412199.1025621-.610464.1474599-.008883.0022549-.015989.0037802-.024872.0052724-.091315.0209567-.181209.0404213-.270393.0591232-.008172.0022548-.015989.003747-.023095.0052392-.189382.0396918-.373079.0763661-.549669.1092934-.012081.0022549-.024162.003747-.036242.0060019-.077459.0142254-.154561.0284507-.229142.041184-.009629.0014921-.019187.003747-.028816.0052391-.166997.0284508-.325822.0538841-.476474.0763662-.013147.0022548-.025938.0037138-.038729.0059687-.065733.0097488-.130045.018735-.191514.0276881-.008172.0007626-.017055.0022548-.024872.0030175-.071418.0104784-.141379.0194646-.208569.0284508 0 0 0 0-.001066 0-.063956.0082235-.126491.0157175-.185828.0224489-.01066.0014922-.020253.0022548-.029847.003747-.057916.0067314-.114055.0134627-.167707.0187019 0 0 0 0-.000711.0007627-.444496.0479153-.721285.0628702-.764633.0651251-.003909 0-.006396 0-.006396 0v.0007626c-5.77309.5637101 1.465666 1.7450142 6.910162.8504064l-.001101.0007626c.013146-.0022548.024161-.0045097.036952-.0067313.128624-.0209568.255115-.0434057.381251-.06738.112279-.0202272.222071-.0426761.330477-.0651251.084884-.0179724.168383-.0359448.251881-.0546467.051165-.0120037.104107-.0232116.154561-.0351821.725194-.1721968 1.391051-.3907837 1.95813-.6625251 3.368367-1.5212213 3.694935-4.0620282 3.694935-4.0620282.111533-.4821378.17016-1.0293676.156303-1.6619498" mask="url(#a)"/><path d="m14.597666 38.0032367h-3.5584364c-.4674446 0-.8464367.3643247-.8464367.8136346v14.9211769c0 2.9676686 1.0502396 4.2144767 3.5836926 4.2144767.4396517 0 .7933875-.0204395 1.2145354-.0996872.5213146-.0978944 1.0089791.2850769 1.0089791.7960638v3.2584829c0 .3973148-.3015074.7340283-.7091505.802877-1.2136773.2058292-2.0971589.2897386-3.2443195.2897386-2.84171286 0-4.94140858-.7132302-6.17698455-2.1963473-1.11171993-1.3074094-1.42169579-2.7313596-1.42169579-6.4725011v-15.5142803c0-.4493099-.37899204-.8136346-.84643669-.8136346h-2.75497628c-.46740735 0-.84643669-.3643247-.84643669-.8136346v-3.3005811c0-.4500988.37902934-.8135988.84643669-.8135988h2.75497628c.46744465 0 .84643669-.3643247.84643669-.8144235v-6.4473641c0-.4493099.37902934-.8136346.84647399-.8136346h4.05199529c.46744466 0 .84647396.3643247.84647396.8136346v6.4473641c0 .4500988.3789921.8144235.8464367.8144235h3.5584364c.4674447 0 .846474.3635.846474.8135988v3.3005811c0 .4493099-.3790293.8136346-.846474.8136346" mask="url(#a)"/><path d="m26.2211846 47.8995371c-.4411364 0-.7987984.356051-.7987984.7951573v1.757126c0 5.0491965.8735064 6.6160314 3.6713249 6.6160314 1.6914217 0 2.8574581-.8712037 3.2659933-2.5540355.1478318-.4930747.2122243-.9440961.2281024-2.2803389.0055978-.4359522.3608657-.7951573.7988335-.7951573h3.8143685c.4467694 0 .8076351.3665644.7988335.8102264-.0721731 3.4869174-.2869322 4.6903419-1.2097275 6.0952717-1.4584961 2.3798649-4.1394998 3.6561818-7.6964037 3.6561818-3.3223941 0-5.8285275-1.044323-7.286249-3.0183738-1.2828865-1.7984783-1.8074621-3.9449476-1.8074621-7.8327728v-8.5890309c0-4.583106.5245756-6.4987378 2.3320376-8.2393228 1.5745717-1.5087664 3.8478146-2.3204997 6.5876129-2.3204997 2.9734986 0 5.3047264.9272397 6.8205034 2.6694017 1.6907528 1.8561264 2.2153284 3.9447724 2.2153284 8.4718074v3.9631706c0 .4391063-.3576972.7951574-.7988336.7951574zm6.3133901-6.3255134c0-3.4241879-1.0499609-4.8158008-3.556904-4.8158008-2.5061333 0-3.5552845 1.3916129-3.5552845 4.8158008v1.5671854h7.1121885z" mask="url(#a)"/><path d="m55.2033825 61.9728723c-.0768447-.3042028-.1390523-.6396059-.1877206-1.0030184-.0874566-.6555606-.9005466-.9636635-1.3912549-.5048774-2.0129651 1.8826538-3.4854559 2.5350235-5.5042758 2.5350235-3.8184496 0-6.1201312-2.9360181-6.1201312-7.750081 0-3.757153 1.4549263-6.0464742 5.2104363-8.2187943 1.2847702-.7924165 2.7949514-1.4752774 7.1842473-3.3100671.3048173-.127283.5104683-.4208494.5104683-.7420705v-.996282c0-2.9945187-.8467553-4.1687841-2.9684008-4.1687841-1.9438049 0-2.9211963 1.0356369-3.2567514 3.4699685-.0545232.396031-.3882487.6988156-.8002827.6988156h-4.2861044c-.4947334 0-.8954236-.4194311-.8269953-.894881.7574692-5.2918882 4.2140168-8.0878241 9.957609-8.0878241 2.7872669 0 4.7874245.704382 6.180875 2.2308207 1.2723286 1.5264387 1.6356943 2.8759576 1.6356943 6.4579635v12.9743567c0 3.7181526.0867247 5.2597306.44204 6.9583736.105021.4988501-.2850573.9668544-.8101627.9668544h-4.1580299c-.3860531 0-.7205105-.2520841-.8112605-.6154966m-.2982306-13.0417209c0-.6225876-.7040438-1.0037275-1.2598871-.6913701-4.0489836 2.2754938-5.7069994 4.1989208-5.7069994 6.6587799 0 1.9361907 1.2119506 3.287376 2.8476449 3.287376 1.5109131 0 2.9105843-.810853 3.9834827-2.4300771.0892862-.1336649.1357589-.2971118.1357589-.4555951z" mask="url(#a)"/><path d="m72.7314771 34.1733171c0 .7125765.8891811 1.0858856 1.421052.5916509 2.0772371-1.9298842 4.005595-2.764968 6.2209176-2.764968 2.2063898 0 3.6869935.9909138 4.4406944 2.937801.2091753.5413252.9539435.6541268 1.3756439.2451223 2.2990671-2.2277408 4.3863535-3.1829233 6.7568826-3.1829233 3.45102 0 5.0533324 2.2025419 5.0533324 6.9055182v22.2781264c0 .4511343-.3781532.8163554-.8445173.8163554h-4.0424426c-.4663641 0-.8445172-.3652211-.8445172-.8163554v-20.8506727c0-2.5594233-.5545751-3.4516268-2.1572597-3.4516268-1.5368056 0-3.1298131.9853061-4.5627754 2.7449096-.118359.1452257-.1831214.3317904-.1831214.5169172v21.0404727c0 .4511343-.3781532.8163554-.8445173.8163554h-4.0424426c-.4663641 0-.8445173-.3652211-.8445173-.8163554v-20.8506727c0-2.5594233-.554575-3.4516268-2.1572596-3.4516268-1.5368056 0-3.1290687.9853061-4.5616588 2.7449096-.1187312.1452257-.1834937.3317904-.1834937.5169172v21.0404727c0 .4511343-.3777809.8163554-.844145.8163554h-4.0428148c-.4663641 0-.8445173-.3652211-.8445173-.8163554v-27.9509156c0-.4503794.3781532-.8148097.8445173-.8148097h4.0428148c.4663641 0 .844145.3644303.844145.8148097z" mask="url(#a)"/><path d="m116.168715 40.7861513c-.405483.1724191-.88933.0014018-1.065471-.3949517-1.104653-2.4850068-2.318585-3.4588939-4.281654-3.4588939-1.726178 0-2.917823 1.0443266-2.917823 2.5540445 0 1.5664899.834331 2.378121 5.000955 4.5831221 3.333011 1.7998864 4.821579 2.7271644 6.012146 3.9463631 1.308113 1.3341449 2.083132 3.3071512 2.083132 5.4543289 0 5.1073881-3.631013 8.5298357-9.107188 8.5298357-4.822298 0-7.913745-2.3188958-9.842665-7.3586479-.159245-.415628.07477-.882421.503978-1.0271549l3.622026-1.2181474c.416986-.1401781.882141.0616783 1.035635.4650407 1.139162 3.0057684 2.525281 4.2074449 4.681026 4.2074449 1.844444 0 3.154355-1.2184979 3.154355-2.9020366 0-1.6250143-.951878-2.6693409-4.166624-4.3521787-4.047999-2.2050011-5.178534-2.9584582-6.488085-4.2936543-1.369224-1.3933701-2.142804-3.3656756-2.142804-5.4546793 0-4.7002759 3.631012-8.0659865 8.630889-8.0659865 4.456357 0 7.414441 1.9803657 9.283688 6.2352609.173624.3981057-.026242.8663005-.433522 1.0397708z" mask="url(#a)"/><path d="m129.524994 32.2598164v.3044014c0 .707478.79933 1.0790344 1.33712.6361351 1.847644-1.5211255 3.463526-2.2003529 5.197441-2.2003529 2.138603 0 3.801483 1.0947945 4.75293 3.1018748.890098 2.0686881 1.187515 4.1975878 1.187515 8.8205513v7.2389938c0 4.6843141-.297417 6.7518632-1.187515 8.8205145-.951447 2.0080355-2.614327 3.1027933-4.75293 3.1027933-1.733915 0-3.349797-.6792641-5.197441-2.2005365-.53779-.4426789-1.33712-.0712695-1.33712.636282v10.645968c0 .4603125-.364506.8335588-.81404.8335588h-3.896914c-.449534 0-.81404-.3732463-.81404-.8335588v-38.9066248c0-.4603126.364506-.8335221.81404-.8335221h3.896914c.449534 0 .81404.3732095.81404.8335221m0 22.8746691c0 .2751589.137407.5448073.361277.6983673 1.311289.9048283 2.355298 1.2637472 3.499761 1.2637472 1.128319 0 2.138244-.6079947 2.554772-1.5815209.475364-1.0341419.535278-1.8247187.535278-4.9888624v-7.9678526c0-3.1641438-.059914-3.9536184-.535278-4.9888625-.416528-.9727914-1.426453-1.5815208-2.554772-1.5815208-1.139799 0-2.229012.4063094-3.497608 1.265584-.226023.15356-.36343.422841-.36343.7009389z" mask="url(#a)"/><path d="m154.221277 47.8995371c-.441133 0-.798828.356051-.798828.7951573v1.757126c0 5.0491965.873465 6.6160314 3.672001 6.6160314 1.690598 0 2.856626-.8712037 3.265369-2.5540355.147866-.4930747.212293-.9440961.228136-2.2803389.005633-.4359522.360863-.7951573.798827-.7951573h3.814233c.446766 0 .807629.3665644.798827.8102264-.072172 3.4869174-.28693 4.6903419-1.209683 6.0952717-1.45859 2.3798649-4.140241 3.6561818-7.695709 3.6561818-3.323108 0-5.829785-1.044323-7.286967-3.0183738-1.282912-1.7984783-1.807483-3.9449476-1.807483-7.8327728v-8.5890309c0-4.583106.524571-6.4987378 2.332055-8.2393228 1.57477-1.5087664 3.848031-2.3204997 6.587772-2.3204997 2.973511 0 5.304509.9272397 6.820485 2.6694017 1.690634 1.8561264 2.215171 3.9447724 2.215171 8.4718074v3.9631706c0 .4391063-.357695.7951574-.798792.7951574zm6.31246-6.3255134c0-3.4241879-1.049143-4.8158008-3.55582-4.8158008-2.506325 0-3.555468 1.3916129-3.555468 4.8158008v1.5671854h7.111288z" mask="url(#a)"/><path d="m184.202891 61.9728723c-.076074-.3042028-.139047-.6396059-.187714-1.0030184-.086721-.6555606-.899415-.9636635-1.391203-.5048774-2.012158 1.8826538-3.485326 2.5350235-5.504071 2.5350235-3.817575 0-6.119903-2.9360181-6.119903-7.750081 0-3.757153 1.454872-6.0464742 5.210279-8.2187943 1.285417-.7924165 2.794811-1.4752774 7.184675-3.3100671.304806-.127283.510449-.4208494.510449-.7420705v-.996282c0-2.9945187-.847456-4.1687841-2.96829-4.1687841-1.944465 0-2.921088 1.0356369-3.257326 3.4699685-.053825.396031-.38827.6988156-.800289.6988156h-4.285945c-.494715 0-.894658-.4194311-.826964-.894881.757441-5.2918882 4.21386-8.0878241 9.95797-8.0878241 2.787163 0 4.786514.704382 6.180644 2.2308207 1.272282 1.5264387 1.636 2.8759576 1.636 6.4579635v12.9743567c0 3.7181526.085623 5.2597306.441657 6.9583736.105017.4988501-.285742.9668544-.81123.9668544h-4.157509c-.386039 0-.720447-.2520841-.81123-.6154966m-.297488-13.0417209c0-.6225876-.704713-1.0037275-1.260535-.6913701-4.04887 2.2754938-5.706055 4.1989208-5.706055 6.6587799 0 1.9361907 1.211137 3.287376 2.84677 3.287376 1.510857 0 2.910476-.810853 3.984469-2.4300771.088148-.1336649.135351-.2971118.135351-.4555951z" mask="url(#a)"/><path d="m202.161149 41.9106971 4.974848-8.56201c.146169-.2519152.422104-.4081705.720675-.4081705h4.424035c.649559 0 1.045418.6911955.702049 1.2253236l-5.103156 7.9284788c-.129037.2016311-.160385.4477551-.083838.6733983l6.162061 18.1814c.176423.518379-.222716 1.0508827-.785886 1.0508827h-4.520995c-.364511 0-.686411-.2312931-.791755-.5699343l-3.523-11.3125259c-.204855-.657861-1.112488-.7775684-1.491215-.1963343l-2.104323 3.229628c-.083108.1281823-.127579.2757861-.127579.4272742v7.6206649c0 .4424583-.370343.8012274-.826711.8012274h-3.95932c-.456003 0-.827039-.3587691-.827039-.8012274v-37.3975805c0-.442423.371036-.8011921.827039-.8011921h3.95932c.456368 0 .826711.3587691.826711.8011921v17.7164833c0 .8245333 1.130714 1.1123254 1.548079.3930217" mask="url(#a)"/></g></g></svg>